<?xml version="1.0" encoding="UTF-8"?> <svg xmlns="http://www.w3.org/2000/svg" width="75" height="75" viewBox="0 0 75 75" fill="none"> <circle cx="37.4984" cy="37.4984" r="37.4984" fill="#E52629"></circle> <path fill-rule="evenodd" clip-rule="evenodd" d="M16.4078 24.1987C15.6475 24.6092 15.6069 24.7494 14.1175 32.1039C13.362 35.8344 12.5214 39.9768 12.2495 41.3092L11.7553 43.732L11.3254 44.0414C9.74464 45.1793 9.54441 47.5339 10.9054 48.9799C11.4695 49.5794 12.1489 49.9302 12.968 50.0453C13.8307 50.1665 17.8757 50.0877 18.1451 49.9443C18.6082 49.698 18.5421 48.8359 18.0406 48.5838C17.8939 48.5099 17.5237 48.4488 17.218 48.448C16.5729 48.4462 16.6835 48.7043 16.2696 46.2328C15.9546 44.3518 15.9119 44.2185 15.5008 43.8335C15.1301 43.4863 14.7142 43.3193 14.2202 43.3193C14.0171 43.3193 13.851 43.2937 13.851 43.2623C13.851 43.231 14.423 41.9932 15.122 40.5118C15.821 39.0304 16.847 36.8457 17.4021 35.6566C17.9721 34.436 18.4428 33.5525 18.4835 33.6272C18.5232 33.7 19.5359 36.1388 20.7339 39.0468L22.9122 44.3341L22.8899 45.242C22.856 46.614 23.2172 47.435 24.0994 47.9911C24.4618 48.2197 24.7096 48.2807 25.4313 48.3192L26.3179 48.3664V48.8336V49.3009H25.7723C25.3083 49.3009 25.178 49.3493 24.9015 49.624C24.6394 49.8845 24.5903 50.0036 24.6479 50.2382C24.8003 50.8588 24.9142 50.8934 26.9572 50.9407C29.338 50.9958 29.6496 50.8952 29.6496 50.0722C29.6496 49.6038 29.3195 49.3751 28.5653 49.3209L27.919 49.2744L27.9514 48.8337L27.9838 48.393L28.9235 48.3621L29.8633 48.3312L30.6431 49.116C31.5154 49.9938 32.5534 50.586 33.5967 50.8013C34.5544 50.9989 36.2199 50.8778 37.0302 50.5516C37.9604 50.1772 38.8207 49.5829 39.4031 48.9123L39.9006 48.3396H42.4384C44.9646 48.3396 44.9787 48.3383 45.5445 48.0581C46.2446 47.7113 46.6788 47.1424 46.864 46.329L47.002 45.7226L47.0705 46.7374C47.1504 47.9223 47.252 48.2786 47.7136 48.9935C48.136 49.6476 48.7553 50.182 49.529 50.5596C50.061 50.8193 50.2417 50.8497 51.2518 50.8497C52.2944 50.8497 52.4335 50.8243 53.0789 50.5164C54.7093 49.7387 55.7105 47.9655 55.5058 46.2185L55.4387 45.6463L55.8978 45.9093C56.1503 46.0541 56.7738 46.4013 57.2836 46.6811L58.2102 47.1897L58.2633 47.8468C58.3565 49.0005 59.1086 50.0968 60.151 50.5984C60.7114 50.868 62.4465 51.0554 63.6949 50.9813C64.3257 50.9438 64.5284 50.8868 64.7428 50.6867C65.2215 50.2397 64.9944 49.5155 64.3229 49.348C64.0232 49.2732 64.061 49.4286 63.6608 46.6321C63.5052 45.5461 63.3148 44.5069 63.2374 44.323C63.0471 43.8701 62.4247 43.4195 61.8913 43.3485C60.828 43.2068 59.3673 43.9418 58.7493 44.9299L58.4197 45.4568L57.9794 45.2051C57.7372 45.0667 56.685 44.4833 55.6411 43.9087L53.743 42.8639L53.5127 41.9434C53.2182 40.7664 52.9743 40.2679 52.4215 39.7129C51.7913 39.0802 51.2981 38.879 49.4838 38.5138C48.6053 38.3369 47.87 38.1923 47.8497 38.1923C47.8293 38.1923 47.8127 37.1052 47.8127 35.7767V33.3611L48.6402 32.516C49.3614 31.7795 49.4678 31.6213 49.4678 31.2861C49.4678 30.8303 49.1331 30.5017 48.6687 30.5017C48.4356 30.5017 48.167 30.6962 47.4954 31.3512C46.2205 32.5947 46.2057 32.6409 46.2029 35.424C46.2017 36.692 46.175 37.7549 46.1437 37.786C46.0877 37.8416 44.2963 37.5103 44.2147 37.4291C44.1917 37.4062 43.8769 36.2144 43.5154 34.7808L42.8579 32.174L43.1229 31.952C43.4611 31.6685 43.561 31.3234 43.3947 31.0131C43.1202 30.5011 43.1997 30.5086 38.0863 30.5062L33.25 30.5038L32.7082 30.7545C32.1367 31.019 31.6409 31.5167 31.4174 32.0505C31.3436 32.2267 30.8663 34.5099 30.3569 37.1241C29.8474 39.7384 29.4034 42.0096 29.3703 42.1711C29.3114 42.4587 29.2942 42.4648 28.5395 42.464L27.7688 42.4632L26.5487 37.9968L25.3285 33.5305L22.0607 29.052C20.2633 26.5889 18.643 24.4553 18.46 24.3109C17.9986 23.9465 16.9783 23.8908 16.4078 24.1987ZM20.6773 29.9337L23.8128 34.2256L24.2085 35.6482C24.4261 36.4306 24.9337 38.2724 25.3365 39.7411L26.0688 42.4114L25.4018 42.4813C25.035 42.5197 24.589 42.6262 24.4107 42.7179L24.0865 42.8845L23.8514 42.3275C23.6351 41.8148 22.0823 38.0431 18.4773 29.2739C17.7047 27.3942 17.0971 25.7925 17.1272 25.7144C17.1574 25.6363 17.263 25.5881 17.3619 25.6071C17.4608 25.6261 18.9528 27.5731 20.6773 29.9337ZM17.0225 30.0242C17.2954 30.6688 17.5251 31.269 17.5329 31.3582C17.5452 31.4981 14.8014 37.4653 14.7499 37.4111C14.7169 37.3764 16.4613 28.7879 16.4946 28.8209C16.5122 28.8383 16.7497 29.3798 17.0225 30.0242ZM41.9054 35.1017L42.642 38.0463L42.6993 40.0152C42.7308 41.0981 42.7279 42.0923 42.6927 42.2245C42.6315 42.4551 42.5815 42.4648 41.4614 42.4648H40.2939L40.0649 42.0187C39.5734 41.0613 38.0263 39.7476 37.0467 39.4559L36.6354 39.3334V36.6335C36.6354 35.024 36.5903 33.8157 36.5238 33.6417C36.2293 32.8719 35.322 32.8719 35.0275 33.6417C34.9616 33.8141 34.9158 34.9775 34.9158 36.4825V39.0314L34.2979 39.1045C33.5301 39.1952 32.5437 39.5138 31.9375 39.8668C31.651 40.0337 31.4767 40.086 31.4767 40.005C31.4767 39.8315 32.75 33.3365 32.8839 32.8264C33.0717 32.1117 33.0951 32.1081 37.3705 32.1341L41.1688 32.1573L41.9054 35.1017ZM47.3828 41.2125C48.7719 41.9767 49.9221 42.6127 49.9387 42.6258C49.9553 42.6388 49.7059 42.7817 49.3846 42.9433C49.0632 43.105 48.5922 43.4479 48.3379 43.7056C47.9086 44.1403 47.8353 44.1738 47.3139 44.1738C46.8409 44.1738 46.7414 44.1391 46.682 43.9532C46.4889 43.3487 45.5825 42.6665 44.7715 42.5152L44.3735 42.441V41.0072V39.5734L44.6153 39.6982C44.7483 39.7669 45.9937 40.4483 47.3828 41.2125ZM50.0548 40.2877C50.8808 40.4691 51.2934 40.7429 51.5789 41.2988C51.697 41.5289 51.7639 41.7171 51.7276 41.7171C51.6642 41.7171 48.7744 40.1343 48.6803 40.0479C48.6245 39.9969 49.1377 40.0864 50.0548 40.2877ZM36.2323 40.9204C37.3351 41.2321 38.3157 42.114 38.8726 43.2952C39.1282 43.8371 39.1611 44.0347 39.1611 45.0284C39.1611 46.0216 39.1281 46.2197 38.873 46.7607C37.3022 50.0916 32.6076 50.1414 31.0076 46.8442C30.6928 46.1954 30.6706 46.0728 30.6706 44.9749C30.6706 43.8911 30.6951 43.7503 30.9868 43.1591C31.9492 41.2082 34.0613 40.3067 36.2323 40.9204ZM34.2704 42.5646C32.5294 43.091 31.8504 44.9919 32.8748 46.4717C33.7077 47.6749 35.62 47.8295 36.6781 46.7793C37.0804 46.38 37.3946 45.6748 37.4169 45.1213C37.4312 44.7632 37.3801 44.6369 37.1364 44.4286C36.9725 44.2885 36.7508 44.1738 36.6439 44.1738C36.2971 44.1738 35.915 44.5757 35.7891 45.0729C35.5922 45.8502 34.9264 46.1205 34.3392 45.6614C34.1232 45.4926 34.0561 45.3451 34.0561 45.0392C34.0561 44.5448 34.3519 44.2425 35.0043 44.0703C35.366 43.975 35.4996 43.875 35.6082 43.6184C35.9388 42.8371 35.226 42.2757 34.2704 42.5646ZM28.9662 45.0016C28.9707 45.5157 29.0257 46.1166 29.0884 46.3368L29.2024 46.7374H28.5662H27.93V46.1043C27.93 45.5475 27.8959 45.4444 27.6469 45.2498C27.3238 44.9972 27.1868 44.9802 26.8184 45.1469C26.4819 45.2993 26.3179 45.6645 26.3179 46.2617V46.7374H25.7329C24.9264 46.7374 24.5908 46.4513 24.5184 45.7021C24.4895 45.404 24.5252 44.9817 24.5976 44.7638C24.7992 44.1563 25.0987 44.0761 27.1812 44.0712L28.9579 44.067L28.9662 45.0016ZM44.7414 44.2169C45.1965 44.4058 45.3944 44.9318 45.3035 45.7107C45.2562 46.1159 45.1682 46.3187 44.9619 46.497C44.6948 46.728 44.6049 46.7374 42.6594 46.7374H40.6348L40.742 46.2834C40.8009 46.0338 40.8491 45.433 40.8494 44.9482L40.8496 44.067H42.6149C43.887 44.067 44.4813 44.1089 44.7414 44.2169ZM52.2063 44.3034C52.7162 44.4575 53.3967 45.101 53.6504 45.6692C54.4159 47.3825 53.1471 49.3016 51.2518 49.2975C49.2377 49.2931 47.9998 47.0872 49.0574 45.387C49.7453 44.2814 50.8618 43.8972 52.2063 44.3034ZM14.3888 44.9482C14.3891 44.9629 14.51 45.6454 14.6575 46.4648C15.047 48.6282 15.1121 48.4464 13.9478 48.4464C12.5412 48.4464 11.9788 48.1264 11.6875 47.1605C11.3278 45.9672 12.3113 44.9388 13.8241 44.9262C14.1344 44.9237 14.3886 44.9336 14.3888 44.9482ZM61.7434 45.0767C61.7764 45.1621 61.9358 46.1474 62.0978 47.2664L62.3921 49.3009H61.8161C61.0636 49.3009 60.594 49.0958 60.2144 48.6012C59.9517 48.2589 59.8999 48.0806 59.8653 47.3999C59.843 46.9603 59.8777 46.4252 59.9423 46.2107C60.088 45.7273 60.554 45.2716 61.1004 45.078C61.6311 44.8899 61.6713 44.8899 61.7434 45.0767ZM50.9633 45.9904C50.1834 46.3027 50.441 47.4851 51.2889 47.4851C52.1167 47.4851 52.3648 46.3428 51.6111 46.0014C51.3089 45.8646 51.2787 45.8642 50.9633 45.9904Z" fill="white"></path> </svg> 