<?xml version="1.0" encoding="UTF-8"?> <svg xmlns="http://www.w3.org/2000/svg" width="133" height="133" viewBox="0 0 133 133" fill="none"> <path d="M22.7403 46.027L22.1209 47.6919L16.9037 46.5971L20.992 50.6934L20.8432 51.0934L15.0737 51.5162L19.7359 54.1029L19.1125 55.7787L11.9887 51.7698L12.6 50.1265L17.9972 49.8112L14.1243 46.0291L14.7357 44.3858L22.7403 46.027Z" fill="white"></path> <path d="M27.2559 38.9522C26.5253 39.9375 25.5957 40.522 24.467 40.7055C23.3367 40.8783 22.2915 40.6081 21.3314 39.8949C20.3712 39.1818 19.8132 38.2611 19.6571 37.1329C19.4995 35.9939 19.786 34.9318 20.5166 33.9464C20.9961 33.2998 21.5776 32.8245 22.2611 32.5204C22.9431 32.2057 23.6522 32.0925 24.3884 32.1809C25.1184 32.2647 25.8004 32.5421 26.4343 33.0129C27.4006 33.7306 27.9617 34.6536 28.1178 35.7818C28.2738 36.91 27.9865 37.9668 27.2559 38.9522ZM25.9358 37.9716C26.2189 37.5898 26.3884 37.1809 26.4444 36.745C26.4942 36.3045 26.4261 35.8815 26.2401 35.4759C26.0587 35.0641 25.7741 34.7143 25.3863 34.4263C24.8016 33.992 24.1716 33.8248 23.4961 33.9248C22.8191 34.0141 22.266 34.3481 21.8368 34.927C21.4121 35.4998 21.2506 36.1295 21.3522 36.8162C21.4523 37.4922 21.7947 38.0473 22.3794 38.4816C22.964 38.9159 23.5972 39.0853 24.2788 38.9899C24.9587 38.8838 25.5111 38.5443 25.9358 37.9716Z" fill="white"></path> <path d="M36.1926 26.9952L36.7945 26.4945L38.7439 28.8419L37.5046 29.8728L36.5925 28.7744L32.9278 31.823L33.84 32.9214L32.6007 33.9523L30.6513 31.6049L31.147 31.1926C31.1767 31.048 31.1867 30.9099 31.177 30.7781C31.1733 30.6415 31.1244 30.4625 31.0304 30.2411C30.9374 30.009 30.8301 29.7837 30.7086 29.5652C30.5821 29.3409 30.3728 29.0108 30.0807 28.5748C29.7944 28.134 29.5047 27.701 29.2115 27.2759C28.9134 26.8449 28.4947 26.2446 27.9554 25.475L32.0804 22.0435L36.1926 26.9952ZM30.1523 25.7594C31.0329 26.9639 31.6461 27.8766 31.9921 28.4975C32.3332 29.1124 32.5117 29.6279 32.5279 30.0438L34.8559 28.1071L31.781 24.4045L30.1523 25.7594Z" fill="white"></path> <path d="M41.9493 23.2056L44.782 21.6988L45.5425 23.1309L41.1666 25.4586L37.3911 18.3489L41.6553 16.0806L42.4104 17.5025L39.6894 18.9499L40.4338 20.3516L42.8908 19.0446L43.6297 20.4361L41.1727 21.743L41.9493 23.2056Z" fill="white"></path> <path d="M47.8127 13.4154L52.9447 11.9124L55.2036 19.639L53.5371 20.127L51.7332 13.9568L49.7246 14.5451L50.3382 17.9962C50.5148 18.983 50.4476 19.7776 50.1365 20.38C49.8327 20.9802 49.2761 21.3989 48.4668 21.6359L48.0364 21.7619L47.5588 20.1283L48.0002 19.999C48.5962 19.8245 48.8275 19.3453 48.6942 18.5615L47.8127 13.4154Z" fill="white"></path> <path d="M62.2667 12.8442C62.8264 12.805 63.333 12.8889 63.7866 13.0959C64.2479 13.3024 64.6162 13.6118 64.8916 14.0239C65.1741 14.4279 65.3344 14.902 65.3724 15.4463C65.4298 16.2667 65.2048 16.9604 64.6975 17.5276C64.1896 18.087 63.5102 18.3966 62.6592 18.4562L59.5312 18.6753L58.9682 10.6253L60.7162 10.5028L60.8867 12.9409L62.2667 12.8442ZM62.4185 16.832C62.7865 16.8063 63.078 16.678 63.293 16.4472C63.5151 16.2082 63.6141 15.9162 63.5899 15.5712C63.5739 15.3412 63.506 15.1418 63.3863 14.973C63.2743 14.8036 63.119 14.6759 62.9204 14.5896C62.7217 14.5034 62.4997 14.4689 62.2544 14.486L61.0009 14.5739L61.165 16.9199L62.4185 16.832Z" fill="white"></path> <path d="M74.8681 10.9278L76.5867 11.1766L75.4353 19.1439L73.7167 18.8951L74.1921 15.6058L71.1988 15.1724L70.7234 18.4618L68.9935 18.2113L70.1448 10.2441L71.8748 10.4945L71.4307 13.5676L74.424 14.0009L74.8681 10.9278Z" fill="white"></path> <path d="M84.8644 15.9154C85.3807 16.1314 85.7946 16.4334 86.1061 16.8214C86.4247 17.2124 86.6144 17.6533 86.6752 18.1442C86.7461 18.6309 86.6766 19.1254 86.4668 19.6277C86.1505 20.3846 85.6394 20.9021 84.9334 21.1801C84.2303 21.451 83.4862 21.4222 82.7012 21.0937L79.8156 19.8862L82.9186 12.4583L84.5311 13.1331L83.5914 15.3827L84.8644 15.9154ZM89.2413 15.1041L90.8538 15.7789L87.7509 23.2068L86.1384 22.532L89.2413 15.1041ZM83.2139 19.5381C83.5534 19.6801 83.8706 19.6965 84.1655 19.5872C84.4705 19.4738 84.6894 19.2579 84.8224 18.9396C84.9111 18.7274 84.9399 18.5192 84.9088 18.315C84.8849 18.1139 84.8037 17.9303 84.6653 17.7643C84.5269 17.5984 84.3445 17.4681 84.1182 17.3734L82.9619 16.8895L82.0576 19.0542L83.2139 19.5381Z" fill="white"></path> <path d="M98.8101 19.4342L99.6024 18.4072L102.336 20.5199L101.544 21.5468L98.8101 19.4342ZM101.322 22.4923L102.321 23.2643L97.413 29.6259L96.0325 28.559L98.9842 24.733L93.0899 26.2849L92.1363 25.548L97.0442 19.1864L98.4246 20.2533L95.508 24.0338L101.322 22.4923Z" fill="white"></path> <path d="M111.462 32.8694C111.942 33.5254 112.129 34.2294 112.023 34.9814C111.924 35.7289 111.553 36.3382 110.91 36.8094C110.273 37.276 109.58 37.4459 108.832 37.3192C108.09 37.1878 107.479 36.7942 107 36.1382L106.205 35.0521L104.174 36.5404L103.142 35.1294L109.636 30.3724L111.462 32.8694ZM108.258 35.1311C108.461 35.4096 108.711 35.5689 109.006 35.6092C109.306 35.6556 109.592 35.5792 109.864 35.3798C110.136 35.1805 110.296 34.9307 110.342 34.6306C110.399 34.3321 110.326 34.0436 110.122 33.7652L109.369 32.7348L107.504 34.1007L108.258 35.1311Z" fill="white"></path> <path d="M116.853 41.6492L118.24 44.6567L110.933 48.0331L110.201 46.4458L112.737 45.2737L112.27 44.2608L109.093 44.044L108.274 42.2687L111.783 42.573C111.778 42.3052 111.806 42.047 111.869 41.7985C111.935 41.5569 112.028 41.3367 112.147 41.138C112.273 40.936 112.428 40.7504 112.612 40.5811C112.799 40.4188 113.007 40.2845 113.237 40.1784C113.926 39.8601 114.614 39.8419 115.301 40.124C115.996 40.4028 116.513 40.9112 116.853 41.6492ZM113.514 43.306L114.126 44.6322L116.036 43.7495L115.425 42.4233C115.28 42.11 115.076 41.8961 114.812 41.7815C114.548 41.667 114.273 41.6756 113.988 41.8075C113.8 41.8943 113.654 42.0167 113.55 42.1748C113.445 42.3328 113.388 42.5112 113.379 42.7099C113.376 42.9054 113.421 43.1041 113.514 43.306Z" fill="white"></path> <path d="M115.5 57.96L115.663 58.7248L112.683 59.3626L112.347 57.7881L113.741 57.4897L112.746 52.8337L111.352 53.1322L111.016 51.5577L113.996 50.9199L114.13 51.5497C114.244 51.6429 114.362 51.7158 114.483 51.7683C114.605 51.8283 114.786 51.868 115.025 51.8873C115.274 51.9126 115.523 51.922 115.772 51.9156C116.029 51.9077 116.418 51.8754 116.939 51.8188C117.462 51.7696 117.979 51.7138 118.491 51.6513C119.011 51.5872 119.736 51.4947 120.666 51.374L121.786 56.6147L115.5 57.96ZM119.395 53.1866C117.922 53.4079 116.83 53.5278 116.121 53.5463C115.419 53.5633 114.88 53.4825 114.505 53.3041L115.137 56.2619L119.837 55.2559L119.395 53.1866Z" fill="white"></path> <path d="M116.461 68.0389C116.48 67.6253 116.633 67.2868 116.921 67.0235C117.209 66.7601 117.56 66.6378 117.973 66.6563C118.249 66.6687 118.495 66.7412 118.712 66.8737C118.928 67.0139 119.093 67.1978 119.205 67.4254C119.318 67.653 119.368 67.9009 119.356 68.1689C119.337 68.5825 119.184 68.921 118.896 69.1843C118.608 69.4476 118.257 69.57 117.844 69.5514C117.43 69.5329 117.092 69.3795 116.828 69.0914C116.565 68.8033 116.442 68.4524 116.461 68.0389Z" fill="white"></path> <path d="M110.769 85.5724L111.343 83.8968L116.571 84.8506L112.389 80.8758L112.527 80.4733L118.266 79.9001L113.551 77.4448L114.129 75.7584L121.334 79.5661L120.768 81.2199L115.397 81.6762L119.356 85.3435L118.79 86.9973L110.769 85.5724Z" fill="white"></path> <path d="M106.543 92.8138C107.244 91.8071 108.156 91.1952 109.278 90.9781C110.403 90.7717 111.456 91.0105 112.437 91.6947C113.418 92.3789 114.003 93.2825 114.193 94.4055C114.384 95.5393 114.13 96.6095 113.429 97.6162C112.969 98.2768 112.402 98.7693 111.727 99.0936C111.055 99.4286 110.35 99.5629 109.611 99.4965C108.879 99.4345 108.189 99.1776 107.541 98.7259C106.554 98.0373 105.966 97.1315 105.776 96.0085C105.586 94.8854 105.842 93.8205 106.543 92.8138ZM107.892 93.7546C107.62 94.1447 107.463 94.5584 107.42 94.9958C107.383 95.4376 107.464 95.8584 107.662 96.2582C107.856 96.6644 108.151 97.0056 108.547 97.2819C109.144 97.6985 109.779 97.8468 110.451 97.7267C111.125 97.6173 111.668 97.2669 112.08 96.6754C112.487 96.0903 112.63 95.456 112.508 94.7727C112.388 94.1 112.029 93.5553 111.431 93.1387C110.834 92.722 110.196 92.5716 109.518 92.6873C108.841 92.8137 108.299 93.1694 107.892 93.7546Z" fill="white"></path> <path d="M97.9172 105.032L97.3306 105.549L95.3174 103.261L96.5252 102.197L97.4672 103.267L101.039 100.119L100.097 99.0484L101.305 97.9838L103.318 100.272L102.835 100.698C102.809 100.843 102.803 100.981 102.816 101.112C102.824 101.248 102.878 101.426 102.978 101.644C103.078 101.873 103.191 102.095 103.319 102.31C103.451 102.53 103.67 102.854 103.974 103.28C104.272 103.712 104.574 104.136 104.879 104.552C105.189 104.974 105.624 105.562 106.184 106.314L102.164 109.858L97.9172 105.032ZM103.983 106.093C103.069 104.916 102.431 104.022 102.068 103.412C101.71 102.808 101.517 102.299 101.489 101.884L99.2199 103.884L102.395 107.493L103.983 106.093Z" fill="white"></path> <path d="M92.298 108.988L89.5105 110.577L88.7086 109.167L93.0148 106.713L96.9958 113.71L92.7995 116.101L92.0033 114.702L94.6809 113.176L93.8961 111.797L91.4782 113.175L90.6991 111.805L93.117 110.427L92.298 108.988Z" fill="white"></path> <path d="M86.7578 118.929L81.6727 120.583L79.1857 112.927L80.837 112.39L82.823 118.504L84.8133 117.856L84.0977 114.425C83.8918 113.443 83.9355 112.647 84.2286 112.036C84.5144 111.427 85.0583 110.992 85.8603 110.731L86.2868 110.592L86.8126 112.211L86.3752 112.353C85.7846 112.545 85.5676 113.031 85.7241 113.811L86.7578 118.929Z" fill="white"></path> <path d="M72.2954 119.89C71.7384 119.945 71.2309 119.875 70.7729 119.681C70.3072 119.488 69.9315 119.189 69.6456 118.786C69.3528 118.391 69.18 117.922 69.1271 117.381C69.0474 116.564 69.2527 115.866 69.7431 115.287C70.2342 114.715 70.9032 114.388 71.7502 114.305L74.8633 114L75.6454 122.012L73.9057 122.182L73.6689 119.756L72.2954 119.89ZM72.0347 115.918C71.6685 115.954 71.3813 116.09 71.1733 116.326C70.9583 116.57 70.8676 116.864 70.9012 117.207C70.9235 117.436 70.9966 117.633 71.1206 117.798C71.2369 117.964 71.3953 118.087 71.5957 118.168C71.7962 118.248 72.0185 118.277 72.2627 118.253L73.5102 118.131L73.2823 115.796L72.0347 115.918Z" fill="white"></path> <path d="M59.8419 122.158L58.1228 121.967L59.0075 113.997L60.7266 114.189L60.3614 117.479L63.3556 117.812L63.7209 114.521L65.4514 114.714L64.5666 122.684L62.8361 122.491L63.1774 119.417L60.1831 119.084L59.8419 122.158Z" fill="white"></path> <path d="M49.6459 117.47C49.1254 117.269 48.7048 116.979 48.3839 116.6C48.0559 116.219 47.8551 115.785 47.7814 115.297C47.6978 114.814 47.7539 114.319 47.9497 113.812C48.2448 113.049 48.7406 112.52 49.4371 112.224C50.1308 111.935 50.8733 111.944 51.6647 112.251L54.5734 113.378L51.6776 120.865L50.0521 120.235L50.9291 117.968L49.6459 117.47ZM45.3041 118.396L43.6786 117.766L46.5744 110.279L48.1999 110.908L45.3041 118.396ZM51.1949 113.815C50.8527 113.683 50.536 113.675 50.2449 113.792C49.9439 113.913 49.7314 114.134 49.6073 114.455C49.5246 114.669 49.5014 114.877 49.5377 115.079C49.567 115.279 49.6528 115.46 49.7952 115.622C49.9376 115.784 50.1228 115.909 50.3509 115.997L51.5166 116.449L52.3605 114.267L51.1949 113.815Z" fill="white"></path> <path d="M35.6952 114.459L34.9419 115.512L32.1389 113.503L32.8922 112.45L35.6952 114.459ZM33.0796 111.499L32.0552 110.765L36.7216 104.243L38.137 105.257L35.3306 109.18L41.1542 107.419L42.132 108.12L37.4657 114.642L36.0502 113.628L38.8233 109.752L33.0796 111.499Z" fill="white"></path> <path d="M22.5634 101.302C22.068 100.66 21.8632 99.9621 21.9491 99.2091C22.029 98.4607 22.3838 97.8432 23.0134 97.3566C23.6371 96.8746 24.3237 96.6873 25.0734 96.7946C25.8169 96.9066 26.4365 97.2837 26.9319 97.9259L27.7522 98.9892L29.7412 97.4521L30.8069 98.8334L24.4495 103.747L22.5634 101.302ZM25.7025 98.963C25.4922 98.6904 25.2391 98.5378 24.9434 98.5052C24.643 98.4666 24.3596 98.5502 24.0932 98.7561C23.8268 98.962 23.6742 99.2153 23.6356 99.5159C23.5862 99.8152 23.6667 100.101 23.877 100.374L24.6553 101.383L26.4808 99.9718L25.7025 98.963Z" fill="white"></path> <path d="M16.7617 92.811L15.2724 89.8297L22.5161 86.2047L23.3022 87.7781L20.7875 89.0365L21.2892 90.0407L24.4916 90.1591L25.3707 91.9189L21.8321 91.7229C21.8458 91.9921 21.825 92.2526 21.7698 92.5045C21.7111 92.7496 21.6249 92.9739 21.511 93.1775C21.3902 93.3846 21.2402 93.5762 21.0608 93.7522C20.8779 93.9213 20.6727 94.0629 20.445 94.1768C19.762 94.5186 19.0705 94.5584 18.3704 94.2963C17.6634 94.0376 17.1272 93.5425 16.7617 92.811ZM20.068 91.04L19.4112 89.7253L17.5175 90.673L18.1743 91.9876C18.3294 92.2982 18.5415 92.5069 18.8105 92.6139C19.0795 92.7208 19.3554 92.7035 19.6383 92.5619C19.8246 92.4687 19.9677 92.341 20.0678 92.1788C20.1678 92.0166 20.2196 91.8354 20.2231 91.6352C20.2197 91.4385 20.168 91.2401 20.068 91.04Z" fill="white"></path> <path d="M17.765 76.3814L17.5794 75.6218L20.5396 74.8974L20.9216 76.4614L19.5365 76.8003L20.6664 81.4253L22.0515 81.0864L22.4336 82.6504L19.4735 83.3748L19.3207 82.7492C19.204 82.6593 19.0844 82.5899 18.962 82.541C18.8377 82.4846 18.6557 82.4502 18.4159 82.4378C18.1669 82.4198 17.9177 82.4177 17.6685 82.4313C17.4118 82.4467 17.024 82.4904 16.5048 82.5622C15.9839 82.6265 15.4685 82.6974 14.9586 82.7748C14.4413 82.854 13.7193 82.9676 12.7926 83.1155L11.5208 77.9096L17.765 76.3814ZM14.0101 81.2666C15.4766 81.0024 16.5642 80.8507 17.2728 80.8114C17.9739 80.774 18.5146 80.839 18.8949 81.0064L18.1771 78.0683L13.5079 79.211L14.0101 81.2666Z" fill="white"></path> <path d="M16.5206 66.3396C16.514 66.7535 16.3705 67.0963 16.0902 67.3678C15.8098 67.6394 15.4627 67.7719 15.0487 67.7653C14.7728 67.761 14.5246 67.6957 14.3043 67.5695C14.084 67.4356 13.9143 67.2566 13.7952 67.0323C13.6761 66.8081 13.6187 66.5618 13.6229 66.2935C13.6295 65.8795 13.7729 65.5368 14.0533 65.2652C14.3336 64.9936 14.6808 64.8611 15.0947 64.8677C15.5087 64.8743 15.8514 65.0178 16.123 65.2981C16.3946 65.5785 16.5271 65.9256 16.5206 66.3396Z" fill="white"></path> </svg> 