<?xml version="1.0" encoding="UTF-8"?> <svg xmlns="http://www.w3.org/2000/svg" width="526" height="212" viewBox="0 0 526 212" fill="none"> <rect width="526" height="212" rx="3" fill="#EEEEEE"></rect> <rect width="526" height="212" rx="3" fill="url(#paint0_linear_2435_9065)"></rect> <mask id="mask0_2435_9065" style="mask-type:alpha" maskUnits="userSpaceOnUse" x="0" y="0" width="526" height="212"> <rect width="526" height="212" rx="3" fill="#EEEEEE"></rect> <rect width="526" height="212" rx="3" fill="url(#paint1_linear_2435_9065)"></rect> </mask> <g mask="url(#mask0_2435_9065)"> <g opacity="0.4"> <path fill-rule="evenodd" clip-rule="evenodd" d="M437.655 107.917C438.851 107.202 440.37 108.063 440.37 109.456V126.843C440.37 127.488 440.023 128.084 439.462 128.402L398.231 151.809C397.669 152.128 397.323 152.724 397.323 153.369V164.405C397.323 165.816 398.878 166.675 400.072 165.922L437.62 142.27C438.814 141.518 440.37 142.376 440.37 143.787V252.012C440.37 253.398 438.864 254.261 437.669 253.559L381.381 220.54C380.832 220.218 380.495 219.629 380.495 218.993V143.14C380.495 142.509 380.826 141.925 381.368 141.601L437.655 107.917ZM397.145 171.225C395.951 171.978 394.396 171.119 394.396 169.708V151.665C394.396 151.019 394.742 150.424 395.304 150.105L436.534 126.698C437.096 126.379 437.442 125.784 437.442 125.138V114.619C437.442 113.226 435.924 112.365 434.728 113.08L384.295 143.261C383.753 143.584 383.422 144.169 383.422 144.8V217.316C383.422 217.953 383.759 218.542 384.308 218.864L434.742 248.448C435.937 249.15 437.442 248.287 437.442 246.901V149.091C437.442 147.679 435.887 146.821 434.693 147.573L397.145 171.225ZM394.396 185.292C394.396 184.656 394.732 184.068 395.28 183.746L423.991 166.87C425.187 166.167 426.693 167.029 426.693 168.416V226.456C426.693 227.839 425.195 228.701 424 228.007L395.289 211.351C394.736 211.03 394.396 210.439 394.396 209.799V185.292ZM497.493 168.98C496.503 168.98 495.7 168.176 495.7 167.186V153.132C495.7 152.515 495.382 151.941 494.859 151.613L472.708 137.722C471.514 136.973 469.962 137.831 469.962 139.241V221.729C469.962 223.109 471.455 223.972 472.651 223.283L494.802 210.519C495.358 210.198 495.7 209.606 495.7 208.965V188.522C495.7 187.531 496.503 186.728 497.493 186.728H510.923C511.914 186.728 512.717 187.531 512.717 188.522V219.403C512.717 220.041 512.377 220.631 511.826 220.952L454.912 254.092C453.716 254.788 452.217 253.925 452.217 252.542V108.911C452.217 107.522 453.726 106.66 454.922 107.366L511.836 140.986C512.381 141.309 512.717 141.896 512.717 142.53V167.186C512.717 168.176 511.914 168.98 510.923 168.98H497.493ZM497.786 149.993C498.309 150.321 498.627 150.895 498.627 151.513V164.259C498.627 165.249 499.43 166.052 500.42 166.052H507.996C508.987 166.052 509.79 165.249 509.79 164.259V144.201C509.79 143.567 509.454 142.979 508.908 142.657L457.849 112.495C456.653 111.789 455.144 112.651 455.144 114.04V247.45C455.144 248.834 456.644 249.696 457.839 249L508.899 219.27C509.45 218.948 509.79 218.358 509.79 217.719V191.449C509.79 190.459 508.987 189.655 507.996 189.655H500.42C499.43 189.655 498.627 190.459 498.627 191.449V210.656C498.627 211.297 498.285 211.89 497.729 212.21L469.724 228.349C468.528 229.038 467.035 228.175 467.035 226.795V133.95C467.035 132.54 468.587 131.682 469.781 132.431L497.786 149.993ZM397.323 208.114C397.323 208.753 397.663 209.344 398.216 209.665L421.073 222.925C422.268 223.619 423.766 222.756 423.766 221.374V173.532C423.766 172.145 422.259 171.283 421.064 171.986L398.207 185.42C397.659 185.742 397.323 186.331 397.323 186.966V208.114ZM454.343 96.2632C450.088 93.807 444.847 93.807 440.593 96.2632L378.802 131.938C374.548 134.394 371.927 138.933 371.927 143.846V215.195C371.927 220.108 374.548 224.647 378.802 227.103L440.593 262.778C444.847 265.234 450.088 265.234 454.343 262.778L516.133 227.103C520.388 224.647 523.008 220.108 523.008 215.195V143.846C523.008 138.933 520.388 134.394 516.133 131.938L454.343 96.2632ZM525.935 142.156C525.935 137.243 523.315 132.704 519.06 130.248L454.343 92.8832C450.088 90.427 444.847 90.427 440.593 92.8832L375.875 130.248C371.621 132.704 369 137.243 369 142.156V216.885C369 221.797 371.621 226.337 375.875 228.793L440.593 266.157C444.847 268.614 450.088 268.614 454.343 266.157L519.06 228.793C523.315 226.337 525.935 221.797 525.935 216.885V142.156Z" fill="white"></path> <path d="M509.792 164.259C509.792 165.249 508.989 166.052 507.999 166.052H500.423C499.433 166.052 498.63 165.249 498.63 164.259V151.513C498.63 150.895 498.312 150.321 497.789 149.993L469.784 132.431C468.59 131.681 467.037 132.54 467.037 133.95V226.795C467.037 228.174 468.531 229.038 469.726 228.348L497.732 212.21C498.288 211.89 498.63 211.297 498.63 210.656V191.449C498.63 190.459 499.433 189.655 500.423 189.655H507.999C508.989 189.655 509.792 190.459 509.792 191.449V217.719C509.792 218.358 509.453 218.948 508.901 219.27L457.842 249C456.647 249.696 455.146 248.833 455.146 247.45V114.039C455.146 112.651 456.656 111.789 457.852 112.495L508.911 142.657C509.457 142.979 509.792 143.566 509.792 144.201V164.259Z" fill="white"></path> <path fill-rule="evenodd" clip-rule="evenodd" d="M395.304 150.106C394.743 150.425 394.396 151.021 394.396 151.666V169.71C394.396 171.121 395.951 171.979 397.146 171.227L434.694 147.575C435.888 146.822 437.443 147.681 437.443 149.092V246.903C437.443 248.289 435.938 249.151 434.742 248.449L384.309 218.865C383.76 218.543 383.423 217.954 383.423 217.317V144.801C383.423 144.17 383.754 143.586 384.295 143.262L434.729 113.081C435.924 112.366 437.443 113.227 437.443 114.621V125.14C437.443 125.785 437.096 126.381 436.535 126.699L395.304 150.106ZM394.396 185.293C394.396 184.657 394.733 184.069 395.281 183.747L423.992 166.871C425.187 166.169 426.694 167.03 426.694 168.417V226.458C426.694 227.84 425.196 228.702 424 228.009L395.29 211.352C394.737 211.031 394.396 210.44 394.396 209.801V185.293Z" fill="white"></path> </g> </g> <defs> <linearGradient id="paint0_linear_2435_9065" x1="0" y1="0" x2="287.788" y2="492.104" gradientUnits="userSpaceOnUse"> <stop offset="0.0104167" stop-color="#A7C736"></stop> <stop offset="1" stop-color="#248456"></stop> </linearGradient> <linearGradient id="paint1_linear_2435_9065" x1="0" y1="0" x2="287.788" y2="492.104" gradientUnits="userSpaceOnUse"> <stop offset="0.0104167" stop-color="#A7C736"></stop> <stop offset="1" stop-color="#248456"></stop> </linearGradient> </defs> </svg> 