<?xml version="1.0" encoding="UTF-8"?> <svg xmlns="http://www.w3.org/2000/svg" width="550" height="448" viewBox="0 0 550 448" fill="none"> <path d="M0 0V56H55V0H0ZM6.8267 7.06542H20.6089V16.0935L6.8267 20.8037V7.06542ZM20.6089 48.9346H6.8267V35.1963L20.6089 40.0374V48.9346ZM48.0445 34.8037L34.3911 29.9626V26.0374L48.0445 21.1963V34.8037ZM48.0445 13.7383L27.4356 21.0654V34.9346L48.0445 42.2617V48.9346H27.4356V34.9346L7.47073 28L27.4356 21.0654V7.06542H48.0445V13.7383Z" fill="#FF333B"></path> <path d="M0 112V168H55V112H0ZM6.8267 119.065H20.6089V128.093L6.8267 132.804V119.065ZM20.6089 160.935H6.8267V147.196L20.6089 152.037V160.935ZM48.0445 146.804L34.3911 141.963V138.037L48.0445 133.196V146.804ZM48.0445 125.738L27.4356 133.065V146.935L48.0445 154.262V160.935H27.4356V146.935L7.47073 140L27.4356 133.065V119.065H48.0445V125.738Z" fill="#FF333B"></path> <path d="M495 56V112H550V56H495ZM501.827 63.0654H515.609V72.0935L501.827 76.8037V63.0654ZM515.609 104.935H501.827V91.1963L515.609 96.0374V104.935ZM543.044 90.8037L529.391 85.9626V82.0374L543.044 77.1963V90.8037ZM543.044 69.7383L522.436 77.0654V90.9346L543.044 98.2617V104.935H522.436V90.9346L502.471 84L522.436 77.0654V63.0654H543.044V69.7383Z" fill="#FF333B"></path> <path d="M495 280V336H550V280H495ZM501.827 287.065H515.609V296.093L501.827 300.804V287.065ZM515.609 328.935H501.827V315.196L515.609 320.037V328.935ZM543.044 314.804L529.391 309.963V306.037L543.044 301.196V314.804ZM543.044 293.738L522.436 301.065V314.935L543.044 322.262V328.935H522.436V314.935L502.471 308L522.436 301.065V287.065H543.044V293.738Z" fill="#FF333B"></path> <path d="M495 168V224H550V168H495ZM501.827 175.065H515.609V184.093L501.827 188.804V175.065ZM515.609 216.935H501.827V203.196L515.609 208.037V216.935ZM543.044 202.804L529.391 197.963V194.037L543.044 189.196V202.804ZM543.044 181.738L522.436 189.065V202.935L543.044 210.262V216.935H522.436V202.935L502.471 196L522.436 189.065V175.065H543.044V181.738Z" fill="#FF333B"></path> <path d="M495 392V448H550V392H495ZM501.827 399.065H515.609V408.093L501.827 412.804V399.065ZM515.609 440.935H501.827V427.196L515.609 432.037V440.935ZM543.044 426.804L529.391 421.963V418.037L543.044 413.196V426.804ZM543.044 405.738L522.436 413.065V426.935L543.044 434.262V440.935H522.436V426.935L502.471 420L522.436 413.065V399.065H543.044V405.738Z" fill="#FF333B"></path> <path d="M110 0V56H165V0H110ZM116.827 7.06542H130.609V16.0935L116.827 20.8037V7.06542ZM130.609 48.9346H116.827V35.1963L130.609 40.0374V48.9346ZM158.044 34.8037L144.391 29.9626V26.0374L158.044 21.1963V34.8037ZM158.044 13.7383L137.436 21.0654V34.9346L158.044 42.2617V48.9346H137.436V34.9346L117.471 28L137.436 21.0654V7.06542H158.044V13.7383Z" fill="#FF333B"></path> <path d="M110 112V168H165V112H110ZM116.827 119.065H130.609V128.093L116.827 132.804V119.065ZM130.609 160.935H116.827V147.196L130.609 152.037V160.935ZM158.044 146.804L144.391 141.963V138.037L158.044 133.196V146.804ZM158.044 125.738L137.436 133.065V146.935L158.044 154.262V160.935H137.436V146.935L117.471 140L137.436 133.065V119.065H158.044V125.738Z" fill="#FF333B"></path> <path d="M55 56V112H110V56H55ZM61.8267 63.0654H75.6089V72.0935L61.8267 76.8037V63.0654ZM75.6089 104.935H61.8267V91.1963L75.6089 96.0374V104.935ZM103.044 90.8037L89.3911 85.9626V82.0374L103.044 77.1963V90.8037ZM103.044 69.7383L82.4356 77.0654V90.9346L103.044 98.2617V104.935H82.4356V90.9346L62.4707 84L82.4356 77.0654V63.0654H103.044V69.7383Z" fill="#FF333B"></path> <path d="M55 168V224H110V168H55ZM61.8267 175.065H75.6089V184.093L61.8267 188.804V175.065ZM75.6089 216.935H61.8267V203.196L75.6089 208.037V216.935ZM103.044 202.804L89.3911 197.963V194.037L103.044 189.196V202.804ZM103.044 181.738L82.4356 189.065V202.935L103.044 210.262V216.935H82.4356V202.935L62.4707 196L82.4356 189.065V175.065H103.044V181.738Z" fill="#FF333B"></path> <path d="M220 0V56H275V0H220ZM226.827 7.06542H240.609V16.0935L226.827 20.8037V7.06542ZM240.609 48.9346H226.827V35.1963L240.609 40.0374V48.9346ZM268.044 34.8037L254.391 29.9626V26.0374L268.044 21.1963V34.8037ZM268.044 13.7383L247.436 21.0654V34.9346L268.044 42.2617V48.9346H247.436V34.9346L227.471 28L247.436 21.0654V7.06542H268.044V13.7383Z" fill="#FF333B"></path> <path d="M220 224V280H275V224H220ZM226.827 231.065H240.609V240.093L226.827 244.804V231.065ZM240.609 272.935H226.827V259.196L240.609 264.037V272.935ZM268.044 258.804L254.391 253.963V250.037L268.044 245.196V258.804ZM268.044 237.738L247.436 245.065V258.935L268.044 266.262V272.935H247.436V258.935L227.471 252L247.436 245.065V231.065H268.044V237.738Z" fill="#FF333B"></path> <path d="M220 112V168H275V112H220ZM226.827 119.065H240.609V128.093L226.827 132.804V119.065ZM240.609 160.935H226.827V147.196L240.609 152.037V160.935ZM268.044 146.804L254.391 141.963V138.037L268.044 133.196V146.804ZM268.044 125.738L247.436 133.065V146.935L268.044 154.262V160.935H247.436V146.935L227.471 140L247.436 133.065V119.065H268.044V125.738Z" fill="#FF333B"></path> <path d="M220 336V392H275V336H220ZM226.827 343.065H240.609V352.093L226.827 356.804V343.065ZM240.609 384.935H226.827V371.196L240.609 376.037V384.935ZM268.044 370.804L254.391 365.963V362.037L268.044 357.196V370.804ZM268.044 349.738L247.436 357.065V370.935L268.044 378.262V384.935H247.436V370.935L227.471 364L247.436 357.065V343.065H268.044V349.738Z" fill="#FF333B"></path> <path d="M165 56V112H220V56H165ZM171.827 63.0654H185.609V72.0935L171.827 76.8037V63.0654ZM185.609 104.935H171.827V91.1963L185.609 96.0374V104.935ZM213.044 90.8037L199.391 85.9626V82.0374L213.044 77.1963V90.8037ZM213.044 69.7383L192.436 77.0654V90.9346L213.044 98.2617V104.935H192.436V90.9346L172.471 84L192.436 77.0654V63.0654H213.044V69.7383Z" fill="#FF333B"></path> <path d="M165 168V224H220V168H165ZM171.827 175.065H185.609V184.093L171.827 188.804V175.065ZM185.609 216.935H171.827V203.196L185.609 208.037V216.935ZM213.044 202.804L199.391 197.963V194.037L213.044 189.196V202.804ZM213.044 181.738L192.436 189.065V202.935L213.044 210.262V216.935H192.436V202.935L172.471 196L192.436 189.065V175.065H213.044V181.738Z" fill="#FF333B"></path> <path d="M330 0V56H385V0H330ZM336.827 7.06542H350.609V16.0935L336.827 20.8037V7.06542ZM350.609 48.9346H336.827V35.1963L350.609 40.0374V48.9346ZM378.044 34.8037L364.391 29.9626V26.0374L378.044 21.1963V34.8037ZM378.044 13.7383L357.436 21.0654V34.9346L378.044 42.2617V48.9346H357.436V34.9346L337.471 28L357.436 21.0654V7.06542H378.044V13.7383Z" fill="#FF333B"></path> <path d="M330 224V280H385V224H330ZM336.827 231.065H350.609V240.093L336.827 244.804V231.065ZM350.609 272.935H336.827V259.196L350.609 264.037V272.935ZM378.044 258.804L364.391 253.963V250.037L378.044 245.196V258.804ZM378.044 237.738L357.436 245.065V258.935L378.044 266.262V272.935H357.436V258.935L337.471 252L357.436 245.065V231.065H378.044V237.738Z" fill="#FF333B"></path> <path d="M330 112V168H385V112H330ZM336.827 119.065H350.609V128.093L336.827 132.804V119.065ZM350.609 160.935H336.827V147.196L350.609 152.037V160.935ZM378.044 146.804L364.391 141.963V138.037L378.044 133.196V146.804ZM378.044 125.738L357.436 133.065V146.935L378.044 154.262V160.935H357.436V146.935L337.471 140L357.436 133.065V119.065H378.044V125.738Z" fill="#FF333B"></path> <path d="M330 336V392H385V336H330ZM336.827 343.065H350.609V352.093L336.827 356.804V343.065ZM350.609 384.935H336.827V371.196L350.609 376.037V384.935ZM378.044 370.804L364.391 365.963V362.037L378.044 357.196V370.804ZM378.044 349.738L357.436 357.065V370.935L378.044 378.262V384.935H357.436V370.935L337.471 364L357.436 357.065V343.065H378.044V349.738Z" fill="#FF333B"></path> <path d="M275 56V112H330V56H275ZM281.827 63.0654H295.609V72.0935L281.827 76.8037V63.0654ZM295.609 104.935H281.827V91.1963L295.609 96.0374V104.935ZM323.044 90.8037L309.391 85.9626V82.0374L323.044 77.1963V90.8037ZM323.044 69.7383L302.436 77.0654V90.9346L323.044 98.2617V104.935H302.436V90.9346L282.471 84L302.436 77.0654V63.0654H323.044V69.7383Z" fill="#FF333B"></path> <path d="M275 280V336H330V280H275ZM281.827 287.065H295.609V296.093L281.827 300.804V287.065ZM295.609 328.935H281.827V315.196L295.609 320.037V328.935ZM323.044 314.804L309.391 309.963V306.037L323.044 301.196V314.804ZM323.044 293.738L302.436 301.065V314.935L323.044 322.262V328.935H302.436V314.935L282.471 308L302.436 301.065V287.065H323.044V293.738Z" fill="#FF333B"></path> <path d="M275 168V224H330V168H275ZM281.827 175.065H295.609V184.093L281.827 188.804V175.065ZM295.609 216.935H281.827V203.196L295.609 208.037V216.935ZM323.044 202.804L309.391 197.963V194.037L323.044 189.196V202.804ZM323.044 181.738L302.436 189.065V202.935L323.044 210.262V216.935H302.436V202.935L282.471 196L302.436 189.065V175.065H323.044V181.738Z" fill="#FF333B"></path> <path d="M275 392V448H330V392H275ZM281.827 399.065H295.609V408.093L281.827 412.804V399.065ZM295.609 440.935H281.827V427.196L295.609 432.037V440.935ZM323.044 426.804L309.391 421.963V418.037L323.044 413.196V426.804ZM323.044 405.738L302.436 413.065V426.935L323.044 434.262V440.935H302.436V426.935L282.471 420L302.436 413.065V399.065H323.044V405.738Z" fill="#FF333B"></path> <path d="M440 0V56H495V0H440ZM446.827 7.06542H460.609V16.0935L446.827 20.8037V7.06542ZM460.609 48.9346H446.827V35.1963L460.609 40.0374V48.9346ZM488.044 34.8037L474.391 29.9626V26.0374L488.044 21.1963V34.8037ZM488.044 13.7383L467.436 21.0654V34.9346L488.044 42.2617V48.9346H467.436V34.9346L447.471 28L467.436 21.0654V7.06542H488.044V13.7383Z" fill="#FF333B"></path> <path d="M440 224V280H495V224H440ZM446.827 231.065H460.609V240.093L446.827 244.804V231.065ZM460.609 272.935H446.827V259.196L460.609 264.037V272.935ZM488.044 258.804L474.391 253.963V250.037L488.044 245.196V258.804ZM488.044 237.738L467.436 245.065V258.935L488.044 266.262V272.935H467.436V258.935L447.471 252L467.436 245.065V231.065H488.044V237.738Z" fill="#FF333B"></path> <path d="M440 112V168H495V112H440ZM446.827 119.065H460.609V128.093L446.827 132.804V119.065ZM460.609 160.935H446.827V147.196L460.609 152.037V160.935ZM488.044 146.804L474.391 141.963V138.037L488.044 133.196V146.804ZM488.044 125.738L467.436 133.065V146.935L488.044 154.262V160.935H467.436V146.935L447.471 140L467.436 133.065V119.065H488.044V125.738Z" fill="#FF333B"></path> <path d="M440 336V392H495V336H440ZM446.827 343.065H460.609V352.093L446.827 356.804V343.065ZM460.609 384.935H446.827V371.196L460.609 376.037V384.935ZM488.044 370.804L474.391 365.963V362.037L488.044 357.196V370.804ZM488.044 349.738L467.436 357.065V370.935L488.044 378.262V384.935H467.436V370.935L447.471 364L467.436 357.065V343.065H488.044V349.738Z" fill="#FF333B"></path> <path d="M385 56V112H440V56H385ZM391.827 63.0654H405.609V72.0935L391.827 76.8037V63.0654ZM405.609 104.935H391.827V91.1963L405.609 96.0374V104.935ZM433.044 90.8037L419.391 85.9626V82.0374L433.044 77.1963V90.8037ZM433.044 69.7383L412.436 77.0654V90.9346L433.044 98.2617V104.935H412.436V90.9346L392.471 84L412.436 77.0654V63.0654H433.044V69.7383Z" fill="#FF333B"></path> <path d="M385 280V336H440V280H385ZM391.827 287.065H405.609V296.093L391.827 300.804V287.065ZM405.609 328.935H391.827V315.196L405.609 320.037V328.935ZM433.044 314.804L419.391 309.963V306.037L433.044 301.196V314.804ZM433.044 293.738L412.436 301.065V314.935L433.044 322.262V328.935H412.436V314.935L392.471 308L412.436 301.065V287.065H433.044V293.738Z" fill="#FF333B"></path> <path d="M385 168V224H440V168H385ZM391.827 175.065H405.609V184.093L391.827 188.804V175.065ZM405.609 216.935H391.827V203.196L405.609 208.037V216.935ZM433.044 202.804L419.391 197.963V194.037L433.044 189.196V202.804ZM433.044 181.738L412.436 189.065V202.935L433.044 210.262V216.935H412.436V202.935L392.471 196L412.436 189.065V175.065H433.044V181.738Z" fill="#FF333B"></path> <path d="M385 392V448H440V392H385ZM391.827 399.065H405.609V408.093L391.827 412.804V399.065ZM405.609 440.935H391.827V427.196L405.609 432.037V440.935ZM433.044 426.804L419.391 421.963V418.037L433.044 413.196V426.804ZM433.044 405.738L412.436 413.065V426.935L433.044 434.262V440.935H412.436V426.935L392.471 420L412.436 413.065V399.065H433.044V405.738Z" fill="#FF333B"></path> <path d="M61.8267 6.56542H61.3267V7.06542V20.8037V21.503L61.9884 21.2769L75.7706 16.5666L76.1089 16.451V16.0935V7.06542V6.56542H75.6089H61.8267ZM75.6089 49.4346H76.1089V48.9346V40.0374V39.6831L75.7746 39.5656L61.9924 34.7245L61.3267 34.4907V35.1963V48.9346V49.4346H61.8267H75.6089ZM102.877 35.275L103.544 35.5115V34.8037V21.1963V20.4885L102.877 20.725L89.224 25.5661L88.8911 25.6842V26.0374V29.9626V30.3158L89.224 30.4339L102.877 35.275ZM103.212 14.2094L103.544 14.0912V13.7383V7.06542V6.56542H103.044H82.4356H81.9356V7.06542V20.7098L62.3067 27.5277L60.9468 28L62.3067 28.4723L81.9356 35.2902V48.9346V49.4346H82.4356H103.044H103.544V48.9346V42.2617V41.9088L103.212 41.7906L82.9356 34.5817V34.5789V21.4211V21.4183L103.212 14.2094ZM109.5 55.5H55.5V0.5H109.5V55.5Z" stroke="#FF333B"></path> <path d="M61.8267 118.565H61.3267V119.065V132.804V133.503L61.9884 133.277L75.7706 128.567L76.1089 128.451V128.093V119.065V118.565H75.6089H61.8267ZM75.6089 161.435H76.1089V160.935V152.037V151.683L75.7746 151.566L61.9924 146.725L61.3267 146.491V147.196V160.935V161.435H61.8267H75.6089ZM102.877 147.275L103.544 147.512V146.804V133.196V132.488L102.877 132.725L89.224 137.566L88.8911 137.684V138.037V141.963V142.316L89.224 142.434L102.877 147.275ZM103.212 126.209L103.544 126.091V125.738V119.065V118.565H103.044H82.4356H81.9356V119.065V132.71L62.3067 139.528L60.9468 140L62.3067 140.472L81.9356 147.29V160.935V161.435H82.4356H103.044H103.544V160.935V154.262V153.909L103.212 153.791L82.9356 146.582V146.579V133.421V133.418L103.212 126.209ZM109.5 167.5H55.5V112.5H109.5V167.5Z" stroke="#FF333B"></path> <path d="M6.8267 62.5654H6.3267V63.0654V76.8037V77.503L6.9884 77.2769L20.7706 72.5666L21.1089 72.451V72.0935V63.0654V62.5654H20.6089H6.8267ZM20.6089 105.435H21.1089V104.935V96.0374V95.6831L20.7746 95.5656L6.9924 90.7245L6.3267 90.4907V91.1963V104.935V105.435H6.8267H20.6089ZM47.8774 91.275L48.5445 91.5115V90.8037V77.1963V76.4885L47.8774 76.725L34.224 81.5661L33.8911 81.6842V82.0374V85.9626V86.3158L34.224 86.4339L47.8774 91.275ZM48.212 70.2094L48.5445 70.0912V69.7383V63.0654V62.5654H48.0445H27.4356H26.9356V63.0654V76.7098L7.30667 83.5277L5.94685 84L7.30667 84.4723L26.9356 91.2902V104.935V105.435H27.4356H48.0445H48.5445V104.935V98.2617V97.9088L48.212 97.7906L27.9356 90.5817V90.5789V77.4211V77.4183L48.212 70.2094ZM54.5 111.5H0.5V56.5H54.5V111.5Z" stroke="#FF333B"></path> <path d="M171.827 6.56542H171.327V7.06542V20.8037V21.503L171.988 21.2769L185.771 16.5666L186.109 16.451V16.0935V7.06542V6.56542H185.609H171.827ZM185.609 49.4346H186.109V48.9346V40.0374V39.6831L185.775 39.5656L171.992 34.7245L171.327 34.4907V35.1963V48.9346V49.4346H171.827H185.609ZM212.877 35.275L213.544 35.5115V34.8037V21.1963V20.4885L212.877 20.725L199.224 25.5661L198.891 25.6842V26.0374V29.9626V30.3158L199.224 30.4339L212.877 35.275ZM213.212 14.2094L213.544 14.0912V13.7383V7.06542V6.56542H213.044H192.436H191.936V7.06542V20.7098L172.307 27.5277L170.947 28L172.307 28.4723L191.936 35.2902V48.9346V49.4346H192.436H213.044H213.544V48.9346V42.2617V41.9088L213.212 41.7906L192.936 34.5817V34.5789V21.4211V21.4183L213.212 14.2094ZM219.5 55.5H165.5V0.5H219.5V55.5Z" stroke="#FF333B"></path> <path d="M171.827 118.565H171.327V119.065V132.804V133.503L171.988 133.277L185.771 128.567L186.109 128.451V128.093V119.065V118.565H185.609H171.827ZM185.609 161.435H186.109V160.935V152.037V151.683L185.775 151.566L171.992 146.725L171.327 146.491V147.196V160.935V161.435H171.827H185.609ZM212.877 147.275L213.544 147.512V146.804V133.196V132.488L212.877 132.725L199.224 137.566L198.891 137.684V138.037V141.963V142.316L199.224 142.434L212.877 147.275ZM213.212 126.209L213.544 126.091V125.738V119.065V118.565H213.044H192.436H191.936V119.065V132.71L172.307 139.528L170.947 140L172.307 140.472L191.936 147.29V160.935V161.435H192.436H213.044H213.544V160.935V154.262V153.909L213.212 153.791L192.936 146.582V146.579V133.421V133.418L213.212 126.209ZM219.5 167.5H165.5V112.5H219.5V167.5Z" stroke="#FF333B"></path> <path d="M116.827 62.5654H116.327V63.0654V76.8037V77.503L116.988 77.2769L130.771 72.5666L131.109 72.451V72.0935V63.0654V62.5654H130.609H116.827ZM130.609 105.435H131.109V104.935V96.0374V95.6831L130.775 95.5656L116.992 90.7245L116.327 90.4907V91.1963V104.935V105.435H116.827H130.609ZM157.877 91.275L158.544 91.5115V90.8037V77.1963V76.4885L157.877 76.725L144.224 81.5661L143.891 81.6842V82.0374V85.9626V86.3158L144.224 86.4339L157.877 91.275ZM158.212 70.2094L158.544 70.0912V69.7383V63.0654V62.5654H158.044H137.436H136.936V63.0654V76.7098L117.307 83.5277L115.947 84L117.307 84.4723L136.936 91.2902V104.935V105.435H137.436H158.044H158.544V104.935V98.2617V97.9088L158.212 97.7906L137.936 90.5817V90.5789V77.4211V77.4183L158.212 70.2094ZM164.5 111.5H110.5V56.5H164.5V111.5Z" stroke="#FF333B"></path> <path d="M116.827 174.565H116.327V175.065V188.804V189.503L116.988 189.277L130.771 184.567L131.109 184.451V184.093V175.065V174.565H130.609H116.827ZM130.609 217.435H131.109V216.935V208.037V207.683L130.775 207.566L116.992 202.725L116.327 202.491V203.196V216.935V217.435H116.827H130.609ZM157.877 203.275L158.544 203.512V202.804V189.196V188.488L157.877 188.725L144.224 193.566L143.891 193.684V194.037V197.963V198.316L144.224 198.434L157.877 203.275ZM158.212 182.209L158.544 182.091V181.738V175.065V174.565H158.044H137.436H136.936V175.065V188.71L117.307 195.528L115.947 196L117.307 196.472L136.936 203.29V216.935V217.435H137.436H158.044H158.544V216.935V210.262V209.909L158.212 209.791L137.936 202.582V202.579V189.421V189.418L158.212 182.209ZM164.5 223.5H110.5V168.5H164.5V223.5Z" stroke="#FF333B"></path> <path d="M281.827 6.56542H281.327V7.06542V20.8037V21.503L281.988 21.2769L295.771 16.5666L296.109 16.451V16.0935V7.06542V6.56542H295.609H281.827ZM295.609 49.4346H296.109V48.9346V40.0374V39.6831L295.775 39.5656L281.992 34.7245L281.327 34.4907V35.1963V48.9346V49.4346H281.827H295.609ZM322.877 35.275L323.544 35.5115V34.8037V21.1963V20.4885L322.877 20.725L309.224 25.5661L308.891 25.6842V26.0374V29.9626V30.3158L309.224 30.4339L322.877 35.275ZM323.212 14.2094L323.544 14.0912V13.7383V7.06542V6.56542H323.044H302.436H301.936V7.06542V20.7098L282.307 27.5277L280.947 28L282.307 28.4723L301.936 35.2902V48.9346V49.4346H302.436H323.044H323.544V48.9346V42.2617V41.9088L323.212 41.7906L302.936 34.5817V34.5789V21.4211V21.4183L323.212 14.2094ZM329.5 55.5H275.5V0.5H329.5V55.5Z" stroke="#FF333B"></path> <path d="M281.827 230.565H281.327V231.065V244.804V245.503L281.988 245.277L295.771 240.567L296.109 240.451V240.093V231.065V230.565H295.609H281.827ZM295.609 273.435H296.109V272.935V264.037V263.683L295.775 263.566L281.992 258.725L281.327 258.491V259.196V272.935V273.435H281.827H295.609ZM322.877 259.275L323.544 259.512V258.804V245.196V244.488L322.877 244.725L309.224 249.566L308.891 249.684V250.037V253.963V254.316L309.224 254.434L322.877 259.275ZM323.212 238.209L323.544 238.091V237.738V231.065V230.565H323.044H302.436H301.936V231.065V244.71L282.307 251.528L280.947 252L282.307 252.472L301.936 259.29V272.935V273.435H302.436H323.044H323.544V272.935V266.262V265.909L323.212 265.791L302.936 258.582V258.579V245.421V245.418L323.212 238.209ZM329.5 279.5H275.5V224.5H329.5V279.5Z" stroke="#FF333B"></path> <path d="M281.827 118.565H281.327V119.065V132.804V133.503L281.988 133.277L295.771 128.567L296.109 128.451V128.093V119.065V118.565H295.609H281.827ZM295.609 161.435H296.109V160.935V152.037V151.683L295.775 151.566L281.992 146.725L281.327 146.491V147.196V160.935V161.435H281.827H295.609ZM322.877 147.275L323.544 147.512V146.804V133.196V132.488L322.877 132.725L309.224 137.566L308.891 137.684V138.037V141.963V142.316L309.224 142.434L322.877 147.275ZM323.212 126.209L323.544 126.091V125.738V119.065V118.565H323.044H302.436H301.936V119.065V132.71L282.307 139.528L280.947 140L282.307 140.472L301.936 147.29V160.935V161.435H302.436H323.044H323.544V160.935V154.262V153.909L323.212 153.791L302.936 146.582V146.579V133.421V133.418L323.212 126.209ZM329.5 167.5H275.5V112.5H329.5V167.5Z" stroke="#FF333B"></path> <path d="M281.827 342.565H281.327V343.065V356.804V357.503L281.988 357.277L295.771 352.567L296.109 352.451V352.093V343.065V342.565H295.609H281.827ZM295.609 385.435H296.109V384.935V376.037V375.683L295.775 375.566L281.992 370.725L281.327 370.491V371.196V384.935V385.435H281.827H295.609ZM322.877 371.275L323.544 371.512V370.804V357.196V356.488L322.877 356.725L309.224 361.566L308.891 361.684V362.037V365.963V366.316L309.224 366.434L322.877 371.275ZM323.212 350.209L323.544 350.091V349.738V343.065V342.565H323.044H302.436H301.936V343.065V356.71L282.307 363.528L280.947 364L282.307 364.472L301.936 371.29V384.935V385.435H302.436H323.044H323.544V384.935V378.262V377.909L323.212 377.791L302.936 370.582V370.579V357.421V357.418L323.212 350.209ZM329.5 391.5H275.5V336.5H329.5V391.5Z" stroke="#FF333B"></path> <path d="M226.827 62.5654H226.327V63.0654V76.8037V77.503L226.988 77.2769L240.771 72.5666L241.109 72.451V72.0935V63.0654V62.5654H240.609H226.827ZM240.609 105.435H241.109V104.935V96.0374V95.6831L240.775 95.5656L226.992 90.7245L226.327 90.4907V91.1963V104.935V105.435H226.827H240.609ZM267.877 91.275L268.544 91.5115V90.8037V77.1963V76.4885L267.877 76.725L254.224 81.5661L253.891 81.6842V82.0374V85.9626V86.3158L254.224 86.4339L267.877 91.275ZM268.212 70.2094L268.544 70.0912V69.7383V63.0654V62.5654H268.044H247.436H246.936V63.0654V76.7098L227.307 83.5277L225.947 84L227.307 84.4723L246.936 91.2902V104.935V105.435H247.436H268.044H268.544V104.935V98.2617V97.9088L268.212 97.7906L247.936 90.5817V90.5789V77.4211V77.4183L268.212 70.2094ZM274.5 111.5H220.5V56.5H274.5V111.5Z" stroke="#FF333B"></path> <path d="M226.827 286.565H226.327V287.065V300.804V301.503L226.988 301.277L240.771 296.567L241.109 296.451V296.093V287.065V286.565H240.609H226.827ZM240.609 329.435H241.109V328.935V320.037V319.683L240.775 319.566L226.992 314.725L226.327 314.491V315.196V328.935V329.435H226.827H240.609ZM267.877 315.275L268.544 315.512V314.804V301.196V300.488L267.877 300.725L254.224 305.566L253.891 305.684V306.037V309.963V310.316L254.224 310.434L267.877 315.275ZM268.212 294.209L268.544 294.091V293.738V287.065V286.565H268.044H247.436H246.936V287.065V300.71L227.307 307.528L225.947 308L227.307 308.472L246.936 315.29V328.935V329.435H247.436H268.044H268.544V328.935V322.262V321.909L268.212 321.791L247.936 314.582V314.579V301.421V301.418L268.212 294.209ZM274.5 335.5H220.5V280.5H274.5V335.5Z" stroke="#FF333B"></path> <path d="M226.827 174.565H226.327V175.065V188.804V189.503L226.988 189.277L240.771 184.567L241.109 184.451V184.093V175.065V174.565H240.609H226.827ZM240.609 217.435H241.109V216.935V208.037V207.683L240.775 207.566L226.992 202.725L226.327 202.491V203.196V216.935V217.435H226.827H240.609ZM267.877 203.275L268.544 203.512V202.804V189.196V188.488L267.877 188.725L254.224 193.566L253.891 193.684V194.037V197.963V198.316L254.224 198.434L267.877 203.275ZM268.212 182.209L268.544 182.091V181.738V175.065V174.565H268.044H247.436H246.936V175.065V188.71L227.307 195.528L225.947 196L227.307 196.472L246.936 203.29V216.935V217.435H247.436H268.044H268.544V216.935V210.262V209.909L268.212 209.791L247.936 202.582V202.579V189.421V189.418L268.212 182.209ZM274.5 223.5H220.5V168.5H274.5V223.5Z" stroke="#FF333B"></path> <path d="M391.827 6.56542H391.327V7.06542V20.8037V21.503L391.988 21.2769L405.771 16.5666L406.109 16.451V16.0935V7.06542V6.56542H405.609H391.827ZM405.609 49.4346H406.109V48.9346V40.0374V39.6831L405.775 39.5656L391.992 34.7245L391.327 34.4907V35.1963V48.9346V49.4346H391.827H405.609ZM432.877 35.275L433.544 35.5115V34.8037V21.1963V20.4885L432.877 20.725L419.224 25.5661L418.891 25.6842V26.0374V29.9626V30.3158L419.224 30.4339L432.877 35.275ZM433.212 14.2094L433.544 14.0912V13.7383V7.06542V6.56542H433.044H412.436H411.936V7.06542V20.7098L392.307 27.5277L390.947 28L392.307 28.4723L411.936 35.2902V48.9346V49.4346H412.436H433.044H433.544V48.9346V42.2617V41.9088L433.212 41.7906L412.936 34.5817V34.5789V21.4211V21.4183L433.212 14.2094ZM439.5 55.5H385.5V0.5H439.5V55.5Z" stroke="#FF333B"></path> <path d="M391.827 230.565H391.327V231.065V244.804V245.503L391.988 245.277L405.771 240.567L406.109 240.451V240.093V231.065V230.565H405.609H391.827ZM405.609 273.435H406.109V272.935V264.037V263.683L405.775 263.566L391.992 258.725L391.327 258.491V259.196V272.935V273.435H391.827H405.609ZM432.877 259.275L433.544 259.512V258.804V245.196V244.488L432.877 244.725L419.224 249.566L418.891 249.684V250.037V253.963V254.316L419.224 254.434L432.877 259.275ZM433.212 238.209L433.544 238.091V237.738V231.065V230.565H433.044H412.436H411.936V231.065V244.71L392.307 251.528L390.947 252L392.307 252.472L411.936 259.29V272.935V273.435H412.436H433.044H433.544V272.935V266.262V265.909L433.212 265.791L412.936 258.582V258.579V245.421V245.418L433.212 238.209ZM439.5 279.5H385.5V224.5H439.5V279.5Z" stroke="#FF333B"></path> <path d="M391.827 118.565H391.327V119.065V132.804V133.503L391.988 133.277L405.771 128.567L406.109 128.451V128.093V119.065V118.565H405.609H391.827ZM405.609 161.435H406.109V160.935V152.037V151.683L405.775 151.566L391.992 146.725L391.327 146.491V147.196V160.935V161.435H391.827H405.609ZM432.877 147.275L433.544 147.512V146.804V133.196V132.488L432.877 132.725L419.224 137.566L418.891 137.684V138.037V141.963V142.316L419.224 142.434L432.877 147.275ZM433.212 126.209L433.544 126.091V125.738V119.065V118.565H433.044H412.436H411.936V119.065V132.71L392.307 139.528L390.947 140L392.307 140.472L411.936 147.29V160.935V161.435H412.436H433.044H433.544V160.935V154.262V153.909L433.212 153.791L412.936 146.582V146.579V133.421V133.418L433.212 126.209ZM439.5 167.5H385.5V112.5H439.5V167.5Z" stroke="#FF333B"></path> <path d="M391.827 342.565H391.327V343.065V356.804V357.503L391.988 357.277L405.771 352.567L406.109 352.451V352.093V343.065V342.565H405.609H391.827ZM405.609 385.435H406.109V384.935V376.037V375.683L405.775 375.566L391.992 370.725L391.327 370.491V371.196V384.935V385.435H391.827H405.609ZM432.877 371.275L433.544 371.512V370.804V357.196V356.488L432.877 356.725L419.224 361.566L418.891 361.684V362.037V365.963V366.316L419.224 366.434L432.877 371.275ZM433.212 350.209L433.544 350.091V349.738V343.065V342.565H433.044H412.436H411.936V343.065V356.71L392.307 363.528L390.947 364L392.307 364.472L411.936 371.29V384.935V385.435H412.436H433.044H433.544V384.935V378.262V377.909L433.212 377.791L412.936 370.582V370.579V357.421V357.418L433.212 350.209ZM439.5 391.5H385.5V336.5H439.5V391.5Z" stroke="#FF333B"></path> <path d="M336.827 62.5654H336.327V63.0654V76.8037V77.503L336.988 77.2769L350.771 72.5666L351.109 72.451V72.0935V63.0654V62.5654H350.609H336.827ZM350.609 105.435H351.109V104.935V96.0374V95.6831L350.775 95.5656L336.992 90.7245L336.327 90.4907V91.1963V104.935V105.435H336.827H350.609ZM377.877 91.275L378.544 91.5115V90.8037V77.1963V76.4885L377.877 76.725L364.224 81.5661L363.891 81.6842V82.0374V85.9626V86.3158L364.224 86.4339L377.877 91.275ZM378.212 70.2094L378.544 70.0912V69.7383V63.0654V62.5654H378.044H357.436H356.936V63.0654V76.7098L337.307 83.5277L335.947 84L337.307 84.4723L356.936 91.2902V104.935V105.435H357.436H378.044H378.544V104.935V98.2617V97.9088L378.212 97.7906L357.936 90.5817V90.5789V77.4211V77.4183L378.212 70.2094ZM384.5 111.5H330.5V56.5H384.5V111.5Z" stroke="#FF333B"></path> <path d="M336.827 286.565H336.327V287.065V300.804V301.503L336.988 301.277L350.771 296.567L351.109 296.451V296.093V287.065V286.565H350.609H336.827ZM350.609 329.435H351.109V328.935V320.037V319.683L350.775 319.566L336.992 314.725L336.327 314.491V315.196V328.935V329.435H336.827H350.609ZM377.877 315.275L378.544 315.512V314.804V301.196V300.488L377.877 300.725L364.224 305.566L363.891 305.684V306.037V309.963V310.316L364.224 310.434L377.877 315.275ZM378.212 294.209L378.544 294.091V293.738V287.065V286.565H378.044H357.436H356.936V287.065V300.71L337.307 307.528L335.947 308L337.307 308.472L356.936 315.29V328.935V329.435H357.436H378.044H378.544V328.935V322.262V321.909L378.212 321.791L357.936 314.582V314.579V301.421V301.418L378.212 294.209ZM384.5 335.5H330.5V280.5H384.5V335.5Z" stroke="#FF333B"></path> <path d="M336.827 174.565H336.327V175.065V188.804V189.503L336.988 189.277L350.771 184.567L351.109 184.451V184.093V175.065V174.565H350.609H336.827ZM350.609 217.435H351.109V216.935V208.037V207.683L350.775 207.566L336.992 202.725L336.327 202.491V203.196V216.935V217.435H336.827H350.609ZM377.877 203.275L378.544 203.512V202.804V189.196V188.488L377.877 188.725L364.224 193.566L363.891 193.684V194.037V197.963V198.316L364.224 198.434L377.877 203.275ZM378.212 182.209L378.544 182.091V181.738V175.065V174.565H378.044H357.436H356.936V175.065V188.71L337.307 195.528L335.947 196L337.307 196.472L356.936 203.29V216.935V217.435H357.436H378.044H378.544V216.935V210.262V209.909L378.212 209.791L357.936 202.582V202.579V189.421V189.418L378.212 182.209ZM384.5 223.5H330.5V168.5H384.5V223.5Z" stroke="#FF333B"></path> <path d="M336.827 398.565H336.327V399.065V412.804V413.503L336.988 413.277L350.771 408.567L351.109 408.451V408.093V399.065V398.565H350.609H336.827ZM350.609 441.435H351.109V440.935V432.037V431.683L350.775 431.566L336.992 426.725L336.327 426.491V427.196V440.935V441.435H336.827H350.609ZM377.877 427.275L378.544 427.512V426.804V413.196V412.488L377.877 412.725L364.224 417.566L363.891 417.684V418.037V421.963V422.316L364.224 422.434L377.877 427.275ZM378.212 406.209L378.544 406.091V405.738V399.065V398.565H378.044H357.436H356.936V399.065V412.71L337.307 419.528L335.947 420L337.307 420.472L356.936 427.29V440.935V441.435H357.436H378.044H378.544V440.935V434.262V433.909L378.212 433.791L357.936 426.582V426.579V413.421V413.418L378.212 406.209ZM384.5 447.5H330.5V392.5H384.5V447.5Z" stroke="#FF333B"></path> <path d="M501.827 6.56542H501.327V7.06542V20.8037V21.503L501.988 21.2769L515.771 16.5666L516.109 16.451V16.0935V7.06542V6.56542H515.609H501.827ZM515.609 49.4346H516.109V48.9346V40.0374V39.6831L515.775 39.5656L501.992 34.7245L501.327 34.4907V35.1963V48.9346V49.4346H501.827H515.609ZM542.877 35.275L543.544 35.5115V34.8037V21.1963V20.4885L542.877 20.725L529.224 25.5661L528.891 25.6842V26.0374V29.9626V30.3158L529.224 30.4339L542.877 35.275ZM543.212 14.2094L543.544 14.0912V13.7383V7.06542V6.56542H543.044H522.436H521.936V7.06542V20.7098L502.307 27.5277L500.947 28L502.307 28.4723L521.936 35.2902V48.9346V49.4346H522.436H543.044H543.544V48.9346V42.2617V41.9088L543.212 41.7906L522.936 34.5817V34.5789V21.4211V21.4183L543.212 14.2094ZM549.5 55.5H495.5V0.5H549.5V55.5Z" stroke="#FF333B"></path> <path d="M501.827 230.565H501.327V231.065V244.804V245.503L501.988 245.277L515.771 240.567L516.109 240.451V240.093V231.065V230.565H515.609H501.827ZM515.609 273.435H516.109V272.935V264.037V263.683L515.775 263.566L501.992 258.725L501.327 258.491V259.196V272.935V273.435H501.827H515.609ZM542.877 259.275L543.544 259.512V258.804V245.196V244.488L542.877 244.725L529.224 249.566L528.891 249.684V250.037V253.963V254.316L529.224 254.434L542.877 259.275ZM543.212 238.209L543.544 238.091V237.738V231.065V230.565H543.044H522.436H521.936V231.065V244.71L502.307 251.528L500.947 252L502.307 252.472L521.936 259.29V272.935V273.435H522.436H543.044H543.544V272.935V266.262V265.909L543.212 265.791L522.936 258.582V258.579V245.421V245.418L543.212 238.209ZM549.5 279.5H495.5V224.5H549.5V279.5Z" stroke="#FF333B"></path> <path d="M501.827 118.565H501.327V119.065V132.804V133.503L501.988 133.277L515.771 128.567L516.109 128.451V128.093V119.065V118.565H515.609H501.827ZM515.609 161.435H516.109V160.935V152.037V151.683L515.775 151.566L501.992 146.725L501.327 146.491V147.196V160.935V161.435H501.827H515.609ZM542.877 147.275L543.544 147.512V146.804V133.196V132.488L542.877 132.725L529.224 137.566L528.891 137.684V138.037V141.963V142.316L529.224 142.434L542.877 147.275ZM543.212 126.209L543.544 126.091V125.738V119.065V118.565H543.044H522.436H521.936V119.065V132.71L502.307 139.528L500.947 140L502.307 140.472L521.936 147.29V160.935V161.435H522.436H543.044H543.544V160.935V154.262V153.909L543.212 153.791L522.936 146.582V146.579V133.421V133.418L543.212 126.209ZM549.5 167.5H495.5V112.5H549.5V167.5Z" stroke="#FF333B"></path> <path d="M501.827 342.565H501.327V343.065V356.804V357.503L501.988 357.277L515.771 352.567L516.109 352.451V352.093V343.065V342.565H515.609H501.827ZM515.609 385.435H516.109V384.935V376.037V375.683L515.775 375.566L501.992 370.725L501.327 370.491V371.196V384.935V385.435H501.827H515.609ZM542.877 371.275L543.544 371.512V370.804V357.196V356.488L542.877 356.725L529.224 361.566L528.891 361.684V362.037V365.963V366.316L529.224 366.434L542.877 371.275ZM543.212 350.209L543.544 350.091V349.738V343.065V342.565H543.044H522.436H521.936V343.065V356.71L502.307 363.528L500.947 364L502.307 364.472L521.936 371.29V384.935V385.435H522.436H543.044H543.544V384.935V378.262V377.909L543.212 377.791L522.936 370.582V370.579V357.421V357.418L543.212 350.209ZM549.5 391.5H495.5V336.5H549.5V391.5Z" stroke="#FF333B"></path> <path d="M446.827 62.5654H446.327V63.0654V76.8037V77.503L446.988 77.2769L460.771 72.5666L461.109 72.451V72.0935V63.0654V62.5654H460.609H446.827ZM460.609 105.435H461.109V104.935V96.0374V95.6831L460.775 95.5656L446.992 90.7245L446.327 90.4907V91.1963V104.935V105.435H446.827H460.609ZM487.877 91.275L488.544 91.5115V90.8037V77.1963V76.4885L487.877 76.725L474.224 81.5661L473.891 81.6842V82.0374V85.9626V86.3158L474.224 86.4339L487.877 91.275ZM488.212 70.2094L488.544 70.0912V69.7383V63.0654V62.5654H488.044H467.436H466.936V63.0654V76.7098L447.307 83.5277L445.947 84L447.307 84.4723L466.936 91.2902V104.935V105.435H467.436H488.044H488.544V104.935V98.2617V97.9088L488.212 97.7906L467.936 90.5817V90.5789V77.4211V77.4183L488.212 70.2094ZM494.5 111.5H440.5V56.5H494.5V111.5Z" stroke="#FF333B"></path> <path d="M446.827 286.565H446.327V287.065V300.804V301.503L446.988 301.277L460.771 296.567L461.109 296.451V296.093V287.065V286.565H460.609H446.827ZM460.609 329.435H461.109V328.935V320.037V319.683L460.775 319.566L446.992 314.725L446.327 314.491V315.196V328.935V329.435H446.827H460.609ZM487.877 315.275L488.544 315.512V314.804V301.196V300.488L487.877 300.725L474.224 305.566L473.891 305.684V306.037V309.963V310.316L474.224 310.434L487.877 315.275ZM488.212 294.209L488.544 294.091V293.738V287.065V286.565H488.044H467.436H466.936V287.065V300.71L447.307 307.528L445.947 308L447.307 308.472L466.936 315.29V328.935V329.435H467.436H488.044H488.544V328.935V322.262V321.909L488.212 321.791L467.936 314.582V314.579V301.421V301.418L488.212 294.209ZM494.5 335.5H440.5V280.5H494.5V335.5Z" stroke="#FF333B"></path> <path d="M446.827 174.565H446.327V175.065V188.804V189.503L446.988 189.277L460.771 184.567L461.109 184.451V184.093V175.065V174.565H460.609H446.827ZM460.609 217.435H461.109V216.935V208.037V207.683L460.775 207.566L446.992 202.725L446.327 202.491V203.196V216.935V217.435H446.827H460.609ZM487.877 203.275L488.544 203.512V202.804V189.196V188.488L487.877 188.725L474.224 193.566L473.891 193.684V194.037V197.963V198.316L474.224 198.434L487.877 203.275ZM488.212 182.209L488.544 182.091V181.738V175.065V174.565H488.044H467.436H466.936V175.065V188.71L447.307 195.528L445.947 196L447.307 196.472L466.936 203.29V216.935V217.435H467.436H488.044H488.544V216.935V210.262V209.909L488.212 209.791L467.936 202.582V202.579V189.421V189.418L488.212 182.209ZM494.5 223.5H440.5V168.5H494.5V223.5Z" stroke="#FF333B"></path> <path d="M446.827 398.565H446.327V399.065V412.804V413.503L446.988 413.277L460.771 408.567L461.109 408.451V408.093V399.065V398.565H460.609H446.827ZM460.609 441.435H461.109V440.935V432.037V431.683L460.775 431.566L446.992 426.725L446.327 426.491V427.196V440.935V441.435H446.827H460.609ZM487.877 427.275L488.544 427.512V426.804V413.196V412.488L487.877 412.725L474.224 417.566L473.891 417.684V418.037V421.963V422.316L474.224 422.434L487.877 427.275ZM488.212 406.209L488.544 406.091V405.738V399.065V398.565H488.044H467.436H466.936V399.065V412.71L447.307 419.528L445.947 420L447.307 420.472L466.936 427.29V440.935V441.435H467.436H488.044H488.544V440.935V434.262V433.909L488.212 433.791L467.936 426.582V426.579V413.421V413.418L488.212 406.209ZM494.5 447.5H440.5V392.5H494.5V447.5Z" stroke="#FF333B"></path> </svg> 