<?xml version="1.0" encoding="UTF-8"?> <svg xmlns="http://www.w3.org/2000/svg" width="45" height="45" viewBox="0 0 45 45" fill="none"> <rect width="45" height="45" rx="22.5" fill="#FF333B"></rect> <path fill-rule="evenodd" clip-rule="evenodd" d="M21.1626 8.02734C19.814 8.24932 18.7001 9.27355 18.3533 10.6106C18.2191 11.1282 18.2579 12.0829 18.4332 12.5718C18.8259 13.6677 19.7373 14.5134 20.8408 14.8062C21.2627 14.9181 22.1311 14.9162 22.5669 14.8024C23.8135 14.4768 24.8186 13.4229 25.0819 12.1652C25.1907 11.6456 25.1906 11.2754 25.0815 10.759C24.8146 9.49564 23.8959 8.49224 22.6731 8.12842C22.2904 8.01456 21.5438 7.96464 21.1626 8.02734ZM22.6544 9.41364C23.5219 9.82779 23.9798 10.6076 23.9316 11.5889C23.9045 12.1406 23.7221 12.5818 23.3566 12.9794C22.3592 14.0644 20.6393 13.9316 19.8287 12.7069C19.1315 11.6534 19.3843 10.3612 20.4444 9.56041C20.4999 9.51846 20.6974 9.42021 20.8832 9.34207C21.1706 9.22117 21.2996 9.2024 21.7476 9.21606C22.1955 9.22973 22.3308 9.25918 22.6544 9.41364ZM14.9841 14.8317C13.6011 15.1243 12.3739 16.0375 11.6679 17.2992C10.9947 18.5025 10.8761 20.1333 11.3657 21.4553C11.9201 22.9522 13.1804 24.0824 14.7859 24.5225C15.4426 24.7025 16.5748 24.7018 17.243 24.5209C19.1168 24.0137 20.4759 22.5905 20.8707 20.7221C21.0443 19.9 20.958 18.7472 20.6632 17.951C19.8202 15.6748 17.3675 14.3276 14.9841 14.8317ZM17.0964 16.0777C17.6948 16.2604 18.1943 16.5699 18.6788 17.0584C20.1599 18.5516 20.159 20.8456 18.6769 22.3485C17.9295 23.1063 17.0755 23.4673 16.0211 23.4708C14.9677 23.4744 14.1047 23.1108 13.3455 22.3434C11.8718 20.8537 11.8737 18.5468 13.35 17.0584C14.369 16.0311 15.7552 15.6683 17.0964 16.0777ZM27.9487 16.2668C27.5125 16.3674 26.9119 16.5729 26.6032 16.7272C26.2064 16.9256 25.5371 17.414 25.2826 17.6908L25.0403 17.9544L24.6517 17.8561C24.2152 17.7456 23.3404 17.5939 23.1311 17.5924C23.0518 17.5918 22.9095 17.6757 22.7948 17.7908C22.5361 18.0502 22.5228 18.3293 22.7567 18.5901C22.8932 18.7423 22.993 18.7831 23.4149 18.8594C23.6884 18.9088 24.222 19.0257 24.6006 19.1191C25.117 19.2464 25.3259 19.2748 25.4363 19.2327C25.5173 19.2019 25.8261 18.9308 26.1226 18.6304C26.7316 18.0133 27.2019 17.7392 28.0054 17.5332C28.7213 17.3496 28.7161 17.3464 28.4813 17.8139C28.0428 18.6872 27.9178 19.5061 28.0904 20.376L28.1716 20.7847L28.8851 21.4748C29.2808 21.8576 29.7614 22.3939 29.9643 22.6792C30.3537 23.2267 30.8231 24.1141 30.9844 24.6076C31.1472 25.1054 31.2745 25.1828 31.9892 25.2182C32.9 25.2634 32.8584 25.1876 32.881 26.8468C32.9011 28.3296 32.8836 28.5098 32.7029 28.6786C32.5964 28.7781 32.4964 28.7957 32.0373 28.7957C31.5472 28.7957 31.481 28.8093 31.3242 28.9416C31.2291 29.0218 31.0902 29.2396 31.0155 29.4256C30.6389 30.3626 29.4321 32.1141 28.4864 33.0961C27.5243 34.0951 27.1775 34.8831 27.1456 36.1425L27.1297 36.7725L25.3951 36.7731L23.6605 36.7737L23.6401 36.247C23.6213 35.7635 23.6064 35.7071 23.458 35.5583L23.2963 35.3963L21.8785 35.3807C21.0986 35.3722 20.3753 35.3607 20.2711 35.3552C19.8265 35.3318 19.6577 35.5677 19.6234 36.2604L19.598 36.7737H17.8853H16.1726L16.1337 36.3484C16.0188 35.0932 15.5509 34.0164 14.6688 32.9769C13.9299 32.1059 13.535 31.5074 13.0907 30.5849C12.3147 28.9736 12.125 27.9749 12.2591 26.2085C12.3059 25.5917 12.305 25.5848 12.1532 25.4038C11.8729 25.0699 11.3594 25.1185 11.1672 25.497C10.9606 25.9039 10.941 27.7523 11.1334 28.6833C11.3109 29.5424 11.4919 30.0528 11.9768 31.0631C12.4708 32.0921 12.981 32.8876 13.6293 33.6401C13.8818 33.9331 14.178 34.3129 14.2875 34.484C14.5944 34.9638 14.8127 35.6537 14.8815 36.3617C14.9639 37.2106 15.0139 37.3698 15.2826 37.6393C15.6431 38.0008 15.7484 38.0144 18.0327 37.9942L20.051 37.9763L20.2759 37.8205C20.6039 37.5932 20.7857 37.2924 20.8248 36.9121C20.855 36.6187 20.8696 36.5917 20.9811 36.6216C21.0487 36.6399 21.4003 36.6551 21.7622 36.6556L22.4204 36.6564L22.4216 36.847C22.4233 37.0921 22.5938 37.4634 22.7973 37.6654C23.1335 37.9989 23.2502 38.013 25.5027 37.9938L27.5587 37.9763L27.8077 37.8003C28.2086 37.5171 28.3288 37.221 28.3299 36.5152C28.3315 35.3799 28.557 34.8209 29.3681 33.9413C30.3086 32.9214 31.4856 31.2786 31.937 30.3557L32.0903 30.0423L32.4509 30.0132C33.1288 29.9587 33.6452 29.6189 33.9282 29.041L34.0914 28.7077L34.1121 27.2478C34.1257 26.2826 34.1093 25.6663 34.0636 25.4293C33.8992 24.5767 33.3305 24.0791 32.4344 24.0038L32.0389 23.9705L31.8776 23.5772C31.4965 22.6486 30.7649 21.6053 29.8761 20.7231C29.2792 20.1306 29.2783 20.1294 29.2401 19.7845C29.1911 19.3425 29.3036 18.8962 29.6303 18.2366C29.8306 17.8323 29.8773 17.6769 29.8773 17.4145C29.8774 17.0116 29.6578 16.6036 29.3203 16.3796C29.0365 16.1913 28.476 16.1452 27.9487 16.2668Z" fill="white"></path> </svg> 