<?xml version="1.0" encoding="UTF-8"?> <svg xmlns="http://www.w3.org/2000/svg" width="45" height="45" viewBox="0 0 45 45" fill="none"> <rect width="45" height="45" rx="22.5" fill="#FF333B"></rect> <path fill-rule="evenodd" clip-rule="evenodd" d="M20.0924 9.83463C14.9755 12.2676 14.7237 12.387 12.4466 13.4587C10.3166 14.4613 10 14.6873 10 15.2049C10 15.4061 10.4121 16.3735 11.2757 18.1997C11.9772 19.6834 13.8647 23.6802 15.4699 27.0815L18.3885 33.2657V35.1981C18.3885 36.6703 18.418 37.2014 18.5127 37.4282C18.7636 38.0293 18.3361 37.9998 26.7814 37.9998H34.3966L34.6937 37.7023L34.9908 37.4049L34.9944 34.7936C35.0141 20.7919 34.9849 16.9894 34.8564 16.7931C34.63 16.4472 34.3614 16.3921 32.9003 16.3921H31.5171L31.3222 15.5391C30.6123 12.432 30.5581 12.2483 30.2768 11.9967C29.9267 11.6835 29.7333 11.6891 28.1766 12.0572C27.4806 12.2218 26.907 12.3492 26.9021 12.3403C26.8972 12.3315 26.4883 11.4582 25.9935 10.3997C25.0019 8.27871 24.7937 7.99002 24.2634 8.00026C24.028 8.0048 22.8661 8.51587 20.0924 9.83463ZM25.1016 10.8212C25.5526 11.774 25.9078 12.5656 25.8906 12.5803C25.8735 12.595 23.4413 13.168 20.4856 13.8537C17.53 14.5393 15.0005 15.1574 14.8645 15.2271C14.7262 15.2981 14.5581 15.4958 14.4829 15.6761C14.3324 16.0366 14.1539 15.1766 16.1747 23.8279C16.63 25.7766 17.0552 27.5972 17.1197 27.8739C17.1842 28.1506 17.2213 28.3769 17.202 28.3769C17.1827 28.3769 17.015 28.0522 16.8292 27.6552C16.0866 26.0684 11.1111 15.5507 11.034 15.4045C10.962 15.2681 11.0728 15.1912 11.8956 14.8057C13.3345 14.1318 18.6499 11.6135 21.4905 10.26C22.8842 9.59581 24.0824 9.0607 24.153 9.07067C24.227 9.08117 24.6294 9.82379 25.1016 10.8212ZM29.7029 12.9147C29.7281 13.023 29.9054 13.7808 30.0969 14.5987C30.2884 15.4167 30.4455 16.1548 30.446 16.239C30.4469 16.3832 30.121 16.3921 24.8166 16.3921C21.45 16.3921 19.098 16.4257 18.9667 16.4756C18.8459 16.5216 18.6763 16.6675 18.5897 16.7998C18.443 17.0238 18.4292 17.4461 18.3885 22.9325L18.3448 28.8245L16.8677 22.476C16.0554 18.9843 15.4144 16.1037 15.4434 16.0746C15.4725 16.0456 16.6483 15.7543 18.0565 15.4273C22.024 14.5061 27.4129 13.2449 28.5246 12.9775C29.0773 12.8445 29.5582 12.7316 29.5934 12.7268C29.6285 12.7219 29.6778 12.8064 29.7029 12.9147ZM34.0296 27.1964V37.0384L26.7115 37.0161L19.3934 36.9937L19.3709 27.2834C19.3585 21.9427 19.3671 17.5239 19.39 17.4637C19.4228 17.3775 20.9718 17.3544 26.7306 17.3544H34.0296V27.1964ZM26.4957 20.9199C21.5049 20.9423 21.4512 20.9444 21.3559 21.1226C21.2812 21.2624 21.2908 21.3504 21.3989 21.5156L21.5382 21.7284H26.7179C30.63 21.7284 31.9232 21.7027 32.0023 21.6234C32.2448 21.3807 32.0885 21.0058 31.714 20.9318C31.6179 20.9128 29.2696 20.9075 26.4957 20.9199ZM21.4468 24.0029C21.2364 24.2135 21.233 24.2581 21.4081 24.5083L21.5441 24.7027H26.6566C30.0137 24.7027 31.8272 24.6717 31.9382 24.6122C32.0462 24.5543 32.1072 24.4292 32.1072 24.2653C32.1072 24.1015 32.0462 23.9764 31.9382 23.9185C31.8272 23.8591 30.0258 23.8279 26.6954 23.8279C21.7381 23.8279 21.6176 23.8319 21.4468 24.0029ZM21.3625 26.9714C21.2396 27.2013 21.2484 27.2909 21.4093 27.4522C21.5311 27.574 22.1337 27.5896 26.722 27.5896C32.1745 27.5896 32.1072 27.5945 32.1072 27.1959C32.1072 27.0949 32.06 26.965 32.0023 26.9072C31.9231 26.8279 30.6205 26.8023 26.6752 26.8023C21.6016 26.8023 21.4504 26.8071 21.3625 26.9714ZM21.4028 29.8644C21.2725 30.0086 21.2618 30.0781 21.3426 30.2556C21.3967 30.3744 21.5307 30.4938 21.6404 30.5208C21.7502 30.5478 24.1123 30.5588 26.8895 30.5451C32.3274 30.5183 32.1024 30.5384 32.1059 30.0784C32.1088 29.685 32.1657 29.6891 26.7294 29.6891C21.6688 29.6891 21.558 29.6928 21.4028 29.8644ZM21.4468 32.7509C21.2364 32.9616 21.233 33.0061 21.4081 33.2563L21.5441 33.4508H26.6566C30.0137 33.4508 31.8272 33.4197 31.9382 33.3602C32.0462 33.3023 32.1072 33.1772 32.1072 33.0134C32.1072 32.8495 32.0462 32.7244 31.9382 32.6665C31.8272 32.6071 30.0258 32.576 26.6954 32.576C21.7381 32.576 21.6176 32.58 21.4468 32.7509Z" fill="white"></path> </svg> 