<?xml version="1.0" encoding="UTF-8"?> <svg xmlns="http://www.w3.org/2000/svg" width="45" height="45" viewBox="0 0 45 45" fill="none"> <rect width="45" height="45" rx="22.5" fill="#FF333B"></rect> <g clip-path="url(#clip0_357_1552)"> <path d="M37.8778 20.7945L32.8566 14.2718C32.6708 14.0306 32.3318 13.9711 32.0747 14.1345L28.8329 16.1962H24.6047C24.55 16.1962 24.4955 16.2079 24.4429 16.2233L21.1646 17.1669L17.763 16.2365L14.4577 14.1345C14.205 13.9738 13.8722 14.0283 13.6843 14.2613L8.1305 21.1406C7.93091 21.3877 7.96387 21.7487 8.20465 21.9558L11.1156 24.4609L13.7271 27.9802C12.9633 28.7939 12.9782 30.0773 13.7729 30.8722C14.1251 31.2242 14.5731 31.4231 15.0338 31.4693C15.0178 31.5737 15.0095 31.6797 15.0095 31.7872C15.0095 32.3425 15.2258 32.8646 15.6184 33.2571C16.0111 33.6499 16.5332 33.8662 17.0885 33.8662C17.096 33.8662 17.1034 33.8657 17.1107 33.8655C17.1104 33.8797 17.1098 33.8936 17.1098 33.9078C17.1098 34.4631 17.3261 34.9852 17.7186 35.3779C18.1113 35.7705 18.6334 35.9868 19.1887 35.9868C19.2983 35.9868 19.4068 35.9778 19.5132 35.9614C19.5583 36.4237 19.7577 36.8737 20.1111 37.2271C20.5162 37.6324 21.0486 37.835 21.581 37.835C22.1133 37.835 22.6457 37.6324 23.0511 37.2271L23.369 36.9092L23.5024 37.0167C23.9043 37.4061 24.4262 37.6006 24.948 37.6006C25.4804 37.6006 26.0128 37.398 26.4179 36.9927C26.8315 36.5791 27.0341 36.0332 27.0256 35.4901C27.5685 35.4983 28.1146 35.296 28.5282 34.8826C28.9414 34.4693 29.1439 33.9238 29.1359 33.3809C29.7015 33.3899 30.238 33.1727 30.6383 32.7723C31.0519 32.3588 31.2544 31.8129 31.246 31.2697C31.7893 31.278 32.335 31.0756 32.7486 30.662C33.4544 29.9562 33.5453 28.8651 33.0219 28.0597L34.9287 24.0661L37.7954 21.5992C38.0323 21.3953 38.0685 21.0419 37.8778 20.7945ZM14.2696 15.4091L16.6463 16.9204L11.4761 23.2193L9.40422 21.436L14.2696 15.4091ZM14.6049 28.7639L15.3222 28.0466C15.3439 28.0249 15.3668 28.0043 15.3902 27.985C15.5305 27.8706 15.7003 27.8024 15.8802 27.7861C15.8852 27.7857 15.8905 27.7857 15.8955 27.7855C15.9212 27.7834 15.9468 27.782 15.9727 27.7823C16.2185 27.7857 16.4469 27.8862 16.6163 28.0649C16.9486 28.4163 16.9308 28.9903 16.5765 29.3446L15.8809 30.0402C15.5291 30.392 14.9567 30.392 14.6049 30.0402C14.2531 29.6882 14.2531 29.1157 14.6049 28.7639ZM16.4504 32.4251C16.2798 32.2548 16.186 32.0282 16.186 31.7872C16.186 31.5462 16.2798 31.3196 16.4504 31.1491L17.8413 29.7582C18.1077 29.4918 18.5265 29.4188 18.8671 29.581C19.2182 29.7484 19.4157 30.1294 19.3642 30.5128C19.3368 30.7174 19.2416 30.9102 19.0955 31.0564L17.7266 32.4251C17.5561 32.5956 17.3295 32.6895 17.0885 32.6895C16.8475 32.6895 16.6209 32.5956 16.4504 32.4251ZM18.5506 34.5457C18.3801 34.3754 18.2862 34.1488 18.2862 33.9078C18.2862 33.6668 18.3801 33.4402 18.5506 33.2697L19.9413 31.8788C20.2262 31.5941 20.6833 31.5327 21.0321 31.7357C21.3507 31.9211 21.5176 32.2851 21.4629 32.6476C21.4329 32.847 21.3381 33.0344 21.1955 33.177L19.8268 34.5457C19.6563 34.7162 19.4297 34.8101 19.1887 34.8101C18.9477 34.8101 18.7211 34.7162 18.5506 34.5457ZM20.9428 36.3951C20.5911 36.0433 20.5911 35.4709 20.9428 35.1191L21.6602 34.4018C21.6819 34.38 21.7046 34.3596 21.7279 34.3404C21.7286 34.34 21.7291 34.3395 21.7295 34.339C21.8462 34.2443 21.9833 34.1809 22.1296 34.1532C22.133 34.1527 22.1365 34.1523 22.1399 34.1518C22.1651 34.1472 22.1907 34.1436 22.2163 34.1413C22.2266 34.1404 22.2369 34.1404 22.2475 34.1397C22.2685 34.1385 22.2894 34.1372 22.3106 34.1374C22.5562 34.1408 22.7849 34.2411 22.9543 34.4201C22.9751 34.442 22.9945 34.4649 23.0124 34.4885C23.2829 34.8421 23.2465 35.3674 22.9108 35.7034L22.2189 36.3953C21.8671 36.7471 21.2946 36.7469 20.9428 36.3951ZM31.9166 29.8301C31.5648 30.1821 30.9924 30.1819 30.6406 29.8301C30.6278 29.8172 30.6142 29.8053 30.6005 29.7941L26.818 25.9718C26.5894 25.7409 26.217 25.739 25.986 25.9677C25.7551 26.1961 25.7533 26.5685 25.9817 26.7994L29.8052 30.6627C29.8056 30.6632 29.8061 30.6637 29.8065 30.6641C30.1583 31.0159 30.1583 31.5886 29.8065 31.9404C29.636 32.1109 29.4094 32.2047 29.1684 32.2047C28.9272 32.2047 28.7006 32.1109 28.5303 31.9404L25.9725 29.356C25.7441 29.1251 25.3717 29.1233 25.1408 29.3517C24.9098 29.5804 24.908 29.9527 25.1364 30.1837L27.655 32.7284C27.6679 32.7444 27.6816 32.7598 27.6962 32.7744C28.048 33.1262 28.048 33.6989 27.6962 34.0506C27.3442 34.4024 26.7715 34.4022 26.4198 34.0504L25.0238 32.6398C24.7952 32.4089 24.4228 32.4068 24.1918 32.6355C23.9609 32.8639 23.9591 33.2363 24.1875 33.4672L25.5445 34.8382C25.5573 34.8543 25.5711 34.8698 25.5859 34.8845C25.9377 35.2363 25.9377 35.8089 25.5859 36.1607C25.2341 36.5127 24.6617 36.5125 24.3099 36.1607C24.2694 36.1202 24.2218 36.0891 24.1765 36.0543C24.138 36.025 24.128 36.0046 24.1472 35.9579C24.1666 35.9105 24.1957 35.8677 24.2152 35.8201C24.2367 35.767 24.2541 35.7123 24.271 35.6574C24.3612 35.3667 24.3877 35.0541 24.3472 34.7524C24.2694 34.1736 23.951 33.6512 23.4686 33.3207C23.2079 33.1424 22.9062 33.0255 22.5935 32.9815C22.7451 32.3132 22.5631 31.5886 22.0898 31.0885C21.7002 30.6769 21.174 30.446 20.608 30.4382C20.5874 30.438 20.5668 30.438 20.546 30.4382C20.5586 29.898 20.3622 29.3613 19.9898 28.9679C19.6 28.5563 19.0738 28.3254 18.508 28.3176C18.3398 28.3153 18.1699 28.3332 18.0061 28.3709C17.936 27.8836 17.6904 27.4328 17.3185 27.1103C16.9489 26.7903 16.484 26.6127 15.9889 26.6058C15.4678 26.5982 14.9558 26.7905 14.5687 27.14L12.2948 24.076L17.7348 17.4485L19.4686 17.9227L17.2043 21.9183C16.9305 22.4015 16.8614 22.9622 17.0095 23.4974C17.1576 24.0327 17.505 24.4781 17.9882 24.7519C18.0184 24.769 18.0489 24.7853 18.0798 24.8008C18.0821 24.802 18.0843 24.8031 18.0869 24.8043C18.1681 24.8448 18.2517 24.8796 18.3363 24.9089C18.7307 25.0455 19.1567 25.0604 19.5675 24.9469C20.1026 24.7988 20.548 24.4511 20.8218 23.9682L22.2932 21.3715L24.9206 21.5578L31.9168 28.5538C32.2684 28.9058 32.2684 29.4783 31.9166 29.8301ZM32.1603 27.1336L25.5972 20.5706C25.5848 20.5581 25.5718 20.5462 25.5582 20.5349C25.4637 20.4562 25.3465 20.4086 25.2229 20.3999L22.006 20.1717C21.7835 20.1564 21.5624 20.2747 21.4526 20.4686L19.7982 23.3882C19.6794 23.5978 19.486 23.7487 19.2537 23.813C19.0216 23.8773 18.7781 23.8471 18.5682 23.7283C18.3585 23.6095 18.2077 23.4161 18.1434 23.1838C18.0791 22.9515 18.1091 22.7079 18.2281 22.4983L20.4366 18.6007L21.3315 18.3432C21.3374 18.3413 21.3432 18.339 21.3491 18.3372L24.6892 17.3727H28.7248L33.763 23.7773L32.1603 27.1336ZM34.5336 22.854L29.8745 16.928L32.2524 15.4158L36.6059 21.0707L34.5336 22.854Z" fill="white"></path> <path d="M26.1742 15.0917C26.3248 15.0917 26.4754 15.0342 26.5903 14.9193L30.6085 10.9011C30.8383 10.6713 30.8383 10.2989 30.6085 10.0691C30.3787 9.83928 30.0063 9.83928 29.7765 10.0691L25.7583 14.0873C25.5285 14.3171 25.5285 14.6895 25.7583 14.9193C25.8732 15.0342 26.0238 15.0917 26.1742 15.0917Z" fill="white"></path> <path d="M19.4094 14.9193C19.5242 15.0342 19.6749 15.0917 19.8255 15.0917C19.9758 15.0917 20.1264 15.0342 20.2413 14.9193C20.4711 14.6895 20.4711 14.3171 20.2413 14.0873L16.2231 10.0691C15.9933 9.83928 15.6209 9.83928 15.3911 10.0691C15.1613 10.2989 15.1613 10.6713 15.3911 10.9011L19.4094 14.9193Z" fill="white"></path> <path d="M23.0003 15.0917C23.3251 15.0917 23.5886 14.8282 23.5886 14.5034V11.178C23.5886 10.8532 23.3251 10.5898 23.0003 10.5898C22.6756 10.5898 22.4121 10.8532 22.4121 11.178V14.5034C22.4121 14.8282 22.6756 15.0917 23.0003 15.0917Z" fill="white"></path> <path d="M22.4579 9.04598C22.5513 9.27235 22.784 9.42089 23.0296 9.40808C23.2723 9.39549 23.4853 9.23161 23.5604 9.00067C23.6357 8.76789 23.5538 8.50262 23.3588 8.3543C23.1599 8.20278 22.8825 8.19432 22.6744 8.33187C22.4423 8.48522 22.3524 8.79055 22.4579 9.04598Z" fill="white"></path> </g> <defs> <clipPath id="clip0_357_1552"> <rect width="30" height="30" fill="white" transform="translate(8 8)"></rect> </clipPath> </defs> </svg> 