<?xml version="1.0" encoding="UTF-8"?> <svg xmlns="http://www.w3.org/2000/svg" width="160" height="28" viewBox="0 0 160 28" fill="none"> <path d="M0 0V28H28.0114V0H0ZM3.47683 3.53271H10.4961V8.04673L3.47683 10.4019V3.53271ZM10.4961 24.4673H3.47683V17.5981L10.4961 20.0187V24.4673ZM24.469 17.4019L17.5153 14.9813V13.0187L24.469 10.5981V17.4019ZM24.469 6.86916L13.9729 10.5327V17.4673L24.469 21.1308V24.4673H13.9729V17.4673L3.80483 14L13.9729 10.5327V3.53271H24.469V6.86916Z" fill="#E52629"></path> <path d="M43.2974 11.5797H40.083V8.70118H47.6926V5.23389H36.3438V22.832H43.2318C46.315 22.9629 48.8734 20.6077 49.0046 17.5984C49.0046 17.4675 49.0046 17.3367 49.0046 17.2059C49.0702 13.9348 46.643 11.5797 43.2974 11.5797ZM42.9694 19.2993H40.083V15.047H42.9694C44.1502 15.047 45.0686 16.0283 45.0686 17.2059C45.0686 18.3834 44.1502 19.2993 42.9694 19.2993Z" fill="#EEEEEE"></path> <path d="M63.6979 5.23389L55.629 15.7012V5.23389H51.8242V22.832H54.5138L62.6483 12.2339V22.832H66.4531V5.23389H63.6979Z" fill="#EEEEEE"></path> <path d="M70.0625 5.23389V22.832H73.8673V8.7666H80.0337V5.23389H70.0625Z" fill="#EEEEEE"></path> <path d="M114.344 22.7666H118.149V15.7666H124.577V22.7666H128.382C128.382 16.9442 128.382 11.0563 128.382 5.23389H124.577V12.2339H118.149V5.23389H114.344C114.344 11.0563 114.344 16.9442 114.344 22.7666Z" fill="#EEEEEE"></path> <path d="M105.024 19.2993V15.7666H110.796V12.2339H105.024V8.7666H111.649V5.23389C108.303 5.23389 104.564 5.23389 101.219 5.23389V22.7666L111.649 22.832V19.2993H105.024Z" fill="#EEEEEE"></path> <path d="M83.2461 22.832V5.23389H87.0509V19.2993H92.8894V5.23389H96.6942V19.2993H98.1374V25.8414H94.5294V22.832C90.7246 22.832 86.9853 22.832 83.2461 22.832Z" fill="#EEEEEE"></path> <path d="M135.923 8.7666V22.832H139.728V8.7666H144.32V5.23389C139.99 5.23389 135.661 5.23389 131.266 5.23389V8.7666H135.923Z" fill="#EEEEEE"></path> <path d="M154.227 16.4914H151.078C151.078 18.5849 151.078 20.6783 151.078 22.8372H147.273V5.23909H154.227C157.245 5.10824 159.803 7.46338 160 10.4727C160 10.6036 160 10.7344 160 10.8653C160 14.1363 157.638 16.4914 154.227 16.4914ZM153.899 8.70638H151.078V13.0241H153.899C155.08 13.0241 156.064 12.0428 156.064 10.8653C156.064 9.68768 155.08 8.70638 153.899 8.70638Z" fill="#EEEEEE"></path> </svg> 