<?xml version="1.0" encoding="UTF-8"?> <svg xmlns="http://www.w3.org/2000/svg" width="200" height="44" viewBox="0 0 200 44" fill="none"> <path fill-rule="evenodd" clip-rule="evenodd" d="M16.7439 4.1158C17.0355 3.94133 17.406 4.15136 17.406 4.49112V8.73141C17.406 8.88881 17.3213 9.03407 17.1845 9.11178L7.12891 14.8204C6.99202 14.8981 6.90744 15.0434 6.90744 15.2008V17.8922C6.90744 18.2364 7.28672 18.4458 7.57799 18.2622L16.7353 12.4939C17.0266 12.3104 17.406 12.5197 17.406 12.864V39.2582C17.406 39.5963 17.0387 39.8066 16.7473 39.6355L3.01953 31.5827C2.88567 31.5042 2.80344 31.3606 2.80344 31.2055V12.7061C2.80344 12.5523 2.88423 12.4098 3.01623 12.3308L16.7439 4.1158ZM6.86409 19.5556C6.57282 19.7392 6.19356 19.5298 6.19356 19.1856V14.7852C6.19356 14.6277 6.27814 14.4825 6.41501 14.4048L16.4705 8.69615C16.6074 8.61844 16.6919 8.47318 16.6919 8.31578V5.7503C16.6919 5.41052 16.3216 5.20049 16.03 5.37496L3.73012 12.7355C3.59814 12.8145 3.51733 12.957 3.51733 13.1108V30.7964C3.51733 30.9518 3.59956 31.0953 3.73341 31.1739L16.0333 38.389C16.3248 38.5602 16.6919 38.3498 16.6919 38.0118V14.1574C16.6919 13.8132 16.3128 13.6038 16.0215 13.7873L6.86409 19.5556ZM6.19356 22.9863C6.19356 22.8311 6.27564 22.6877 6.40932 22.6092L13.4114 18.4934C13.703 18.3221 14.0705 18.5322 14.0705 18.8705V33.0256C14.0705 33.3627 13.7052 33.5731 13.4136 33.4039L6.41146 29.3416C6.27657 29.2634 6.19356 29.1192 6.19356 28.9632V22.9863ZM31.3374 19.0081C31.0958 19.0081 30.9 18.8121 30.9 18.5706V15.1431C30.9 14.9925 30.8226 14.8525 30.695 14.7725L25.2928 11.3846C25.0015 11.202 24.6229 11.4113 24.6229 11.7552V31.8727C24.6229 32.2093 24.9871 32.4198 25.2787 32.2518L30.681 29.1387C30.8166 29.0605 30.9 28.9161 30.9 28.7597V23.774C30.9 23.5324 31.0958 23.3366 31.3374 23.3366H34.6128C34.8544 23.3366 35.0502 23.5324 35.0502 23.774V31.3053C35.0502 31.461 34.9674 31.605 34.8329 31.6832L20.9526 39.7655C20.661 39.9352 20.2952 39.7248 20.2952 39.3874V4.35812C20.2952 4.01946 20.6634 3.80926 20.955 3.98151L34.8353 12.1808C34.9684 12.2595 35.0502 12.4027 35.0502 12.5574V18.5706C35.0502 18.8121 34.8544 19.0081 34.6128 19.0081H31.3374ZM31.4089 14.3775C31.5365 14.4575 31.6139 14.5975 31.6139 14.7481V17.8566C31.6139 18.0982 31.8098 18.294 32.0513 18.294H33.8989C34.1405 18.294 34.3363 18.0982 34.3363 17.8566V12.9648C34.3363 12.8101 34.2545 12.6669 34.1213 12.5882L21.6689 5.23236C21.3773 5.06012 21.009 5.27031 21.009 5.60897V38.1456C21.009 38.4831 21.375 38.6934 21.6665 38.5237L34.119 31.2729C34.2536 31.1945 34.3363 31.0505 34.3363 30.8948V24.4879C34.3363 24.2464 34.1405 24.0505 33.8989 24.0505H32.0513C31.8098 24.0505 31.6139 24.2464 31.6139 24.4879V29.1722C31.6139 29.3285 31.5305 29.4731 31.395 29.5511L24.5648 33.4871C24.2732 33.6552 23.909 33.4447 23.909 33.1082V10.4648C23.909 10.121 24.2876 9.91159 24.5789 10.0943L31.4089 14.3775ZM6.90744 28.5521C6.90744 28.7081 6.99048 28.8522 7.12536 28.9305L12.6997 32.1643C12.9913 32.3335 13.3566 32.1232 13.3566 31.7861V20.1182C13.3566 19.78 12.9891 19.5697 12.6975 19.7411L7.1232 23.0176C6.98954 23.0961 6.90744 23.2397 6.90744 23.3947V28.5521ZM20.8137 1.27361C19.7761 0.674576 18.4978 0.674576 17.4603 1.27361L2.39061 9.97407C1.35306 10.5731 0.713894 11.6802 0.713894 12.8782V30.2792C0.713894 31.4772 1.35305 32.5843 2.39061 33.1834L17.4603 41.8839C18.4978 42.4829 19.7761 42.4829 20.8137 41.8839L35.8834 33.1834C36.921 32.5843 37.56 31.4772 37.56 30.2792V12.8782C37.56 11.6802 36.921 10.5731 35.8834 9.97407L20.8137 1.27361ZM38.2739 12.4661C38.2739 11.268 37.6348 10.1609 36.5973 9.56191L20.8137 0.449275C19.7761 -0.149758 18.4978 -0.149758 17.4603 0.449275L1.67672 9.56191C0.639161 10.1609 0 11.268 0 12.4661V30.6913C0 31.8893 0.639161 32.9964 1.67672 33.5955L17.4603 42.7081C18.4978 43.3071 19.7761 43.3071 20.8137 42.7081L36.5973 33.5955C37.6348 32.9964 38.2739 31.8893 38.2739 30.6913V12.4661Z" fill="white"></path> <path d="M34.337 17.8566C34.337 18.0982 34.1412 18.294 33.8996 18.294H32.052C31.8105 18.294 31.6146 18.0982 31.6146 17.8566V14.7481C31.6146 14.5975 31.5372 14.4575 31.4096 14.3775L24.5796 10.0943C24.2883 9.91159 23.9098 10.121 23.9098 10.4648V33.1082C23.9098 33.4447 24.274 33.6552 24.5656 33.4871L31.3957 29.5511C31.5312 29.4731 31.6146 29.3285 31.6146 29.1723V24.4879C31.6146 24.2464 31.8105 24.0505 32.052 24.0505H33.8996C34.1412 24.0505 34.337 24.2464 34.337 24.4879V30.8948C34.337 31.0505 34.2543 31.1945 34.1197 31.2729L21.6672 38.5237C21.3757 38.6934 21.0098 38.4831 21.0098 38.1456V5.60898C21.0098 5.27032 21.378 5.06012 21.6696 5.23236L34.122 12.5883C34.2552 12.6669 34.337 12.8101 34.337 12.9648V17.8566Z" fill="white"></path> <path fill-rule="evenodd" clip-rule="evenodd" d="M6.41526 14.405C6.27839 14.4828 6.19381 14.628 6.19381 14.7854V19.1859C6.19381 19.5301 6.57306 19.7395 6.86434 19.5559L16.0217 13.7876C16.313 13.6041 16.6922 13.8134 16.6922 14.1577V38.012C16.6922 38.3501 16.3251 38.5604 16.0336 38.3893L3.73366 31.1741C3.5998 31.0956 3.51758 30.952 3.51758 30.7967V13.1111C3.51758 12.9573 3.59838 12.8148 3.73037 12.7358L16.0303 5.37525C16.3219 5.20078 16.6922 5.41081 16.6922 5.75058V8.31607C16.6922 8.47347 16.6077 8.61873 16.4707 8.69644L6.41526 14.405ZM6.19381 22.9866C6.19381 22.8314 6.27589 22.688 6.40956 22.6095L13.4116 18.4937C13.7032 18.3224 14.0707 18.5325 14.0707 18.8708V33.0259C14.0707 33.363 13.7054 33.5733 13.4138 33.4041L6.41171 29.3419C6.27682 29.2637 6.19381 29.1195 6.19381 28.9635V22.9866Z" fill="white"></path> <path d="M47.4961 13.8774C47.4961 13.6102 47.7129 13.3936 47.98 13.3936H60.6937C60.9609 13.3936 61.1775 13.6102 61.1775 13.8774V16.4878C61.1775 16.7551 60.9609 16.9717 60.6937 16.9717H52.5404C52.2734 16.9717 52.0566 17.1885 52.0566 17.4556V19.1306C52.0566 19.3978 52.2734 19.6145 52.5404 19.6145H56.2896C58.2698 19.6145 59.79 20.0354 60.8501 20.8774C61.9104 21.7193 62.4404 22.9277 62.4404 24.5024C62.4404 26.1551 61.848 27.4491 60.663 28.3846C59.4782 29.3046 57.8177 29.7645 55.6816 29.7645H47.98C47.7129 29.7645 47.4961 29.5478 47.4961 29.2806V13.8774ZM55.3775 26.4435C56.1572 26.4435 56.7496 26.2877 57.155 25.9757C57.5605 25.664 57.763 25.2196 57.763 24.6427C57.763 23.489 56.9679 22.912 55.3775 22.912H52.5404C52.2734 22.912 52.0566 23.1288 52.0566 23.3959V25.9596C52.0566 26.2269 52.2734 26.4435 52.5404 26.4435H55.3775Z" fill="white"></path> <path d="M65.0654 13.8774C65.0654 13.6102 65.282 13.3936 65.5493 13.3936H69.142C69.4093 13.3936 69.6259 13.6102 69.6259 13.8774V21.4762C69.6259 21.9488 70.2338 22.1412 70.5056 21.7546L76.2402 13.5991C76.3309 13.4702 76.4785 13.3936 76.636 13.3936H80.2509C80.5181 13.3936 80.7347 13.6102 80.7347 13.8774V29.2806C80.7347 29.5478 80.5181 29.7645 80.2509 29.7645H76.6581C76.3909 29.7645 76.1743 29.5478 76.1743 29.2806V21.7064C76.1743 21.2338 75.5662 21.0416 75.2944 21.4283L69.5833 29.5588C69.4927 29.6877 69.3449 29.7645 69.1874 29.7645H65.5493C65.282 29.7645 65.0654 29.5478 65.0654 29.2806V13.8774Z" fill="white"></path> <path d="M96.4616 16.5845C96.46 16.8506 96.2439 17.0653 95.9778 17.0653H89.5287C89.2615 17.0653 89.0449 17.282 89.0449 17.5491V29.2806C89.0449 29.5478 88.8282 29.7645 88.561 29.7645H84.9682C84.701 29.7645 84.4844 29.5478 84.4844 29.2806V13.8774C84.4844 13.6102 84.701 13.3936 84.9682 13.3936H95.995C96.2636 13.3936 96.4807 13.6121 96.4789 13.8805L96.4616 16.5845Z" fill="white"></path> <path d="M105.346 30.0921C103.631 30.0921 102.087 29.7336 100.715 29.0163C99.3587 28.2836 98.2907 27.2702 97.5112 25.976C96.7315 24.682 96.3418 23.2163 96.3418 21.5792C96.3418 19.9421 96.7315 18.4767 97.5112 17.1825C98.2907 15.8884 99.3587 14.8828 100.715 14.1656C102.087 13.4328 103.631 13.0664 105.346 13.0664C106.843 13.0664 108.191 13.3315 109.392 13.8616C110.449 14.3284 111.349 14.9767 112.092 15.8063C112.263 15.9967 112.238 16.287 112.048 16.4584L109.813 18.4807C109.609 18.6655 109.293 18.641 109.102 18.443C108.109 17.4155 106.935 16.9018 105.58 16.9018C104.691 16.9018 103.896 17.0968 103.194 17.4865C102.508 17.8763 101.97 18.4299 101.581 19.147C101.206 19.8486 101.019 20.6594 101.019 21.5792C101.019 22.4992 101.206 23.3178 101.581 24.0349C101.97 24.7365 102.508 25.2823 103.194 25.672C103.896 26.0618 104.691 26.2567 105.58 26.2567C106.935 26.2567 108.109 25.7431 109.102 24.7157C109.293 24.5176 109.609 24.4931 109.813 24.678L112.048 26.7002C112.238 26.8717 112.263 27.162 112.092 27.3523C111.349 28.182 110.449 28.8302 109.392 29.297C108.191 29.8271 106.843 30.0921 105.346 30.0921Z" fill="white"></path> <path d="M127.371 26.1862C127.638 26.1862 127.854 26.403 127.854 26.6701V29.2806C127.854 29.5478 127.638 29.7645 127.371 29.7645H115.195C114.928 29.7645 114.711 29.5478 114.711 29.2806V13.8774C114.711 13.6102 114.928 13.3936 115.195 13.3936H127.067C127.334 13.3936 127.55 13.6102 127.55 13.8774V16.4878C127.55 16.7551 127.334 16.9717 127.067 16.9717H119.779C119.511 16.9717 119.295 17.1885 119.295 17.4556V19.2475C119.295 19.5148 119.511 19.7314 119.779 19.7314H126.084C126.352 19.7314 126.568 19.9482 126.568 20.2153V22.7088C126.568 22.9761 126.352 23.1927 126.084 23.1927H119.779C119.511 23.1927 119.295 23.4095 119.295 23.6766V25.7024C119.295 25.9696 119.511 26.1862 119.779 26.1862H127.371Z" fill="white"></path> <path d="M138.21 13.3936C139.692 13.3936 140.978 13.643 142.069 14.1419C143.161 14.6253 144.003 15.3269 144.595 16.2467C145.188 17.1511 145.484 18.2191 145.484 19.4507C145.484 20.6825 145.188 21.7506 144.595 22.6548C144.003 23.5591 143.161 24.2607 142.069 24.7596C140.978 25.243 139.692 25.4846 138.21 25.4846H135.841C135.574 25.4846 135.357 25.7014 135.357 25.9685V29.2806C135.357 29.5478 135.141 29.7645 134.873 29.7645H131.21C130.943 29.7645 130.727 29.5478 130.727 29.2806V13.8774C130.727 13.6102 130.943 13.3936 131.21 13.3936H138.21ZM137.93 21.8362C138.881 21.8362 139.598 21.6337 140.081 21.2282C140.565 20.8072 140.806 20.2148 140.806 19.4507C140.806 18.6869 140.565 18.0943 140.081 17.6733C139.598 17.2524 138.881 17.0419 137.93 17.0419H135.841C135.574 17.0419 135.357 17.2587 135.357 17.5257V21.3524C135.357 21.6196 135.574 21.8362 135.841 21.8362H137.93Z" fill="white"></path> <path d="M160.722 20.5448C160.401 20.8357 160.451 21.4617 160.825 21.6812C161.277 21.947 161.649 22.2716 161.941 22.6548C162.456 23.3096 162.712 24.1204 162.712 25.087C162.712 26.537 162.145 27.683 161.006 28.5249C159.883 29.3514 158.285 29.7645 156.211 29.7645H148.299C148.032 29.7645 147.815 29.5478 147.815 29.2806V13.8774C147.815 13.6102 148.032 13.3936 148.299 13.3936H155.767C157.732 13.3936 159.252 13.7677 160.328 14.5161C161.419 15.2489 161.964 16.2935 161.964 17.6499C161.964 18.4451 161.77 19.1467 161.38 19.7548C161.2 20.0469 160.981 20.3103 160.722 20.5448ZM152.376 19.458C152.376 19.7253 152.593 19.9419 152.86 19.9419H155.323C156.632 19.9419 157.287 19.404 157.287 18.3282C157.287 17.2524 156.632 16.7145 155.323 16.7145H152.86C152.593 16.7145 152.376 16.9312 152.376 17.1983V19.458ZM156.024 26.4435C157.365 26.4435 158.036 25.8745 158.036 24.7362C158.036 23.6293 157.365 23.0757 156.024 23.0757H152.86C152.593 23.0757 152.376 23.2925 152.376 23.5596V25.9596C152.376 26.2269 152.593 26.4435 152.86 26.4435H156.024Z" fill="white"></path> <path d="M165.453 13.8774C165.453 13.6102 165.669 13.3936 165.937 13.3936H169.529C169.797 13.3936 170.013 13.6102 170.013 13.8774V21.4762C170.013 21.9488 170.621 22.1412 170.893 21.7546L176.627 13.5991C176.718 13.4702 176.866 13.3936 177.024 13.3936H180.639C180.906 13.3936 181.122 13.6102 181.122 13.8774V29.2806C181.122 29.5478 180.906 29.7645 180.639 29.7645H177.045C176.779 29.7645 176.561 29.5478 176.561 29.2806V21.7064C176.561 21.2338 175.953 21.0416 175.682 21.4283L169.971 29.5588C169.881 29.6877 169.732 29.7645 169.576 29.7645H165.937C165.669 29.7645 165.453 29.5478 165.453 29.2806V13.8774Z" fill="white"></path> <path d="M192.847 30.0921C191.132 30.0921 189.589 29.7336 188.216 29.0163C186.86 28.2836 185.792 27.2702 185.011 25.976C184.232 24.682 183.842 23.2163 183.842 21.5792C183.842 19.9421 184.232 18.4767 185.011 17.1825C185.792 15.8884 186.86 14.8828 188.216 14.1656C189.589 13.4328 191.132 13.0664 192.847 13.0664C194.343 13.0664 195.692 13.3315 196.892 13.8616C197.95 14.3284 198.85 14.9767 199.593 15.8063C199.763 15.9967 199.739 16.287 199.55 16.4584L197.314 18.4807C197.109 18.6655 196.793 18.641 196.603 18.443C195.609 17.4155 194.435 16.9018 193.08 16.9018C192.192 16.9018 191.397 17.0968 190.695 17.4865C190.01 17.8763 189.471 18.4299 189.08 19.147C188.706 19.8486 188.519 20.6594 188.519 21.5792C188.519 22.4992 188.706 23.3178 189.08 24.0349C189.471 24.7365 190.01 25.2823 190.695 25.672C191.397 26.0618 192.192 26.2567 193.08 26.2567C194.435 26.2567 195.609 25.7431 196.603 24.7157C196.793 24.5176 197.109 24.4931 197.314 24.678L199.55 26.7002C199.739 26.8717 199.763 27.162 199.593 27.3523C198.85 28.182 197.95 28.8302 196.892 29.297C195.692 29.8271 194.343 30.0921 192.847 30.0921Z" fill="white"></path> </svg> 