<?xml version="1.0" encoding="UTF-8"?> <svg xmlns="http://www.w3.org/2000/svg" width="113" height="20" viewBox="0 0 113 20" fill="none"> <g opacity="0.5"> <circle cx="10" cy="10" r="9" stroke="white" stroke-width="2"></circle> <rect x="4.34766" y="8.69531" width="2.6087" height="2.6087" rx="1" fill="white"></rect> <rect x="8.69531" y="8.69531" width="2.6087" height="2.6087" rx="1" fill="white"></rect> <rect x="13.0439" y="8.69531" width="2.6087" height="2.6087" rx="1" fill="white"></rect> <path d="M29.526 15V5.2H37.968V15H36.596V6.054L36.932 6.418H30.562L30.912 6.054V15H29.526ZM43.978 15.084C43.2314 15.084 42.5687 14.9207 41.99 14.594C41.4114 14.2673 40.954 13.8193 40.618 13.25C40.282 12.6713 40.114 12.018 40.114 11.29C40.114 10.5527 40.282 9.89933 40.618 9.33C40.954 8.76067 41.4114 8.31733 41.99 8C42.5687 7.67333 43.2314 7.51 43.978 7.51C44.7154 7.51 45.3734 7.67333 45.952 8C46.54 8.31733 46.9974 8.76067 47.324 9.33C47.66 9.89 47.828 10.5433 47.828 11.29C47.828 12.0273 47.66 12.6807 47.324 13.25C46.9974 13.8193 46.54 14.2673 45.952 14.594C45.3734 14.9207 44.7154 15.084 43.978 15.084ZM43.978 13.908C44.454 13.908 44.8787 13.8007 45.252 13.586C45.6347 13.3713 45.9334 13.068 46.148 12.676C46.3627 12.2747 46.47 11.8127 46.47 11.29C46.47 10.758 46.3627 10.3007 46.148 9.918C45.9334 9.526 45.6347 9.22267 45.252 9.008C44.8787 8.79333 44.454 8.686 43.978 8.686C43.502 8.686 43.0774 8.79333 42.704 9.008C42.3307 9.22267 42.032 9.526 41.808 9.918C41.584 10.3007 41.472 10.758 41.472 11.29C41.472 11.8127 41.584 12.2747 41.808 12.676C42.032 13.068 42.3307 13.3713 42.704 13.586C43.0774 13.8007 43.502 13.908 43.978 13.908ZM54.7821 14.37V8.756H51.5621L51.4921 10.184C51.4734 10.6507 51.4408 11.1033 51.3941 11.542C51.3568 11.9713 51.2914 12.368 51.1981 12.732C51.1141 13.096 50.9881 13.3947 50.8201 13.628C50.6521 13.8613 50.4281 14.006 50.1481 14.062L48.8181 13.824C49.1074 13.8333 49.3408 13.74 49.5181 13.544C49.6954 13.3387 49.8308 13.0587 49.9241 12.704C50.0268 12.3493 50.1014 11.948 50.1481 11.5C50.1948 11.0427 50.2321 10.5713 50.2601 10.086L50.3721 7.58H56.1261V14.37H54.7821ZM48.5241 16.722V13.824H57.2601V16.722H56.0001V15H49.7981V16.722H48.5241ZM62.945 15.084C62.329 15.084 61.7643 14.944 61.251 14.664C60.747 14.3747 60.341 13.95 60.033 13.39C59.7343 12.83 59.585 12.13 59.585 11.29C59.585 10.45 59.7297 9.75 60.019 9.19C60.3177 8.63 60.719 8.21 61.223 7.93C61.7363 7.65 62.3103 7.51 62.945 7.51C63.673 7.51 64.317 7.66867 64.877 7.986C65.437 8.30333 65.8803 8.74667 66.207 9.316C66.5337 9.876 66.697 10.534 66.697 11.29C66.697 12.046 66.5337 12.7087 66.207 13.278C65.8803 13.8473 65.437 14.2907 64.877 14.608C64.317 14.9253 63.673 15.084 62.945 15.084ZM59.011 17.716V7.58H60.299V9.582L60.215 11.304L60.355 13.026V17.716H59.011ZM62.833 13.908C63.309 13.908 63.7337 13.8007 64.107 13.586C64.4897 13.3713 64.7883 13.068 65.003 12.676C65.227 12.2747 65.339 11.8127 65.339 11.29C65.339 10.758 65.227 10.3007 65.003 9.918C64.7883 9.526 64.4897 9.22267 64.107 9.008C63.7337 8.79333 63.309 8.686 62.833 8.686C62.3663 8.686 61.9417 8.79333 61.559 9.008C61.1857 9.22267 60.887 9.526 60.663 9.918C60.4483 10.3007 60.341 10.758 60.341 11.29C60.341 11.8127 60.4483 12.2747 60.663 12.676C60.887 13.068 61.1857 13.3713 61.559 13.586C61.9417 13.8007 62.3663 13.908 62.833 13.908ZM71.8277 15.084C71.081 15.084 70.4183 14.9207 69.8397 14.594C69.261 14.2673 68.8037 13.8193 68.4677 13.25C68.1317 12.6713 67.9637 12.018 67.9637 11.29C67.9637 10.5527 68.1317 9.89933 68.4677 9.33C68.8037 8.76067 69.261 8.31733 69.8397 8C70.4183 7.67333 71.081 7.51 71.8277 7.51C72.565 7.51 73.223 7.67333 73.8017 8C74.3897 8.31733 74.847 8.76067 75.1737 9.33C75.5097 9.89 75.6777 10.5433 75.6777 11.29C75.6777 12.0273 75.5097 12.6807 75.1737 13.25C74.847 13.8193 74.3897 14.2673 73.8017 14.594C73.223 14.9207 72.565 15.084 71.8277 15.084ZM71.8277 13.908C72.3037 13.908 72.7283 13.8007 73.1017 13.586C73.4843 13.3713 73.783 13.068 73.9977 12.676C74.2123 12.2747 74.3197 11.8127 74.3197 11.29C74.3197 10.758 74.2123 10.3007 73.9977 9.918C73.783 9.526 73.4843 9.22267 73.1017 9.008C72.7283 8.79333 72.3037 8.686 71.8277 8.686C71.3517 8.686 70.927 8.79333 70.5537 9.008C70.1803 9.22267 69.8817 9.526 69.6577 9.918C69.4337 10.3007 69.3217 10.758 69.3217 11.29C69.3217 11.8127 69.4337 12.2747 69.6577 12.676C69.8817 13.068 70.1803 13.3713 70.5537 13.586C70.927 13.8007 71.3517 13.908 71.8277 13.908ZM81.0484 15.112C80.4324 15.112 79.8864 15.014 79.4104 14.818C78.9437 14.622 78.5424 14.3327 78.2064 13.95C77.8704 13.558 77.6137 13.068 77.4364 12.48C77.2684 11.8827 77.1844 11.1827 77.1844 10.38C77.1844 9.74533 77.2404 9.176 77.3524 8.672C77.4644 8.168 77.6231 7.72 77.8284 7.328C78.0431 6.936 78.3044 6.59533 78.6124 6.306C78.9297 6.01667 79.2844 5.77867 79.6764 5.592C80.0777 5.396 80.5164 5.24667 80.9924 5.144L84.3804 4.388L84.5764 5.634L81.4544 6.306C81.2677 6.34333 81.0437 6.39933 80.7824 6.474C80.5211 6.54867 80.2551 6.66533 79.9844 6.824C79.7137 6.97333 79.4617 7.18333 79.2284 7.454C78.9951 7.72467 78.8084 8.07933 78.6684 8.518C78.5284 8.94733 78.4584 9.47933 78.4584 10.114C78.4584 10.2913 78.4631 10.4267 78.4724 10.52C78.4817 10.6133 78.4911 10.7067 78.5004 10.8C78.5191 10.8933 78.5331 11.0333 78.5424 11.22L77.9824 10.646C78.1317 10.1327 78.3697 9.68467 78.6964 9.302C79.0231 8.91933 79.4151 8.62533 79.8724 8.42C80.3391 8.20533 80.8477 8.098 81.3984 8.098C82.0891 8.098 82.7004 8.24733 83.2324 8.546C83.7737 8.84467 84.1984 9.25533 84.5064 9.778C84.8144 10.3007 84.9684 10.898 84.9684 11.57C84.9684 12.2513 84.8051 12.8627 84.4784 13.404C84.1611 13.936 83.7084 14.356 83.1204 14.664C82.5324 14.9627 81.8417 15.112 81.0484 15.112ZM81.1744 13.992C81.6504 13.992 82.0704 13.8893 82.4344 13.684C82.7984 13.4693 83.0831 13.1847 83.2884 12.83C83.4937 12.466 83.5964 12.06 83.5964 11.612C83.5964 11.164 83.4937 10.7673 83.2884 10.422C83.0831 10.0767 82.7984 9.806 82.4344 9.61C82.0704 9.40467 81.6411 9.302 81.1464 9.302C80.6797 9.302 80.2597 9.4 79.8864 9.596C79.5131 9.78267 79.2237 10.0487 79.0184 10.394C78.8131 10.73 78.7104 11.122 78.7104 11.57C78.7104 12.018 78.8131 12.4287 79.0184 12.802C79.2331 13.166 79.5224 13.4553 79.8864 13.67C80.2597 13.8847 80.6891 13.992 81.1744 13.992ZM86.8879 15V7.58H88.2319V10.73H92.4599V7.58H93.8039V15H92.4599V11.892H88.2319V15H86.8879ZM99.7212 15.084C98.9279 15.084 98.2279 14.9207 97.6212 14.594C97.0239 14.2673 96.5572 13.8193 96.2212 13.25C95.8946 12.6807 95.7312 12.0273 95.7312 11.29C95.7312 10.5527 95.8899 9.89933 96.2072 9.33C96.5339 8.76067 96.9772 8.31733 97.5372 8C98.1066 7.67333 98.7459 7.51 99.4552 7.51C100.174 7.51 100.809 7.66867 101.359 7.986C101.91 8.30333 102.339 8.75133 102.647 9.33C102.965 9.89933 103.123 10.5667 103.123 11.332C103.123 11.388 103.119 11.4533 103.109 11.528C103.109 11.6027 103.105 11.6727 103.095 11.738H96.7812V10.772H102.395L101.849 11.108C101.859 10.632 101.761 10.2073 101.555 9.834C101.35 9.46067 101.065 9.17133 100.701 8.966C100.347 8.75133 99.9312 8.644 99.4552 8.644C98.9886 8.644 98.5732 8.75133 98.2092 8.966C97.8452 9.17133 97.5606 9.46533 97.3552 9.848C97.1499 10.2213 97.0472 10.6507 97.0472 11.136V11.36C97.0472 11.8547 97.1592 12.298 97.3832 12.69C97.6166 13.0727 97.9386 13.3713 98.3492 13.586C98.7599 13.8007 99.2312 13.908 99.7632 13.908C100.202 13.908 100.599 13.8333 100.953 13.684C101.317 13.5347 101.635 13.3107 101.905 13.012L102.647 13.88C102.311 14.272 101.891 14.5707 101.387 14.776C100.893 14.9813 100.337 15.084 99.7212 15.084ZM108.512 15.084C107.719 15.084 107.019 14.9207 106.412 14.594C105.815 14.2673 105.348 13.8193 105.012 13.25C104.686 12.6807 104.522 12.0273 104.522 11.29C104.522 10.5527 104.681 9.89933 104.998 9.33C105.325 8.76067 105.768 8.31733 106.328 8C106.898 7.67333 107.537 7.51 108.246 7.51C108.965 7.51 109.6 7.66867 110.15 7.986C110.701 8.30333 111.13 8.75133 111.438 9.33C111.756 9.89933 111.914 10.5667 111.914 11.332C111.914 11.388 111.91 11.4533 111.9 11.528C111.9 11.6027 111.896 11.6727 111.886 11.738H105.572V10.772H111.186L110.64 11.108C110.65 10.632 110.552 10.2073 110.346 9.834C110.141 9.46067 109.856 9.17133 109.492 8.966C109.138 8.75133 108.722 8.644 108.246 8.644C107.78 8.644 107.364 8.75133 107 8.966C106.636 9.17133 106.352 9.46533 106.146 9.848C105.941 10.2213 105.838 10.6507 105.838 11.136V11.36C105.838 11.8547 105.95 12.298 106.174 12.69C106.408 13.0727 106.73 13.3713 107.14 13.586C107.551 13.8007 108.022 13.908 108.554 13.908C108.993 13.908 109.39 13.8333 109.744 13.684C110.108 13.5347 110.426 13.3107 110.696 13.012L111.438 13.88C111.102 14.272 110.682 14.5707 110.178 14.776C109.684 14.9813 109.128 15.084 108.512 15.084Z" fill="white"></path> </g> </svg> 