<?xml version="1.0" encoding="UTF-8"?> <svg xmlns="http://www.w3.org/2000/svg" width="675" height="128" viewBox="0 0 675 128" fill="none"> <path fill-rule="evenodd" clip-rule="evenodd" d="M127.183 55.1598C127.183 55.1598 130.353 19.3898 130.653 15.8798C131.143 10.2498 126.653 0.00976562 115.653 0.00976562H25.3526C14.4126 0.00976562 9.10263 7.42978 8.42263 14.5198C8.01263 18.7198 0.552628 105.21 0.072628 110.2C-0.707372 118.2 4.83263 127.29 14.8926 127.29H104.683C116.603 127.29 121.233 120.98 122.243 111.29C122.853 105.47 125.803 70.2898 125.803 70.2898H71.5326L69.1926 97.4898H55.4526L61.3726 29.8498H75.1026L72.9226 55.1398L127.183 55.1598Z" fill="#B6BBBE"></path> <path fill-rule="evenodd" clip-rule="evenodd" d="M210.943 10.9398C209.003 16.5098 193.213 65.9398 193.213 65.9398L200.213 0.00976562H145.993L134.603 127.3H175.503C185.783 127.3 189.283 121.47 190.993 116.81C193.043 111.23 208.093 69.6398 208.093 69.6398L202.603 127.3H256.893L268.073 0.0197754H225.473C216.023 0.0197754 212.313 6.97976 210.943 10.9398Z" fill="#B6BBBE"></path> <path fill-rule="evenodd" clip-rule="evenodd" d="M485.853 0.0200195L480.773 58.07H467.013L472.093 0.0200195H417.823C417.823 0.0200195 412.623 61.47 412.063 67.4C411.413 74.49 415.423 84.54 427.443 84.54H478.443L477.313 97.45H409.443L406.823 127.3H514.823C522.133 127.3 529.203 122.52 530.163 112.3C530.783 105.74 540.163 0 540.163 0L485.853 0.0200195Z" fill="#B6BBBE"></path> <path fill-rule="evenodd" clip-rule="evenodd" d="M602.673 61.4503L605.433 29.8503H619.023L616.263 61.4203L602.673 61.4503ZM627.473 0.0302734H553.773L542.603 127.3H596.873L600.313 87.9203H653.033C662.363 87.9203 668.553 83.1603 669.553 72.2403C669.943 68.0203 674.233 19.7703 674.553 15.5003C675.203 6.10028 667.713 0.0302734 658.423 0.0302734H627.473Z" fill="#B6BBBE"></path> <path fill-rule="evenodd" clip-rule="evenodd" d="M341.153 100.85H327.303L330.063 69.28H343.913L341.153 100.85ZM332.383 42.85L333.513 29.85H401.513L404.123 0H281.853L270.713 127.29H379.023C385.903 127.29 393.363 123.21 394.333 112.57C395.063 104.57 398.403 66.74 399.013 59.88C399.823 50.7 394.013 42.78 382.573 42.78L332.383 42.85Z" fill="#B6BBBE"></path> </svg> 