<?xml version="1.0" encoding="UTF-8"?> <svg xmlns="http://www.w3.org/2000/svg" width="1472" height="1132" viewBox="0 0 1472 1132" fill="none"> <path d="M164.875 666.708H175.511V704.185L198.32 666.708H209.648V723H199.011V686.253L176.241 723H164.875V666.708Z" fill="#B6BBBE"></path> <path d="M291.272 723V666.708H302.638V688.864H324.909V666.708H336.275V723H324.909V698.387H302.638V723H291.272Z" fill="#B6BBBE"></path> <path d="M453.418 666.708V690.669C455.312 690.515 456.746 689.811 457.718 688.557C458.691 687.302 460.035 684.435 461.75 679.955C464.003 674.093 466.307 670.356 468.662 668.743C470.991 667.156 474.87 666.362 480.297 666.362C480.553 666.362 481.103 666.35 481.948 666.324V674.733L480.297 674.695C477.993 674.695 476.303 674.989 475.228 675.578C474.153 676.141 473.283 677.011 472.617 678.189C471.951 679.367 470.966 681.786 469.66 685.446C468.969 687.392 468.214 689.017 467.395 690.323C466.601 691.628 465.18 692.857 463.133 694.009C465.667 694.752 467.753 696.211 469.391 698.387C471.055 700.537 472.873 703.596 474.844 707.564L482.524 723H469.161L462.403 708.447C462.326 708.242 462.109 707.845 461.75 707.257C461.545 706.873 461.085 705.99 460.368 704.607C458.934 701.919 457.757 700.204 456.835 699.462C455.914 698.719 454.774 698.348 453.418 698.348V723H442.321V698.348C441.015 698.348 439.889 698.707 438.941 699.423C437.994 700.14 436.817 701.868 435.409 704.607C434.615 706.143 434.142 707.026 433.988 707.257C433.758 707.641 433.54 708.037 433.335 708.447L426.577 723H413.215L420.894 707.564C422.789 703.75 424.568 700.729 426.232 698.502C427.921 696.249 430.059 694.752 432.644 694.009C430.596 692.857 429.163 691.641 428.344 690.361C427.55 689.056 426.795 687.417 426.078 685.446C424.798 681.862 423.825 679.469 423.16 678.266C422.52 677.063 421.649 676.167 420.549 675.578C419.473 674.989 417.707 674.695 415.25 674.695C414.942 674.695 414.456 674.708 413.791 674.733V666.324C414.635 666.35 415.186 666.362 415.442 666.362C420.945 666.362 424.862 667.169 427.192 668.781C429.495 670.42 431.761 674.144 433.988 679.955C435.729 684.461 437.073 687.341 438.02 688.595C438.993 689.824 440.426 690.515 442.321 690.669V666.708H453.418Z" fill="#B6BBBE"></path> <path d="M559.31 666.708H569.946V704.185L592.755 666.708H604.082V723H593.446V686.253L570.676 723H559.31V666.708Z" fill="#B6BBBE"></path> <path d="M685.707 723V666.708H697.073V688.864H719.344V666.708H730.71V723H719.344V698.387H697.073V723H685.707Z" fill="#B6BBBE"></path> <path d="M812.641 666.708H823.278V704.185L846.086 666.708H857.414V723H846.777V686.253L824.007 723H812.641V666.708Z" fill="#B6BBBE"></path> <path d="M939 723V666.708H957.239C964.151 666.708 968.656 666.989 970.755 667.553C973.981 668.397 976.681 670.241 978.857 673.082C981.033 675.898 982.121 679.546 982.121 684.026C982.121 687.481 981.494 690.387 980.24 692.742C978.985 695.097 977.385 696.953 975.44 698.31C973.52 699.641 971.562 700.524 969.565 700.959C966.851 701.497 962.922 701.766 957.777 701.766H950.366V723H939ZM950.366 676.231V692.204H956.586C961.066 692.204 964.061 691.91 965.571 691.321C967.082 690.733 968.259 689.811 969.104 688.557C969.974 687.302 970.41 685.843 970.41 684.179C970.41 682.131 969.808 680.442 968.605 679.111C967.402 677.779 965.879 676.947 964.036 676.615C962.679 676.359 959.953 676.231 955.857 676.231H950.366Z" fill="#B6BBBE"></path> <path d="M1061.6 666.708H1072.23V704.185L1095.04 666.708H1106.37V723H1095.73V686.253L1072.96 723H1061.6V666.708Z" fill="#B6BBBE"></path> <path d="M1187.99 723V666.708H1199.36V688.864H1221.63V666.708H1233V723H1221.63V698.387H1199.36V723H1187.99Z" fill="#B6BBBE"></path> <path d="M1315.35 666.708H1353.48V676.154H1326.71V723H1315.35V666.708Z" fill="#B6BBBE"></path> <path fill-rule="evenodd" clip-rule="evenodd" d="M401.895 3.8488C332.137 14.8554 282.885 29.7554 225.691 57.1699C179.542 79.2943 157.471 94.9049 115.834 134.877C58.4053 190.003 29.5118 238.831 10.6306 312.67C-0.883589 357.709 -3.62155 453.883 5.2721 501.16C10.7912 530.527 11.2795 528.531 15.1299 460.99C19.9877 375.848 31.0507 337.977 66.0999 286.485C212.446 71.5198 612.914 77.6689 956.385 300.155L1013.87 337.39H1166.27C1250.09 337.39 1318.67 335.301 1318.66 332.755C1318.66 324.801 1219.48 247.866 1157.98 208.104C1008.39 111.387 838.036 42.3502 675.003 12.3587C612.932 0.944199 452.074 -4.06778 401.895 3.8488ZM336.642 183.501C253.59 196.183 183.12 229.332 143.646 274.286C132.855 286.578 115.469 314.845 105.012 337.099C87.9787 373.351 85.8711 384.314 84.7525 442.45C83.5288 505.931 83.6153 506.363 88.6091 462.306C103.405 331.84 196.143 263.162 357.365 263.273C432.866 263.328 500.615 278.395 582.345 313.312L640.689 338.236L738.642 336.741C792.517 335.919 836.596 333.268 836.596 330.845C836.596 325.339 767.647 284.353 708.556 254.738C591.678 196.152 441.79 167.44 336.642 183.501ZM172.199 612.4L243.274 616.108V547.819C243.274 510.257 245.363 479.598 247.91 479.678C250.456 479.764 272.718 510.355 297.378 547.658L342.211 615.49H404.015L505.943 476.65L512.123 612.4L583.198 616.108V405.37L481.221 405.506L429.262 479.598C400.684 520.349 376.846 553.69 376.277 553.69C375.715 553.69 351.902 520.318 323.367 479.53L271.476 405.37H168.813L172.199 612.4ZM660.454 610.793L734.619 612.4L738.309 548.925L819.897 546.224C913.845 543.116 941.398 534.643 957.251 503.984C970.458 478.454 964.883 447.023 944.272 430.813C919.902 411.648 874.933 405.37 761.98 405.37H657.067L660.454 610.793ZM1025.1 612.295L1099.26 612.4L1102.35 575.629C1105.15 542.417 1107.31 537.764 1124.7 527.647L1143.96 516.443L1264.5 615.49H1310.88C1366.98 615.49 1368.36 618.079 1272.69 544.308C1233.74 514.274 1203.22 487.508 1204.88 484.832C1206.53 482.156 1236.28 463.876 1271 444.211L1334.12 408.46L1240.29 404.888L1177.43 442.209C1142.86 462.732 1111.82 479.53 1108.46 479.53C1105.11 479.53 1102.35 462.844 1102.35 442.45V405.37H1021.71L1025.1 612.295ZM874.087 455.026C880.867 458.66 886.04 467.917 886.04 476.44C886.04 498.749 869 504.25 799.921 504.25H737.709V448.63H799.921C834.136 448.63 867.511 451.509 874.087 455.026ZM1461.44 662.736C1460.73 734.38 1447.37 786.91 1418.15 832.964C1343.89 949.994 1190.55 1013.61 1009.65 1002.44C847.48 992.432 670.274 931.479 524.484 835.565L462.68 794.907L309.201 794.808C214.783 794.747 156.514 796.971 157.781 800.587C161.099 810.067 241.507 872.343 306.154 915.51C454.707 1014.71 619.273 1083.39 789.989 1117.44C881.176 1135.64 1036.73 1136.96 1114.62 1120.2C1254.93 1090.03 1354.36 1027.7 1417.13 930.583C1457.29 868.449 1468.25 828.502 1471.36 732.91C1472.85 687.023 1471.37 638.356 1468.07 624.76C1462.88 603.389 1461.98 608.543 1461.44 662.736ZM1385.67 676.097C1372.75 799.363 1276.15 868.937 1118.05 868.826C1042.72 868.771 974.822 853.71 893.716 819.065L836.015 794.413L629.552 797.8L675.905 826.821C803.333 906.611 936.651 949.766 1059.09 950.86C1139.72 951.576 1187.85 943.011 1241.41 918.415C1345.39 870.662 1395.95 791.199 1391.57 682.462L1389.74 637.12L1385.67 676.097Z" fill="#B6BBBE"></path> </svg> 