<?xml version="1.0" encoding="UTF-8"?> <svg xmlns="http://www.w3.org/2000/svg" width="346" height="110" viewBox="0 0 346 110" fill="none"> <g clip-path="url(#clip0_260_244)"> <path fill-rule="evenodd" clip-rule="evenodd" d="M70.7305 58.6802H84.5905C86.5591 58.5982 88.5312 58.6617 90.4905 58.8702C94.8505 59.4702 99.2705 61.4202 99.2705 66.7902C99.2705 71.2902 96.6605 73.3902 93.5205 74.0802V74.3502C98.0705 75.1702 100.68 77.6502 100.68 82.5302C100.68 90.5302 93.1705 92.7402 87.0705 93.0402H70.7305V58.6802ZM80.4705 86.5402H84.4205C87.7705 86.5402 91.0605 85.5402 91.0605 82.2502C91.0605 79.1802 88.5705 78.1302 83.9405 78.1302H80.4405V86.5402H80.4705ZM80.6705 72.0302H83.6105C87.6705 72.0302 90.0405 71.2102 90.0405 68.5602C90.0405 66.4502 88.5705 65.2602 84.6105 65.2602H80.6105L80.6705 72.0302Z" fill="#B6BBBE"></path> <path fill-rule="evenodd" clip-rule="evenodd" d="M22.64 93.7604C7.98 93.7604 0 83.0304 0 69.5004C0 55.9704 9.38 44.7004 24.8 44.7004C28.4979 44.5382 32.1791 45.2868 35.52 46.8804V55.6704C32.4231 53.7116 28.8241 52.6937 25.16 52.7404C14.7 52.7404 10.62 60.5704 10.62 68.8204C10.62 78.0104 15.72 85.3204 24.22 85.3204C27.9006 85.3262 31.5144 84.3381 34.68 82.4604L37.22 89.4104C32.9333 92.3165 27.8585 93.8383 22.68 93.7704L22.64 93.7604ZM188.2 93.7604C177.34 93.7604 171.78 85.6404 171.78 75.9704C171.78 65.1404 179.15 57.9704 189.01 57.9704C193.36 57.9704 195.65 58.8504 197.45 59.9704V67.7404C195.474 66.1405 192.992 65.2968 190.45 65.3604C184.89 65.3604 181.45 69.4804 181.45 75.5104C181.45 80.8904 184.06 86.1304 190.28 86.1304C192.597 85.9759 194.849 85.2917 196.86 84.1304L199.13 90.4704C195.843 92.5114 192.077 93.6497 188.21 93.7704V93.7704L188.2 93.7604ZM218.2 66.4404V93.0704H208.55V66.4404H199.16V58.6704H228.79L226.35 66.4404H218.2ZM264.61 62.7104C264.61 74.7104 264.14 80.9604 262 83.8204C260.902 85.2527 259.294 86.2057 257.51 86.4804L260.19 93.7704C263.181 93.6386 266.023 92.4271 268.19 90.3604C271.28 87.2904 272.29 83.4204 272.75 79.3604C273.182 75.6524 273.409 71.9234 273.43 68.1904V66.4804H280.94V93.0704H290.59V58.6704H264.59V62.6704L264.61 62.7104ZM45.77 78.5604H67.61V75.5604C67.61 64.9304 61.17 57.9804 51.92 57.9804C41.79 57.9804 36.1 66.3004 36.1 75.9804C36.1 85.0404 41.1 93.7604 53.15 93.7604C57.8862 93.7691 62.5221 92.3964 66.49 89.8104L64.35 83.6004C61.4141 85.2238 58.1148 86.077 54.76 86.0804C50.27 86.0804 45.98 83.2204 45.76 78.5904L45.77 78.5604ZM51.67 65.1804C55.75 65.1804 57.56 68.5604 57.77 71.8604H45.57C45.57 68.7204 47.79 65.1804 51.67 65.1804V65.1804ZM112.26 78.6004C112.46 83.2304 116.76 86.0904 121.26 86.0904C124.612 86.0879 127.908 85.2346 130.84 83.6104L132.99 89.8204C129.024 92.4107 124.387 93.7838 119.65 93.7704C107.58 93.7704 102.65 85.0504 102.65 75.9904C102.65 66.3204 108.33 57.9904 118.47 57.9904C127.71 57.9904 134.15 64.9904 134.15 75.5704V78.5704H112.32L112.26 78.6004ZM118.16 65.1804C114.27 65.1804 112.02 68.6804 112.02 71.7804H124.2C124 68.4804 122.2 65.1104 118.1 65.1104L118.16 65.1804V65.1804ZM247.32 90.0504L248.85 93.0504H256.36V70.7004C256.36 61.6404 251.62 58.0304 242.68 58.0304C238.06 58.0304 233.68 58.7104 229.01 61.7804L231.96 67.7804C234.549 66.2097 237.522 65.386 240.55 65.4004C243.89 65.4004 246.77 66.8304 246.77 70.4004V71.0804L241.09 71.2804C232.51 71.5604 226.74 75.2804 226.74 82.5904C226.74 89.4004 231.57 93.7704 238 93.7704C239.727 93.8108 241.444 93.4992 243.046 92.8545C244.648 92.2098 246.102 91.2455 247.32 90.0204V90.0504ZM242.45 77.6704L246.68 77.5604V84.5604C245.163 85.6659 243.315 86.2198 241.44 86.1304C238.16 86.1304 236.36 84.4004 236.36 81.8404C236.36 79.2804 238.29 77.8404 242.45 77.7104V77.6704ZM146.85 92.3204V106.83L137.19 109.83V58.6704H145.31L146.38 61.8004C148.86 59.8004 151.75 57.9904 155.5 57.9904C163.27 57.9904 169.37 63.9904 169.37 74.8904C169.37 85.1004 163.37 93.7604 153.37 93.7604C151.122 93.816 148.894 93.3217 146.88 92.3204H146.85ZM146.85 69.0204V85.3104C148.058 86.1735 149.506 86.6352 150.99 86.6304C157.56 86.6304 159.7 80.5704 159.7 74.7104C159.7 67.6604 157.48 65.1804 153.55 65.1804C151.01 65.1804 147.99 67.2904 146.85 69.0604V69.0204Z" fill="#B6BBBE"></path> <path fill-rule="evenodd" clip-rule="evenodd" d="M304.28 69.8702V57.2002L294.63 60.2002V93.1002H306.94C315.94 93.1002 324.3 90.6202 324.3 81.1802C324.3 73.1802 317.54 69.8702 309.22 69.8702H304.22H304.28ZM304.28 86.2902V76.6802H307.53C310.96 76.6802 314.71 77.2302 314.71 81.3102C314.71 85.3902 311.46 86.3102 307.71 86.3102L304.28 86.2902Z" fill="#B6BBBE"></path> <path fill-rule="evenodd" clip-rule="evenodd" d="M338.94 36.1899C339.571 35.9662 340.168 35.653 340.71 35.2599C341.666 32.7347 342.477 30.1572 343.14 27.5399C344.009 24.1896 344.611 20.7755 344.94 17.3299C345.21 14.5865 345.21 11.8233 344.94 9.07989C344.68 6.53989 344.03 3.94991 342.51 2.47991C340.99 1.00991 338.51 0.329917 336.06 0.109917C333.353 -0.0817236 330.635 -0.0181376 327.94 0.299888C328.536 0.573292 329.086 0.937655 329.57 1.37991C331.06 2.76991 331.75 5.12991 332.05 7.44991C332.288 9.29306 332.371 11.1528 332.3 13.0099C332.149 16.8136 331.582 20.5894 330.61 24.2699C329.876 27.1967 328.906 30.0593 327.71 32.8299C329.236 33.7971 330.838 34.6399 332.5 35.3499C334.67 36.2399 337.03 36.8099 338.94 36.1899Z" fill="#B6BBBE"></path> <path fill-rule="evenodd" clip-rule="evenodd" d="M303.74 29.1702C303.614 29.8291 303.584 30.5026 303.65 31.1702C305.318 33.2415 307.101 35.2179 308.99 37.0901C311.422 39.5403 314.047 41.7909 316.84 43.8202C319.044 45.4056 321.387 46.7879 323.84 47.9502C326.12 49.0102 328.65 49.7002 330.67 49.1402C332.69 48.5802 334.48 46.6602 335.92 44.5402C337.46 42.2605 338.773 39.8356 339.84 37.3001C339.293 37.7078 338.686 38.0283 338.04 38.2502C336.12 38.8802 333.76 38.3001 331.63 37.4301C329.939 36.7094 328.31 35.8499 326.76 34.8602C323.6 32.8115 320.672 30.424 318.03 27.7401C315.895 25.6286 313.939 23.3441 312.18 20.9102C310.597 21.7902 309.086 22.7933 307.66 23.9102C305.84 25.3702 304.17 27.1702 303.74 29.1702Z" fill="#B6BBBE"></path> <path fill-rule="evenodd" clip-rule="evenodd" d="M327.3 1.65039C326.812 1.23464 326.262 0.897278 325.67 0.650391C323.027 1.06765 320.412 1.6454 317.84 2.3804C314.557 3.27072 311.35 4.42103 308.25 5.8204C305.788 6.9616 303.443 8.34153 301.25 9.9404C299.2 11.4404 297.25 13.3304 296.77 15.4004C296.29 17.4704 297 20.0504 298.08 22.4004C299.257 24.8584 300.66 27.2019 302.27 29.4004C302.2 28.7097 302.23 28.0124 302.36 27.3304C302.79 25.3304 304.47 23.5304 306.29 22.1004C307.753 20.9717 309.309 19.9681 310.94 19.1004C314.248 17.3392 317.743 15.9539 321.36 14.9704C324.2 14.151 327.103 13.569 330.04 13.2304C330.107 11.3933 330.023 9.55384 329.79 7.73041C329.49 5.38041 328.77 2.97039 327.3 1.65039Z" fill="#B6BBBE"></path> </g> <defs> <clipPath id="clip0_260_244"> <rect width="345.17" height="109.83" fill="white"></rect> </clipPath> </defs> </svg> 