<?xml version="1.0" encoding="UTF-8"?> <svg xmlns="http://www.w3.org/2000/svg" width="1651" height="360" viewBox="0 0 1651 360" fill="none"> <g clip-path="url(#clip0_260_251)"> <path fill-rule="evenodd" clip-rule="evenodd" d="M0 179.46C55.92 120.24 109.6 58.77 166 0C174.6 9.91 182.35 20.66 191.07 30.51C171.8 54.85 151.63 78.51 132.44 102.89C111.58 127.43 91.76 152.89 70.87 177.36C70.4524 178.191 70.0851 179.045 69.77 179.92C61.48 178.92 53.1 179.17 44.77 179.4C36.77 179.33 28.85 178.99 20.89 179.18C19.11 178.94 16.83 180.96 18.73 182.48C30.73 196.26 41.11 211.31 53.61 224.63C56.52 229.03 59.52 233.54 64.12 236.33C66.56 239.33 68.88 242.38 71.53 245.18C76.38 250.75 81.06 256.49 85.65 262.29C88.06 265.21 90.39 268.19 92.82 271.11C95.71 274.57 98.46 278.18 101.63 281.4C105.421 286.627 109.479 291.653 113.79 296.46C117.95 301.3 121.56 306.58 125.74 311.4C129.92 316.22 133.9 321.19 137.8 326.24C139.99 328.82 142.16 331.41 144.27 334.06L143.15 335.3C95.15 283.83 48.39 231.14 0 180.06V179.46V179.46ZM306.72 47.18C307.34 46.09 308.03 45.04 308.72 44.01C349.91 89.27 391.48 134.2 432.72 179.42C378.72 240.02 322.92 299.52 268.05 359.5C258.72 350.38 251.78 338.98 242.66 329.6C264.82 299.16 290.35 271.27 313.36 241.49C330.29 222.3 345.36 201.55 362.24 182.33C377.24 180.71 392.43 180.86 407.48 181.63C411.39 184.57 415.57 180.1 414.7 176.58C409.44 171.58 406.41 163.92 400.08 160.15C395.96 156.64 392.86 152.15 389.37 148.09C386.11 143.42 381.73 139.65 378.29 135.09C374.397 129.497 370.12 124.181 365.49 119.18C360.68 112.98 355.87 106.77 350.62 100.93C346.87 96.37 343.46 91.53 339.42 87.22C336.11 83.68 333.99 79.16 330.21 76.01C326.98 71.11 322.93 66.84 319.26 62.28C315.01 57.3 310.86 52.24 306.72 47.18Z" fill="#8E9DA6"></path> <path fill-rule="evenodd" clip-rule="evenodd" d="M212.4 4.61948C213.76 3.53948 216.01 -0.790529 217.87 0.749471C216.14 13.5695 217.4 26.5495 216.87 39.4495C216.32 35.7695 216.26 31.9395 214.94 28.4495C212.11 29.2395 209.12 30.1695 206.99 32.2995C196.41 43.9895 185.57 55.5895 173.27 65.4695C171.41 69.7795 169.18 74.2395 164.27 75.5595C156.96 82.1895 152.04 91.2295 144.15 97.3495C142.62 99.3495 140.27 99.1395 138.07 98.6995C141.38 103.529 133.29 111.239 132.5 102.919C151.69 78.4995 171.86 54.9195 191.13 30.5395C198.33 21.9995 205.41 13.3495 212.4 4.61948Z" fill="#B6BBBE"></path> <path fill-rule="evenodd" clip-rule="evenodd" d="M216.86 39.45C217.4 26.55 216.14 13.57 217.86 0.75C225.49 10.4 233.42 19.81 241 29.5C244.86 34.23 248.6 39.07 252.77 43.5C256.217 47.9704 259.888 52.2626 263.77 56.36C263.785 57.0296 263.998 57.6799 264.382 58.2283C264.767 58.7767 265.306 59.1984 265.93 59.44C269.997 64.3934 273.997 69.3934 277.93 74.44C282.18 79.61 286.36 84.85 290.93 89.77C295.09 94.62 298.58 100.03 303.01 104.65C305.01 107.19 307.01 109.65 309.01 112.16C313.26 117.63 317.46 123.16 322.01 128.37C326.49 133.77 330.84 139.29 335.65 144.37C336.05 145.257 336.46 146.147 336.88 147.04C342.94 158.51 354.14 167.04 359.27 178.89C328.86 179.39 298.43 179.05 268.02 179.1C265.38 179.74 265.9 176.47 265.16 174.87C262.96 149.68 236.87 125.44 211.16 133.41C193.62 138.77 180.21 154.78 177.75 172.89C177.09 177.32 176.24 182.05 177.65 186.43C180.52 206.5 196.65 223.98 216.87 227.11L216.79 227.97C215.44 262.68 215.5 297.74 216.63 332.42C216.76 333.15 217.01 334.6 217.14 335.33C216.92 343.05 216.95 350.75 217.2 358.47C216.45 359.87 215.41 357.78 214.69 357.4C206.93 348.4 200 338.67 192.07 329.79C187.58 324.68 183.57 319.17 179.2 313.95C174.38 308.38 169.85 302.58 165.2 296.95C160.73 291.62 156.27 286.29 151.94 280.86C149.66 277.93 147.3 275.09 145 272.18C140.59 266.51 135.89 261.08 131.08 255.75C128.35 252.44 125.76 249.02 122.95 245.75C119.17 240.75 115.27 235.84 111.15 231.1C107.79 226.98 104.64 222.69 101.15 218.72C96.7704 212.9 92.0604 207.34 87.1504 201.93C83.3704 197.65 80.8604 192.15 75.9704 188.93C74.2004 186.01 72.2604 183.2 70.6504 180.2C103.04 179.95 135.45 180.31 167.84 180.03L167.97 179.1C167.61 153.43 190.46 131 215.97 131.04C218.33 105.04 216.46 75.63 216.88 48.32C216.86 45.44 216.93 42.45 216.86 39.45Z" fill="#8E9DA6"></path> <path fill-rule="evenodd" clip-rule="evenodd" d="M241.01 29.5008C253.86 24.1108 258.67 8.87078 269.86 1.30078C273.305 4.68388 276.566 8.24897 279.63 11.9808C278.9 14.8808 281.69 16.9108 283.2 19.0308C276.66 16.5308 277.78 25.4808 273.64 27.8408C266.56 32.9008 262.81 44.2108 252.82 43.5408C248.61 39.0708 244.86 34.2308 241.01 29.5008Z" fill="#B6BBBE"></path> <path fill-rule="evenodd" clip-rule="evenodd" d="M283.16 19.0207C281.65 16.9007 278.86 14.8707 279.59 11.9707C288.93 22.9707 298.96 33.3907 308.74 43.9707C308.03 44.9707 307.34 46.0507 306.74 47.1407C305.87 46.1407 305.02 45.0607 304.13 44.0407C299.33 38.5007 295.13 32.4607 290.24 27.0407C287.95 24.3007 285.64 21.5707 283.16 19.0207Z" fill="#8E9DA6"></path> <path fill-rule="evenodd" clip-rule="evenodd" d="M273.6 27.8305C277.74 25.4705 276.6 16.5205 283.16 19.0205C285.64 21.5705 287.95 24.2905 290.22 27.0205C292.04 33.0205 289.67 40.2605 283.36 42.5505C278.95 49.1305 274.51 57.9005 265.94 59.4505C266.078 59.1038 266.127 58.7282 266.084 58.3576C266.041 57.987 265.906 57.6331 265.692 57.3276C265.477 57.0221 265.19 56.7747 264.857 56.6076C264.523 56.4405 264.153 56.3591 263.78 56.3705C259.898 52.2731 256.227 47.9809 252.78 43.5105C262.77 44.2005 266.52 32.8905 273.6 27.8305Z" fill="#B6BBBE"></path> <path fill-rule="evenodd" clip-rule="evenodd" d="M290.22 27.0391C295.11 32.4991 299.31 38.5391 304.11 44.0391C308.05 52.0391 297.18 52.9791 295.11 59.3791C291.72 64.6091 284.53 66.3191 282.24 72.3791C281.88 74.4891 279.55 74.1291 277.96 74.4891C274.027 69.4224 270.027 64.4224 265.96 59.4891C274.53 57.9391 278.96 49.1691 283.38 42.5891C289.67 40.2991 292.04 33.0791 290.22 27.0391Z" fill="#B6BBBE"></path> <path fill-rule="evenodd" clip-rule="evenodd" d="M206.98 32.2992C209.11 30.1692 212.1 29.2392 214.93 28.4492C216.25 31.9692 216.31 35.7992 216.86 39.4492C216.93 42.4492 216.86 45.4492 216.86 48.4492C217.13 37.0292 209.5 49.7392 204.4 50.7192C173.91 81.5092 142.95 111.899 112.53 142.719C112.11 147.449 107.34 148.819 104.22 151.509C99.1496 157.919 94.3196 165.079 87.5896 169.839C82.6896 171.239 79.7196 175.369 76.7696 179.229C73.3896 180.419 71.4096 179.799 70.8496 177.389C91.7396 152.869 111.56 127.459 132.42 102.919C133.21 111.239 141.3 103.529 137.99 98.6992C140.19 99.1392 142.54 99.3492 144.07 97.3492C151.96 91.2292 156.88 82.1892 164.19 75.5592C169.19 74.2392 171.38 69.7792 173.19 65.4692C185.56 55.5592 196.4 43.9592 206.98 32.2992Z" fill="#B6BBBE"></path> <path fill-rule="evenodd" clip-rule="evenodd" d="M204.42 50.7098C209.52 49.7098 217.15 37.0198 216.88 48.4398C216.46 75.7498 218.33 105.18 215.97 131.16C215.97 122.49 216.06 113.81 215.97 105.16C216.023 99.1131 216.023 93.0631 215.97 87.0098C216.063 80.6898 216.063 74.3564 215.97 68.0098C215.2 63.8798 218.02 57.8398 213.5 55.2598C212.13 62.4498 203.84 63.7198 200.21 69.3698C169.09 100.25 138.39 131.62 106.97 162.16C102.83 168.36 94.9696 171.66 92.8096 179.16C87.4796 179.16 82.1596 179.29 76.8096 179.16C79.7596 175.3 82.7295 171.16 87.6295 169.77C94.3595 165.01 99.1896 157.85 104.26 151.44C107.38 148.75 112.15 147.38 112.57 142.65C142.97 111.89 173.93 81.4998 204.42 50.7098Z" fill="#B6BBBE"></path> <path fill-rule="evenodd" clip-rule="evenodd" d="M304.11 44.0801C305 45.0801 305.85 46.1401 306.72 47.1801C310.86 52.2401 315.01 57.3001 319.26 62.3001C308.26 67.7501 299.7 80.3001 290.92 89.8401C286.37 84.9201 282.19 79.6801 277.92 74.5101C279.51 74.1501 281.84 74.5101 282.2 72.4001C284.49 66.4001 291.68 64.6501 295.07 59.4001C297.18 53.0201 308.05 52.0501 304.11 44.0801Z" fill="#B6BBBE"></path> <path fill-rule="evenodd" clip-rule="evenodd" d="M213.46 55.3008C217.98 57.8808 215.16 63.9208 215.93 68.0508C179.63 105.441 141.64 141.301 105.86 179.191C101.514 179.231 97.1804 179.231 92.8604 179.191C95.0304 171.681 102.86 168.381 107.02 162.191C138.44 131.651 169.14 100.281 200.26 69.4008C203.8 63.7408 212.09 62.4708 213.46 55.3008Z" fill="#B6BBBE"></path> <path fill-rule="evenodd" clip-rule="evenodd" d="M263.78 56.3897C264.153 56.3783 264.523 56.4598 264.857 56.6268C265.19 56.7939 265.477 57.0413 265.692 57.3468C265.906 57.6523 266.041 58.0062 266.084 58.3768C266.127 58.7474 266.078 59.123 265.94 59.4698C265.316 59.2281 264.777 58.8064 264.392 58.258C264.008 57.7096 263.795 57.0594 263.78 56.3897Z" fill="#8E9DA6"></path> <path fill-rule="evenodd" clip-rule="evenodd" d="M319.26 62.3008C322.93 66.8608 326.98 71.1308 330.21 76.0308C332 80.6508 329.62 80.9308 327.01 77.4308C321.01 81.2508 316.53 86.8208 311.31 91.5208C309.75 97.4208 301.79 97.3108 303 104.721C298.57 100.101 295.08 94.7208 290.92 89.8408C299.7 80.3008 308.3 67.7508 319.26 62.3008Z" fill="#B6BBBE"></path> <path fill-rule="evenodd" clip-rule="evenodd" d="M105.86 179.189C141.69 141.289 179.68 105.439 215.98 68.0293C216.06 74.3493 216.06 80.6826 215.98 87.0293C204.98 94.0293 196.91 105.469 186.98 114.179C165.87 136.089 143.31 156.679 122.98 179.249C117.18 179.299 111.5 179.219 105.86 179.189Z" fill="#B6BBBE"></path> <path fill-rule="evenodd" clip-rule="evenodd" d="M330.21 76.0293C333.99 79.1793 336.11 83.6993 339.42 87.2393C335.98 89.4893 329.63 88.9393 328.37 94.7793C322.81 97.3593 322.48 108.989 315.23 106.649C310.7 105.189 314.43 115.829 309.03 112.229C307.03 109.739 304.96 107.229 303.03 104.719C301.82 97.3093 309.78 97.4193 311.34 91.5193C316.56 86.8193 321.08 81.2493 327.04 77.4293C329.62 80.9293 332 80.6493 330.21 76.0293Z" fill="#B6BBBE"></path> <path fill-rule="evenodd" clip-rule="evenodd" d="M186.91 114.14C196.86 105.43 204.91 93.9502 215.91 86.9902C215.99 93.0369 215.99 99.0869 215.91 105.14C209.38 103.54 207.85 110.87 203.24 113.54C183.11 131.63 165.59 152.28 145.66 170.94C142.95 172.87 142.39 176.18 141.75 179.2C135.443 179.254 129.13 179.254 122.81 179.2C143.24 156.64 165.8 136.05 186.91 114.14Z" fill="#B6BBBE"></path> <path fill-rule="evenodd" clip-rule="evenodd" d="M339.42 87.2402C343.42 91.5502 346.87 96.3902 350.62 100.95C349.81 105.03 344.95 101.3 342.27 102.52C335.56 108.4 332.73 117.35 324.72 121.94C321.18 123.16 325.39 128.29 322.04 128.44C317.48 123.22 313.28 117.7 309.04 112.23C314.44 115.83 310.71 105.23 315.24 106.65C322.49 108.99 322.82 97.3602 328.38 94.7802C329.63 88.9402 335.98 89.4902 339.42 87.2402Z" fill="#B6BBBE"></path> <path fill-rule="evenodd" clip-rule="evenodd" d="M350.62 100.949C355.87 106.789 360.68 112.999 365.49 119.199C362.06 121.579 359.49 114.199 355.35 116.429C354.35 122.369 348.04 123.729 344.86 128.139C341.34 133.279 334.78 137.339 335.68 144.479C330.87 139.359 326.52 133.839 322.04 128.479C325.39 128.329 321.18 123.199 324.72 121.979C332.72 117.389 335.56 108.439 342.27 102.559C344.95 101.299 349.86 105.029 350.62 100.949Z" fill="#B6BBBE"></path> <path fill-rule="evenodd" clip-rule="evenodd" d="M511 101.3C554.09 101.41 597.2 100.92 640.27 101.53C597.27 103.26 554.08 101.77 511.01 102.28L511 101.3Z" fill="#B6BBBE"></path> <path fill-rule="evenodd" clip-rule="evenodd" d="M640.27 101.501C641.834 101.292 643.413 101.208 644.99 101.251C644.99 109.911 644.99 118.571 644.99 127.251C611.92 127.831 578.46 126.251 545.61 127.941C545.73 134.851 542.83 145.941 546.01 151.251C565.32 151.391 584.65 151.091 604.01 151.321C604.1 159.691 604.01 168.071 604.11 176.451C585.17 178.321 566.06 176.751 547.05 177.221L545.05 178.221C544.91 187.221 544.89 196.221 545.11 205.171C578.74 205.351 612.38 205.171 646.01 205.251C646.01 214.251 646.19 223.251 645.96 232.171C600.96 232.321 556.01 232.171 511.04 232.221C511.04 188.888 511.04 145.554 511.04 102.221C554.11 101.711 597.28 103.221 640.3 101.471L640.27 101.501ZM677.02 124.241C708.35 124.241 739.67 124.241 771.02 124.241C781.65 123.521 795.92 126.651 798.41 138.901C799.04 151.601 802.88 169.301 789.14 176.541C795.31 182.611 802.54 190.971 800.06 201.251C804 216.581 792.06 232.781 776.06 232.251C743.06 232.161 710.06 232.361 677.11 232.181C676.89 196.181 677.11 160.181 677.04 124.241H677.02ZM706.02 146.291C705.867 152.911 705.867 159.531 706.02 166.151C725.4 165.791 747.14 167.441 765.02 165.271C769.02 166.271 770.51 161.581 769.02 158.271C767.76 155.341 771.64 146.831 765.96 147.271C747.85 144.981 725.67 146.861 705.96 146.331L706.02 146.291ZM707.02 209.231C723.02 210.951 745.9 210.871 762.02 209.281C773.41 210.911 774.44 187.561 763.02 188.201C744.34 188.311 725.67 188.201 707.02 188.281C704.7 192.281 705.67 205.101 707.02 209.231ZM828.02 124.231C860.02 124.231 892.04 124.231 924.08 124.231C934.17 123.841 947.23 127.391 949.46 138.881C950.76 150.581 949.77 162.481 950.09 174.271C949.37 184.271 940.3 192.671 930.09 192.271C905.77 192.321 881.44 192.091 857.09 192.341C856.46 205.681 858.03 219.131 856.26 232.411C846.88 232.101 837.49 232.411 828.12 232.191C827.86 196.191 828.12 160.191 827.99 124.251L828.02 124.231ZM857.12 147.231C857.53 154.111 855.7 164.091 858.07 169.101C877.94 169.221 897.85 169.441 917.73 168.921C918.85 168.161 921.11 167.841 921.04 166.151C922.83 164.211 922.8 153.261 921.04 151.151C921.133 150.738 921.12 150.308 921.002 149.901C920.884 149.495 920.666 149.124 920.366 148.825C920.067 148.525 919.696 148.307 919.29 148.189C918.883 148.071 918.453 148.058 918.04 148.151L917.99 147.201C897.69 147.148 877.387 147.148 857.08 147.201L857.12 147.231ZM975.51 142.771C976.22 126.401 994.86 122.771 1008.06 124.181C1032.39 124.181 1056.73 124.181 1081.06 124.181C1094.55 121.731 1113.85 126.681 1114.06 143.181C1114.02 166.201 1114.02 189.224 1114.06 212.251C1114.57 223.161 1104.78 232.761 1094.06 232.251C1061.39 232.178 1028.73 232.178 996.06 232.251C986.26 232.571 976.66 225.811 975.66 215.561C974.66 191.381 974.79 166.971 975.52 142.801L975.51 142.771ZM1005.01 148.221L1005.14 149.221C1004.95 168.861 1005.02 188.511 1005.14 208.141L1006.92 208.341C1032.62 208.081 1058.33 208.341 1084.03 208.191H1085.03C1084.59 188.831 1086.35 166.911 1084.09 149.191V148.241C1057.75 148.071 1031.4 148.181 1005.09 148.241L1005.01 148.221ZM1432.86 136.081C1438.4 133.171 1442.18 126.391 1447.77 124.481C1454.43 126.821 1463.11 123.841 1468.9 127.561C1469.25 154.111 1468.9 180.681 1469.07 207.241C1469.67 214.521 1466.69 222.121 1469.92 229.011C1461.92 234.691 1450.34 231.491 1441.06 231.191C1440.84 207.831 1441.3 184.451 1440.91 161.091L1439.13 161.851C1412.42 184.221 1385.87 206.991 1359.05 229.121C1350.63 231.311 1340.99 233.671 1333.13 229.031C1333.45 197.521 1332.64 165.821 1333.13 134.251C1332.13 130.531 1334.84 123.551 1339.7 125.641C1345.7 127.821 1354.26 123.361 1358.91 128.501C1359.49 150.621 1358.69 172.801 1359.19 194.941L1361.1 196.491C1362.3 196.22 1363.39 195.576 1364.21 194.651C1386.54 174.501 1410.28 155.911 1432.91 136.081H1432.86ZM1503.02 124.301C1510.75 125.221 1519.6 122.231 1526.85 125.411C1542.92 145.351 1558.86 165.411 1574.67 185.591C1576.06 186.761 1577.26 186.401 1578.29 184.531C1594.53 164.711 1610 144.191 1626.29 124.431C1633.56 124.161 1640.86 124.161 1648.19 124.191C1650.02 160.101 1648.61 196.191 1648.91 232.191C1639.26 232.381 1629.64 232.261 1620.02 232.191C1619.88 211.791 1620.18 191.391 1619.9 170.991L1618.29 171.991C1605.77 187.991 1592.98 203.861 1580.5 219.941C1577.17 219.391 1571.36 222.441 1569.92 217.311C1557.58 202.441 1546.08 186.921 1533.76 172.061L1532.09 171.011C1531.74 191.401 1532.23 211.801 1531.94 232.191C1522.5 232.401 1513.09 232.081 1503.69 232.441C1502.02 196.581 1503.48 160.301 1503.02 124.301Z" fill="#B6BBBE"></path> <path fill-rule="evenodd" clip-rule="evenodd" d="M644.99 101.301C646.15 107.441 647.48 122.231 644.99 128.301V127.301C645.03 118.571 644.98 109.911 644.99 101.301Z" fill="#B6BBBE"></path> <path fill-rule="evenodd" clip-rule="evenodd" d="M1134.64 104.24C1132.71 102.58 1127.76 98.2901 1136.97 101.24C1149.97 101.63 1163.18 100.48 1176.21 101.64C1162.58 102.94 1148.9 101.72 1135.27 102.43C1135.12 102.89 1134.8 103.79 1134.64 104.24Z" fill="#B6BBBE"></path> <path fill-rule="evenodd" clip-rule="evenodd" d="M304.15 243.3C308.55 245.3 309.15 240.61 313.36 241.51C310.902 244.691 308.416 247.851 305.908 250.995C284.941 277.278 262.452 302.432 242.66 329.62C233.12 338.23 226.61 349.77 217.22 358.62C217.114 355.358 217.048 352.1 217.023 348.842C216.989 344.389 217.033 339.938 217.16 335.48C239.21 306.53 268.36 284.78 291.26 256.55C297.03 253.89 303.22 250.3 304.15 243.3Z" fill="#B6BBBE"></path> <path d="M304.15 243.3C308.55 245.3 309.15 240.61 313.36 241.51C310.902 244.691 308.416 247.851 305.908 250.995L364 180.5L259 177.5L232.5 193.5L214.5 223.5L217.023 348.842C216.989 344.389 217.033 339.938 217.16 335.48C239.21 306.53 268.36 284.78 291.26 256.55C297.03 253.89 303.22 250.3 304.15 243.3Z" fill="#B6BBBE"></path> <path d="M259 177.5L364 180.5L366 177.5C330.833 177.514 260.2 177.534 259 177.5Z" fill="#B6BBBE"></path> <path fill-rule="evenodd" clip-rule="evenodd" d="M1176.21 101.641C1180.98 101.531 1182.53 106.861 1185.75 109.491C1194.75 117.891 1202.17 127.681 1211.24 135.981C1214.02 137.681 1214.7 143.261 1218.73 142.101C1230.52 128.231 1242.97 114.811 1255.34 101.461C1268.61 101.001 1281.91 101.221 1295.21 101.361C1277.78 121.361 1258.82 140.361 1240.34 159.581C1239.86 160.641 1238.61 161.741 1239.2 162.991C1261.86 185.851 1285.07 208.301 1307.35 231.511C1291.87 232.726 1276.33 232.726 1260.85 231.511C1245.64 216.691 1231.85 200.511 1216.85 185.511C1202.85 200.371 1189.57 216.811 1175.77 232.161C1162.06 231.931 1148.28 233.051 1134.64 231.461C1152.64 212.271 1170.18 192.601 1188.27 173.461C1190.17 170.461 1195.84 168.671 1194.85 164.461C1174.77 144.401 1154.58 124.461 1134.67 104.201C1134.83 103.751 1135.15 102.851 1135.3 102.391C1148.86 101.721 1162.58 102.941 1176.21 101.641Z" fill="#B6BBBE"></path> <path fill-rule="evenodd" clip-rule="evenodd" d="M510.03 102.24H511.03C511.03 145.574 511.03 188.907 511.03 232.24H510.03C509.983 188.914 509.983 145.58 510.03 102.24Z" fill="#B6BBBE"></path> <path fill-rule="evenodd" clip-rule="evenodd" d="M355.35 116.429C359.46 114.219 362.06 121.579 365.49 119.199C370.12 124.2 374.397 129.516 378.29 135.109C374.42 133.219 370.56 129.859 366.12 132.349C359.34 137.659 354.34 145.989 346.25 149.529C346.09 152.159 346.25 154.779 346.25 157.429C343.33 153.839 340.67 149.919 336.92 147.149C336.5 146.256 336.09 145.366 335.69 144.479C334.79 137.339 341.35 133.279 344.87 128.139C348.04 123.729 354.4 122.369 355.35 116.429Z" fill="#B6BBBE"></path> <path fill-rule="evenodd" clip-rule="evenodd" d="M827.96 124.239C829.13 121.239 834.1 123.629 835.96 123.079C865.27 123.519 894.6 123.079 923.96 123.289L924.02 124.229C892.02 124.229 860 124.229 827.96 124.229V124.239ZM676.96 123.239C708.28 123.239 739.61 123.139 770.96 123.239V124.169C739.62 124.229 708.3 124.169 676.96 124.169V123.239Z" fill="#B6BBBE"></path> <path fill-rule="evenodd" clip-rule="evenodd" d="M1008 124.231C1030.42 121.971 1057 123.801 1081 123.291V124.241C1056.67 124.241 1032.33 124.237 1008 124.231Z" fill="#B6BBBE"></path> <path fill-rule="evenodd" clip-rule="evenodd" d="M676.07 124.301H677.07C677.07 160.301 676.92 196.301 677.14 232.241C710.14 232.421 743.14 232.241 776.14 232.311L776.06 233.311C742.76 233.311 709.45 233.391 676.15 233.311C676.017 196.917 675.99 160.581 676.07 124.301Z" fill="#B6BBBE"></path> <path fill-rule="evenodd" clip-rule="evenodd" d="M827.05 124.301H827.96C828.13 160.301 827.83 196.301 828.09 232.241C837.46 232.451 846.85 232.151 856.23 232.461L856.11 233.371C846.41 233.211 836.72 233.511 827.04 233.221C826.98 196.881 826.983 160.574 827.05 124.301Z" fill="#B6BBBE"></path> <path fill-rule="evenodd" clip-rule="evenodd" d="M1331.1 124.3C1341.03 124.3 1351.03 124.03 1360.99 124.3C1360.99 148.35 1360.99 172.41 1360.99 196.46L1359.08 194.91C1358.58 172.77 1359.38 150.59 1358.8 128.47C1354.15 123.33 1345.64 127.79 1339.59 125.61C1334.73 123.52 1332 130.5 1333.02 134.22C1332.58 165.79 1333.39 197.49 1333.02 229C1340.88 233.64 1350.52 231.28 1358.94 229.09C1352.24 237.09 1340.09 232.09 1330.94 233.09C1331.01 196.86 1330.86 160.56 1331.1 124.3Z" fill="#B6BBBE"></path> <path fill-rule="evenodd" clip-rule="evenodd" d="M1360.99 124.301C1363.39 144.401 1361.27 169.301 1361.99 191.211C1361.69 192.831 1363.08 193.671 1364.12 194.621C1363.3 195.546 1362.21 196.19 1361.01 196.461C1360.96 172.441 1361.02 148.381 1360.99 124.301Z" fill="#B6BBBE"></path> <path fill-rule="evenodd" clip-rule="evenodd" d="M1447.74 124.48C1455.45 124.21 1463.21 124.03 1470.96 124.3C1470.96 160.6 1471.1 196.91 1470.91 233.2C1460.91 233.2 1450.91 233.51 1441 233.14C1441 232.65 1441 231.68 1441 231.19C1450.28 231.49 1461.82 234.69 1469.86 229.01C1466.63 222.12 1469.61 214.52 1469.01 207.24C1468.81 180.68 1469.19 154.11 1468.84 127.56C1463.08 123.84 1454.4 126.82 1447.74 124.48Z" fill="#B6BBBE"></path> <path fill-rule="evenodd" clip-rule="evenodd" d="M1502.07 124.301H1503.02C1503.48 160.301 1502.02 196.601 1503.69 232.451L1503.99 233.291L1502.07 233.211C1501.93 196.884 1501.93 160.581 1502.07 124.301Z" fill="#B6BBBE"></path> <path fill-rule="evenodd" clip-rule="evenodd" d="M1648.19 124.17L1649.92 124.31C1650.03 160.6 1650.09 196.91 1649.92 233.2C1639.92 233.2 1629.92 233.45 1620.01 233.2V232.25C1629.63 232.25 1639.25 232.41 1648.9 232.25C1648.61 196.19 1650.02 160.08 1648.19 124.17Z" fill="#B6BBBE"></path> <path fill-rule="evenodd" clip-rule="evenodd" d="M545.6 127.919C578.45 126.189 611.91 127.809 644.98 127.229V128.229C611.86 128.049 578.7 128.679 545.6 127.919Z" fill="#B6BBBE"></path> <path fill-rule="evenodd" clip-rule="evenodd" d="M546 151.23C542.82 145.94 545.72 134.83 545.6 127.92C546.19 135.67 546.1 143.46 546 151.23Z" fill="#B6BBBE"></path> <path fill-rule="evenodd" clip-rule="evenodd" d="M211.18 133.52C236.9 125.52 262.99 149.79 265.18 174.98C265.149 176.798 265.283 178.616 265.58 180.41C265.34 205.26 242.58 230.14 216.88 227.22C196.7 224.09 180.53 206.61 177.66 186.54C177.77 182.02 177.78 177.54 177.76 173C180.23 154.89 193.64 138.88 211.18 133.52Z" fill="#B6BBBE"></path> <path fill-rule="evenodd" clip-rule="evenodd" d="M366.12 132.35C370.56 129.86 374.42 133.22 378.29 135.11C381.73 139.65 386.11 143.42 389.37 148.11C384.62 147.38 381.84 142.65 377.31 141.26C374.51 152.26 362.21 157.1 356.92 166.26C357.83 169.65 361.75 171.69 361.76 175.65C355.69 170.51 351.64 163.3 346.24 157.44C346.24 154.79 346.09 152.17 346.24 149.54C354.34 145.99 359.34 137.66 366.12 132.35Z" fill="#B6BBBE"></path> <path fill-rule="evenodd" clip-rule="evenodd" d="M377.31 141.24C381.84 142.63 384.62 147.36 389.37 148.09C392.86 152.18 395.96 156.64 400.08 160.15L399.93 161.21C396.8 160.09 392.39 157.47 390.37 161.63C385.59 166.18 374.23 170.77 376.99 179.26C371.63 179.13 365.12 180.89 361.76 175.64C361.76 171.64 357.83 169.64 356.92 166.25C362.21 157.08 374.51 152.21 377.31 141.24Z" fill="#B6BBBE"></path> <path fill-rule="evenodd" clip-rule="evenodd" d="M1114.02 143.221C1116.24 164.341 1114.47 189.491 1114.94 212.221L1114.01 212.331C1113.98 189.284 1113.99 166.247 1114.02 143.221Z" fill="#B6BBBE"></path> <path fill-rule="evenodd" clip-rule="evenodd" d="M706.05 146.3C725.72 146.83 747.9 144.95 766.05 147.24C746.4 147.4 726.74 147 707.05 147.36C706.94 153.29 706.65 159.26 707.1 165.19C726.4 165.42 745.71 165.12 765.02 165.28C747.15 167.45 725.41 165.8 706.02 166.16C705.914 159.533 705.924 152.913 706.05 146.3Z" fill="#B6BBBE"></path> <path fill-rule="evenodd" clip-rule="evenodd" d="M336.91 147.15C340.66 149.92 343.32 153.84 346.24 157.43C351.64 163.29 355.69 170.5 361.76 175.64C365.12 180.89 371.63 179.13 376.99 179.26C388.8 177.93 401.72 181.57 413.08 178.15C409.33 172.04 404.08 167.05 399.93 161.21L400.08 160.15C406.41 163.92 409.44 171.57 414.7 176.58C415.57 180.1 411.39 184.58 407.48 181.63C392.43 180.86 377.24 180.71 362.24 182.33C362.91 181.23 362.89 180.45 362.18 180.01C361.18 179.64 360.26 179.3 359.3 179.01C354.17 167.14 342.97 158.62 336.91 147.15Z" fill="#8E9DA6"></path> <path fill-rule="evenodd" clip-rule="evenodd" d="M857.06 147.3C877.36 147.207 897.663 147.207 917.97 147.3L918.02 148.25C898.02 148.45 878.02 147.98 858.02 148.39C857.82 155.32 857.93 162.25 857.97 169.18C855.64 164.14 857.47 154.16 857.06 147.3Z" fill="#B6BBBE"></path> <path fill-rule="evenodd" clip-rule="evenodd" d="M1004.95 148.3C1031.28 148.3 1057.63 148.17 1083.95 148.3V149.25C1057.95 149.25 1031.95 149.25 1005.95 149.25H1005L1004.95 148.3Z" fill="#B6BBBE"></path> <path fill-rule="evenodd" clip-rule="evenodd" d="M1005.08 149.23H1006.03C1006.71 168.87 1004.6 188.87 1006.87 208.32L1005.09 208.12C1004.96 188.52 1004.86 168.87 1005.08 149.23Z" fill="#B6BBBE"></path> <path fill-rule="evenodd" clip-rule="evenodd" d="M1083.99 149.301C1086.25 166.991 1084.49 188.911 1084.93 208.301H1083.93C1084 188.587 1084.02 168.921 1083.99 149.301Z" fill="#B6BBBE"></path> <path fill-rule="evenodd" clip-rule="evenodd" d="M921.02 151.23C922.74 153.31 922.77 164.23 921.02 166.23C921.04 161.21 920.98 156.21 921.02 151.23Z" fill="#B6BBBE"></path> <path fill-rule="evenodd" clip-rule="evenodd" d="M390.37 161.63C392.37 157.47 396.8 160.09 399.93 161.21C404.07 167.05 409.33 172.04 413.08 178.15C401.72 181.57 388.8 177.93 376.99 179.26C374.23 170.77 385.59 166.18 390.37 161.63Z" fill="#B6BBBE"></path> <path fill-rule="evenodd" clip-rule="evenodd" d="M1439.1 161.85L1440.88 161.09C1441.27 184.45 1440.81 207.83 1441.03 231.19C1441.03 231.68 1441.03 232.65 1441.03 233.14C1438.04 211.68 1441.86 184.99 1439.1 161.85Z" fill="#B6BBBE"></path> <path fill-rule="evenodd" clip-rule="evenodd" d="M1532.09 171L1533.76 172.05C1532.01 192.36 1533.55 212.83 1532.95 233.2C1523.28 233.273 1513.61 233.297 1503.95 233.27L1503.65 232.43C1513.05 232.07 1522.46 232.43 1531.9 232.18C1532.23 211.79 1531.74 191.39 1532.09 171Z" fill="#B6BBBE"></path> <path fill-rule="evenodd" clip-rule="evenodd" d="M1618.29 171.98L1619.9 170.98C1620.18 191.38 1619.9 211.78 1620.02 232.18V233.13C1617.17 214.98 1620.61 191.91 1618.29 171.98Z" fill="#B6BBBE"></path> <path fill-rule="evenodd" clip-rule="evenodd" d="M177.67 186.54C176.26 182.16 177.11 177.43 177.77 173C177.79 177.51 177.78 182.02 177.67 186.54Z" fill="#8E9DA6"></path> <path fill-rule="evenodd" clip-rule="evenodd" d="M547 177.2C566 176.73 585.12 178.3 604.06 176.43C604.06 176.86 603.97 177.73 603.93 178.16C584.61 178.36 565.29 178.16 545.98 178.26H544.98L547 177.2Z" fill="#B6BBBE"></path> <path fill-rule="evenodd" clip-rule="evenodd" d="M69.7695 179.919C70.0846 179.045 70.4519 178.19 70.8695 177.359C71.4295 179.769 73.4095 180.359 76.7895 179.199C82.1195 179.319 87.4395 179.199 92.7895 179.199C97.1362 179.239 101.47 179.239 105.79 179.199C111.48 179.199 117.16 179.279 122.85 179.199C129.163 179.246 135.476 179.246 141.79 179.199C150.5 179.309 159.21 179.199 167.93 179.199L167.8 180.129C135.41 180.409 103 180.049 70.6095 180.299L69.7695 179.919Z" fill="#8E9DA6"></path> <path fill-rule="evenodd" clip-rule="evenodd" d="M545.02 178.23H546.02C546.18 186.87 545.88 195.51 546.09 204.16C579.74 204.32 613.39 204.11 647.09 204.24L647.04 205.24H646.04C612.41 205.13 578.77 205.34 545.14 205.16C544.86 196.19 544.86 187.21 545.02 178.23Z" fill="#B6BBBE"></path> <path fill-rule="evenodd" clip-rule="evenodd" d="M18.7297 182.48C16.8297 180.96 19.1097 178.94 20.8897 179.18C20.5497 180.25 19.5997 181.56 20.7697 182.5C25.8597 188.93 31.4797 195 36.8597 201.3C41.2397 206.64 45.3897 212.18 49.8597 217.42C53.4397 221.49 56.5997 225.91 60.0797 230.06C61.6632 232.002 63.0249 234.115 64.1397 236.36C59.5397 233.57 56.5397 229.06 53.6297 224.66C41.1097 211.3 30.7097 196.3 18.7297 182.48Z" fill="#8E9DA6"></path> <path fill-rule="evenodd" clip-rule="evenodd" d="M44.7703 179.4C53.1003 179.17 61.4803 178.88 69.7703 179.92L70.6303 180.32C72.2403 183.32 74.1803 186.13 75.9503 189.05C82.5203 199.19 65.9503 204.95 64.1503 214.43C62.1503 219.93 58.1503 209.43 56.8203 215.06C56.7303 219.38 52.7203 217.76 49.8203 217.39C45.3303 212.15 41.1803 206.61 36.8203 201.27C39.8803 201.07 42.2203 202.92 44.0303 205.16C48.5139 200.962 52.5581 196.318 56.1003 191.3C58.0203 188.68 63.2203 189.03 63.8503 185.67C57.6503 182.93 52.1303 178.58 44.7703 179.4Z" fill="#B6BBBE"></path> <path fill-rule="evenodd" clip-rule="evenodd" d="M707.01 209.229C705.66 205.099 704.69 192.229 707.01 188.279C706.99 195.259 706.99 202.243 707.01 209.229Z" fill="#B6BBBE"></path> <path fill-rule="evenodd" clip-rule="evenodd" d="M75.9498 189.051C80.8398 192.241 83.3498 197.741 87.1298 202.051C87.4598 206.771 88.5898 211.401 89.0198 216.111C82.6098 217.321 80.3998 224.251 75.2398 227.481C73.9898 235.961 65.5298 232.691 60.0598 230.061C56.5798 225.911 53.4198 221.491 49.8398 217.421C52.7198 217.791 56.7298 219.421 56.8398 215.091C58.2098 209.461 62.1598 219.961 64.1698 214.461C65.8598 204.951 82.5198 199.191 75.9498 189.051Z" fill="#B6BBBE"></path> <path fill-rule="evenodd" clip-rule="evenodd" d="M857.06 192.299C881.37 192.049 905.7 192.299 930.06 192.229C907.91 194.599 881.76 192.419 858.06 193.229C857.84 206.519 858.2 219.819 857.96 233.109L856.13 233.239L856.25 232.329C858 219.119 856.43 205.669 857.06 192.299Z" fill="#B6BBBE"></path> <path fill-rule="evenodd" clip-rule="evenodd" d="M645.98 205.301H646.98C647.04 214.621 647.15 223.951 646.98 233.301C601.646 233.374 556.336 233.374 511.05 233.301V232.301C556.05 232.301 600.99 232.401 645.97 232.251C646.16 223.211 645.96 214.231 645.98 205.301Z" fill="#B6BBBE"></path> <path fill-rule="evenodd" clip-rule="evenodd" d="M707.01 209.23C725.34 209.28 743.67 209.17 762.01 209.28C745.86 210.87 723.05 210.95 707.01 209.23Z" fill="#B6BBBE"></path> <path fill-rule="evenodd" clip-rule="evenodd" d="M216.65 332.53C215.52 297.85 215.46 262.79 216.81 228.08C217.04 234.83 216.97 241.58 216.97 248.35C216.97 254.35 216.97 260.38 216.97 266.44C216.97 273.48 217.013 280.517 217.1 287.55C216.89 295.22 217 302.89 217.17 310.55C216.96 313.9 217.11 317.22 217.17 320.55C216.964 324.557 216.79 328.55 216.65 332.53Z" fill="#8E9DA6"></path> <path fill-rule="evenodd" clip-rule="evenodd" d="M1134.07 233.15C1134.21 232.74 1134.48 231.9 1134.61 231.48C1148.25 233.07 1162.03 231.95 1175.74 232.18C1164.56 234.55 1147.5 232.74 1134.07 233.15Z" fill="#B6BBBE"></path> <path fill-rule="evenodd" clip-rule="evenodd" d="M1260.86 231.501C1276.34 232.716 1291.88 232.716 1307.36 231.501C1309.9 231.431 1310.59 238.57 1304.05 233.23C1289.72 233.13 1275.4 233.44 1261.1 233.14C1261.03 232.74 1260.92 231.911 1260.86 231.501Z" fill="#B6BBBE"></path> <path fill-rule="evenodd" clip-rule="evenodd" d="M995.99 232.3C1028.66 232.246 1061.32 232.246 1093.99 232.3V233.25C1061.33 233.25 1028.68 233.32 995.99 233.25V232.3Z" fill="#B6BBBE"></path> <path fill-rule="evenodd" clip-rule="evenodd" d="M511.09 276.24L517.86 276.3C520.74 282.76 523.04 289.58 525.38 296.3C531.81 290.77 528.38 274.01 539.82 276.3C542.61 285.03 540.48 295.73 540.95 305.2C528.72 309.41 538.58 290.46 534.17 287.4C530.41 292.53 532.54 307.08 523.32 305.07C521.2 299.82 519.65 294.38 517.71 289.07C517.297 287.963 516.826 286.878 516.3 285.82C515.97 292.26 516 298.71 516.02 305.15C514.355 305.273 512.684 305.273 511.02 305.15C511.02 295.5 510.73 285.84 511.02 276.2L511.09 276.24ZM1389.38 276.57C1400.88 273.22 1412.58 286.08 1407.06 297.28C1402.88 308.39 1384.06 308.58 1380.06 297.23C1374.96 289.39 1381.26 279.23 1389.38 276.57V276.57ZM1390.38 282.49C1383.56 284.61 1382.03 294.43 1387.82 298.49C1393.61 303.49 1403.59 297.66 1402.96 290.36C1402.09 284.56 1396.23 280.1 1390.33 282.49H1390.38Z" fill="#B6BBBE"></path> <path fill-rule="evenodd" clip-rule="evenodd" d="M559.02 277.44C560.17 275.84 562.24 276.2 563.96 276.24C564.18 282.63 563.73 289.04 564.12 295.44C569.12 290 571.01 282.38 576.29 277.21C579.1 277.57 584.35 275.77 581.02 282.21C579.14 289.32 584.71 299.64 578.92 305.21C571.92 305.01 577.86 292.3 575.92 286.98C569.66 291.92 569.09 306.7 559.04 305.14C558.99 295.95 558.97 286.7 559.02 277.44Z" fill="#B6BBBE"></path> <path fill-rule="evenodd" clip-rule="evenodd" d="M576.29 277.21L581.96 276.21C581.96 285.85 582.23 295.5 581.96 305.14L578.96 305.24C584.75 299.64 579.18 289.32 581.06 282.24C584.35 275.77 579.1 277.57 576.29 277.21Z" fill="#B6BBBE"></path> <path fill-rule="evenodd" clip-rule="evenodd" d="M599.09 276.3L604.95 277.2C603.31 277.2 601.68 277.28 600.07 277.45C599.84 286.71 600.01 295.97 600.01 305.24C597.86 297.56 599.26 285.68 599.09 276.3Z" fill="#B6BBBE"></path> <path fill-rule="evenodd" clip-rule="evenodd" d="M615.05 277.15C624.33 270.65 620.22 286.15 621.05 291.24C619.96 295.12 622.79 302.92 620.05 305.24C619.98 295.96 620.31 286.67 619.99 277.41C618.3 277.21 616.67 277.19 615.05 277.15Z" fill="#B6BBBE"></path> <path fill-rule="evenodd" clip-rule="evenodd" d="M638.09 276.3C643.35 276.42 659.56 273.3 653.09 282.2C654.99 273.88 644.42 277.7 639.09 277.38C638.95 286.26 638.77 295.15 639.09 304.03C641.843 304.104 644.585 304.398 647.29 304.91C644.209 305.187 641.114 305.291 638.02 305.22C638.05 295.56 637.75 285.91 638.09 276.3Z" fill="#B6BBBE"></path> <path fill-rule="evenodd" clip-rule="evenodd" d="M671.08 277.24C671.68 275.92 682.08 274.66 682.94 277.24C678.973 277.227 675.02 277.227 671.08 277.24Z" fill="#B6BBBE"></path> <path fill-rule="evenodd" clip-rule="evenodd" d="M712.21 276.36C717.45 274.36 717.32 281.15 719.06 284.22C721.48 291.29 725.86 297.8 727.06 305.22C717.23 310.54 722.92 294.22 713.97 298.22C704.37 293.48 709.9 310.22 699.97 305.22C703.271 295.281 707.375 285.626 712.24 276.35L712.21 276.36ZM713.21 286.41C712.244 288.261 711.457 290.2 710.86 292.2C718.44 296.81 716.32 287.28 713.24 286.41H713.21ZM752.17 276.3C753.95 276.38 756.9 275.15 756.98 278.3C760.98 287.15 764.48 296.22 768.09 305.24H762.16C758.63 299.06 756.72 292.01 754.67 285.24C749.06 291.42 751.95 307.06 740.94 305.33C744.36 295.5 747.99 285.74 752.17 276.3Z" fill="#B6BBBE"></path> <path fill-rule="evenodd" clip-rule="evenodd" d="M783.09 276.3L788.95 277.21C787.31 277.21 785.68 277.28 784.07 277.44C783.92 286.36 783.78 295.3 784.07 304.22C788.07 304.32 792.07 304.35 796.01 304.32C793.6 306.71 787.13 304.99 783.01 305.21C783.04 295.52 782.76 285.88 783.09 276.3Z" fill="#B6BBBE"></path> <path fill-rule="evenodd" clip-rule="evenodd" d="M818.09 276.3L823.96 277.21C822.32 277.21 820.69 277.28 819.07 277.44C818.98 286.27 818.61 295.14 819.2 303.96C820.2 304.36 821.2 304.74 822.26 305.09C820.84 305.21 819.42 305.28 818.02 305.28C818.06 295.57 817.75 285.9 818.09 276.3Z" fill="#B6BBBE"></path> <path fill-rule="evenodd" clip-rule="evenodd" d="M834.06 277.46C835.15 275.8 837.25 276.22 838.95 276.24C838.95 285.89 839.22 295.55 838.95 305.19C837.322 305.31 835.688 305.31 834.06 305.19C832.61 302.26 836.36 294.46 833.06 293.24C822.39 289.44 823.57 297.88 823.99 305.3L822.31 305.04C821.31 304.69 820.25 304.31 819.25 303.91C818.66 295.09 819.03 286.22 819.12 277.39C820.74 277.23 822.37 277.2 824.01 277.16C824.01 280.51 823.96 283.91 824.08 287.28C831.11 292.08 837.01 286.05 834.06 277.46Z" fill="#B6BBBE"></path> <path fill-rule="evenodd" clip-rule="evenodd" d="M867.39 276.63C880.57 272.57 890.74 290.37 882.23 300.47C875.92 308.25 860.73 307.16 856.97 297.29C852.71 289.05 858.38 278.18 867.39 276.63V276.63ZM866.22 282.38C863.13 285.12 859.27 290.03 861.97 294.27C863.97 302.55 877.97 301.76 879.48 293.62C881.86 286.24 873.33 279.5 866.22 282.38V282.38Z" fill="#B6BBBE"></path> <path fill-rule="evenodd" clip-rule="evenodd" d="M928.94 276.3C936.16 273.46 936.89 282.88 941.05 285.3C944.99 283.3 947.05 271.94 953.96 277.43C950.96 282.06 947.05 286.15 944.96 291.33C947.01 296.57 952.34 299.93 954.1 305.33C945.73 309.59 945.73 298.77 941.1 296.54C937.43 301.12 935.33 308.01 927.93 305.38C930.93 300.68 934.49 296.28 936.93 291.29C936.42 285.3 929.5 281.92 928.94 276.3Z" fill="#B6BBBE"></path> <path fill-rule="evenodd" clip-rule="evenodd" d="M969.09 276.3L974.97 277.21C973.32 277.21 971.68 277.28 970.06 277.44C969.84 286.71 970.01 295.98 970.01 305.26C967.86 297.54 969.26 285.69 969.09 276.3Z" fill="#B6BBBE"></path> <path fill-rule="evenodd" clip-rule="evenodd" d="M987.05 277.15C996.34 270.65 992.21 286.15 993.05 291.24C991.95 295.12 994.79 302.92 992.05 305.24C991.97 295.96 992.3 286.67 992 277.4C990.29 277.2 988.66 277.17 987.05 277.15Z" fill="#B6BBBE"></path> <path fill-rule="evenodd" clip-rule="evenodd" d="M1010.09 276.3C1009.73 278.19 1019.01 274.38 1017.71 277.3L1011.07 277.4C1010.84 286.68 1011.01 295.96 1011.01 305.25C1008.86 297.56 1010.26 285.69 1010.09 276.3Z" fill="#B6BBBE"></path> <path fill-rule="evenodd" clip-rule="evenodd" d="M1025.14 297.08C1030.74 292.61 1028.37 271.99 1039.98 277.47C1039.98 286.71 1039.98 295.954 1039.98 305.2C1030.11 307.46 1036.84 292.94 1034.93 287.08C1031.03 292.18 1030.44 299.29 1027.74 305.13C1018.29 306.6 1020.81 292.5 1016.02 287.02C1013.75 292.37 1021.13 307.66 1011.02 305.19C1011.02 295.9 1010.85 286.62 1011.08 277.34L1017.72 277.24C1020.53 283.72 1022.82 290.42 1025.15 297.08H1025.14ZM784.07 277.39C785.68 277.23 787.31 277.2 788.95 277.16C790.56 280.47 785.47 290.59 794.02 287.31C803.88 286.85 805.17 302.84 796.02 304.31C792.02 304.31 788.02 304.31 784.08 304.21C783.77 295.29 783.91 286.35 784.08 277.43L784.07 277.39ZM789.02 293.22C784.1 300.1 796.41 302.34 796.95 296.22C796.22 293.07 791.72 292.12 789.02 293.22V293.22Z" fill="#B6BBBE"></path> <path fill-rule="evenodd" clip-rule="evenodd" d="M1058.09 276.24C1069.09 273.75 1061.98 288.82 1064.09 294.42C1069.52 289.92 1070.95 281.68 1076.09 277.14C1078.95 277.57 1084.36 275.77 1081.09 282.25C1080.51 289.88 1082.35 297.92 1080.18 305.37C1078.8 305.374 1077.43 305.308 1076.06 305.17C1075.96 298.87 1076.31 292.57 1075.99 286.28C1074.6 286.03 1074.55 287.91 1073.9 288.7C1069.13 294.61 1067.46 306.97 1058.1 305.25C1058.04 295.58 1057.75 285.9 1058.09 276.24Z" fill="#B6BBBE"></path> <path fill-rule="evenodd" clip-rule="evenodd" d="M1076.05 277.14L1081.96 276.26C1081.9 285.88 1082.28 295.53 1081.89 305.16L1080.13 305.37C1082.3 297.92 1080.46 289.88 1081.04 282.25C1084.32 275.77 1078.91 277.57 1076.05 277.14Z" fill="#B6BBBE"></path> <path fill-rule="evenodd" clip-rule="evenodd" d="M1098.04 276.24C1107.04 273.11 1103.04 283.79 1104.14 288.05C1107.59 289.6 1115.41 291.55 1111.97 284.24C1111.35 280.75 1111.36 273.07 1117.97 276.24C1117.97 285.9 1118.26 295.59 1117.97 305.24C1108.58 309.1 1113.17 298.77 1111.97 294.34C1107.75 294.28 1102.04 295.2 1099.34 290.96C1097.52 286.3 1097.91 281.13 1098.04 276.24Z" fill="#B6BBBE"></path> <path fill-rule="evenodd" clip-rule="evenodd" d="M1136.02 277.24C1137.91 275.47 1149.12 275.47 1150.95 277.24C1145.93 277.23 1141 277.24 1136.02 277.24Z" fill="#B6BBBE"></path> <path fill-rule="evenodd" clip-rule="evenodd" d="M1178.39 276.63C1185.3 274.43 1192.39 278.94 1195.01 285.29C1188.34 288.13 1185.69 279.52 1179.09 282.29C1171.97 284.14 1170.29 295.59 1177.29 298.9C1183.46 302.9 1188.66 295.37 1195.03 297.22C1191.03 307.59 1173.27 308.86 1169.03 298.27C1163.71 290.36 1168.96 278.06 1178.39 276.63Z" fill="#B6BBBE"></path> <path fill-rule="evenodd" clip-rule="evenodd" d="M1211.08 276.3C1212.75 276.3 1214.85 275.86 1215.94 277.52C1216.88 278.97 1214.11 292.67 1217.75 286.57C1221.23 281.2 1224 275.28 1231.12 276.35C1229.19 281.77 1223.9 285.35 1220.99 290.35C1223.51 295.86 1228.31 299.94 1231.22 305.23C1222.91 308.76 1221.79 299.6 1217.81 295.08C1214.01 289.2 1216.76 302.89 1215.95 305.27C1214.32 305.39 1212.67 305.39 1211.04 305.27C1211.03 295.54 1210.77 285.89 1211.08 276.3Z" fill="#B6BBBE"></path> <path fill-rule="evenodd" clip-rule="evenodd" d="M1257.08 276.3C1262.25 274.66 1262.78 280.76 1264.23 284.14C1266.33 291.33 1271.3 297.77 1272.06 305.28C1263.06 309.77 1267.8 293.92 1258.98 298.28C1250.23 294.2 1254.25 310.28 1244.92 305.28C1248.53 295.46 1252.86 285.87 1257.08 276.28V276.3ZM1258.23 286.44C1257.48 289.35 1252.79 295.78 1261.07 292.25C1260.37 290.3 1261.12 285.72 1258.23 286.39V286.44Z" fill="#B6BBBE"></path> <path fill-rule="evenodd" clip-rule="evenodd" d="M1294.97 277.21C1295.21 275.93 1305.84 274.62 1305.97 277.21C1302.22 277.23 1298.65 277.3 1294.97 277.21Z" fill="#B6BBBE"></path> <path fill-rule="evenodd" clip-rule="evenodd" d="M1346.07 277.16C1352.79 271.11 1352.71 281.95 1352.81 286.46C1348.02 292.49 1355.31 272.83 1346.07 277.16Z" fill="#B6BBBE"></path> <path fill-rule="evenodd" clip-rule="evenodd" d="M1352.86 286.46C1356.69 282.27 1358.51 273.58 1366.15 276.26C1364.32 281.73 1359.15 285.36 1356.36 290.39C1358.65 295.76 1364.25 299.59 1366.18 305.22C1358.89 307.5 1355.87 299.84 1352.83 295.03C1348.62 291.03 1352.28 303.9 1351 305.19C1349.37 305.31 1347.73 305.31 1346.1 305.19C1346.1 295.85 1345.83 286.49 1346.1 277.19C1355.31 272.83 1348.02 292.49 1352.86 286.46Z" fill="#B6BBBE"></path> <path fill-rule="evenodd" clip-rule="evenodd" d="M1425.01 277.22C1436.1 270.7 1434.36 290.87 1439.93 296.07C1442.26 290.608 1444.31 285.031 1446.07 279.36C1448.07 277.07 1450.9 277.01 1453.92 277.2C1454.04 286.2 1454.21 295.2 1453.92 304.12C1452.29 304.26 1450.64 304.28 1449.03 304.32C1448.86 298.59 1449.03 292.87 1448.96 287.15C1443.7 291.23 1446.67 306.53 1437.28 305.1C1434.51 299.21 1433.86 292.37 1430.14 286.96C1427.68 292.31 1435.14 307.67 1425.01 305.19C1424.98 295.863 1424.98 286.54 1425.01 277.22Z" fill="#B6BBBE"></path> <path fill-rule="evenodd" clip-rule="evenodd" d="M1446.07 279.36C1445.48 274.45 1451.73 276.36 1454.96 276.29C1454.96 285.93 1455.23 295.59 1454.91 305.23L1449.03 304.32C1450.64 304.32 1452.29 304.26 1453.92 304.12C1454.21 295.12 1454.04 286.12 1453.92 277.2C1450.86 277.01 1448.09 277.07 1446.07 279.36Z" fill="#B6BBBE"></path> <path fill-rule="evenodd" clip-rule="evenodd" d="M1472.09 276.3C1479.04 276.17 1486.01 276.14 1493.02 276.3V277.3C1486.35 277.38 1479.73 276.93 1473.1 277.4C1472.87 286.68 1473.04 295.95 1473.05 305.23C1470.86 297.57 1472.27 285.7 1472.09 276.3Z" fill="#B6BBBE"></path> <path fill-rule="evenodd" clip-rule="evenodd" d="M1493.02 276.3C1493.93 283.04 1495.76 298.52 1493.02 305.21C1493.02 295.89 1493.02 286.58 1493.02 277.27V276.3Z" fill="#B6BBBE"></path> <path fill-rule="evenodd" clip-rule="evenodd" d="M1521.08 276.3C1527.42 274.87 1526.9 283.72 1529.59 287.65C1531.4 293.65 1535.72 298.97 1536.05 305.28C1526.53 310.36 1531.98 294.33 1522.97 298.28C1514.22 294.16 1518.24 310.28 1508.97 305.28C1512.65 295.49 1516.62 285.76 1521.12 276.28L1521.08 276.3ZM1522.21 286.3C1521.41 288.3 1520.72 290.3 1520.09 292.3C1527.38 296.3 1525.3 287.5 1522.21 286.3Z" fill="#B6BBBE"></path> <path fill-rule="evenodd" clip-rule="evenodd" d="M1552.09 276.24C1560.59 273.39 1557.35 282.73 1558.04 287.24L1567.85 288.17C1568.26 283.33 1565.53 275.08 1572.97 277.17C1572.97 286.51 1573.11 295.86 1572.97 305.17C1571.33 305.285 1569.69 305.285 1568.05 305.17C1566.59 302.24 1570.34 294.44 1567.05 293.22C1551.05 286.04 1565.26 309.55 1552.05 305.22C1552.05 295.55 1551.76 285.88 1552.1 276.22L1552.09 276.24ZM639.09 277.36C644.43 277.68 655 273.86 653.09 282.18C650.01 282.27 647.09 282.18 644.02 282.33C640.45 290.82 648.56 287.6 653.02 288.33C656.57 296.5 647.83 292.33 644.02 293.33C638.55 305.41 658.42 293.1 654.02 305.24L647.32 304.88C644.614 304.368 641.872 304.074 639.12 304C638.76 295.12 638.94 286.23 639.12 277.35L639.09 277.36ZM970.09 277.36C971.71 277.2 973.35 277.17 975 277.13C975.15 283.21 974.86 289.3 975.11 295.39C979.76 289.81 982.23 282.23 987.11 277.12C988.72 277.12 990.35 277.12 991.99 277.33C992.29 286.6 991.99 295.89 992.04 305.17C982.16 307.42 988.92 292.9 986.97 287.04C979.7 291.28 980.34 306.75 970.07 305.18C970.01 295.93 969.86 286.66 970.06 277.39L970.09 277.36Z" fill="#B6BBBE"></path> <path fill-rule="evenodd" clip-rule="evenodd" d="M1567.08 276.3L1572.97 277.21C1565.53 275.21 1568.26 283.42 1567.85 288.21L1558.04 287.28C1567.86 290.48 1567.95 283.81 1567.08 276.3Z" fill="#B6BBBE"></path> <path fill-rule="evenodd" clip-rule="evenodd" d="M1591.08 276.3C1592.32 276.54 1594.78 277.04 1595.99 277.3C1595.99 283.3 1595.77 289.3 1596.07 295.3C1597.36 295.55 1597.96 295.01 1597.9 293.7C1603.17 288.28 1604.66 275.89 1613.9 276.3C1613.9 285.95 1614.16 295.62 1613.9 305.3C1612.27 305.42 1610.62 305.42 1608.99 305.3C1607.25 301.74 1612.18 286.54 1607.22 288.06C1601.42 293.31 1600.78 306.96 1591.04 305.36C1591.02 295.58 1590.76 285.91 1591.08 276.3Z" fill="#B6BBBE"></path> <path fill-rule="evenodd" clip-rule="evenodd" d="M1639.97 277.18L1649.97 276.27C1649.97 285.89 1650.27 295.54 1649.91 305.16L1648.2 305.37C1649.5 296.09 1649.13 286.67 1648.92 277.37C1645.69 277.2 1643.04 277.23 1639.97 277.18Z" fill="#B6BBBE"></path> <path fill-rule="evenodd" clip-rule="evenodd" d="M559.01 305.21C557.95 299.06 556.34 283.04 559.01 277.44C558.97 286.7 558.99 295.95 559.01 305.21Z" fill="#B6BBBE"></path> <path fill-rule="evenodd" clip-rule="evenodd" d="M600.07 277.4C601.68 277.23 603.31 277.2 604.95 277.15C603.29 285.71 605.29 291.08 614.95 288.22C614.95 285.45 615.06 279.92 615.09 277.15C616.71 277.15 618.34 277.21 619.96 277.37C620.28 286.63 619.96 295.92 620.02 305.2C612.13 307.61 615.74 298.13 615.02 293.26H605.07C604.4 298.08 608 307.74 600.01 305.19C600.01 295.92 599.86 286.66 600.07 277.4Z" fill="#B6BBBE"></path> <path fill-rule="evenodd" clip-rule="evenodd" d="M604.95 277.15C605.23 279.67 605.81 284.7 606.09 287.21C616.24 291.21 612.94 281.54 615.09 277.15C615.09 279.92 614.98 285.45 614.95 288.22C605.29 291.08 603.29 285.71 604.95 277.15Z" fill="#B6BBBE"></path> <path fill-rule="evenodd" clip-rule="evenodd" d="M671.08 277.24C675.02 277.24 678.974 277.24 682.94 277.24C693.54 279.72 689.31 298.24 677.83 294.19C672.83 293.86 677.83 302.74 675.93 305.19C674.303 305.31 672.668 305.31 671.04 305.19C671.04 295.88 670.78 286.55 671.04 277.24H671.08ZM677.08 282.24C677.08 283.99 677.08 287.51 677.08 289.24C685.8 292.98 685.86 278.51 677.04 282.24H677.08Z" fill="#B6BBBE"></path> <path fill-rule="evenodd" clip-rule="evenodd" d="M824.03 287.3C834.58 291.6 832.6 281.75 834.03 277.48C837.01 286.05 831.11 292.08 824.03 287.3Z" fill="#B6BBBE"></path> <path fill-rule="evenodd" clip-rule="evenodd" d="M1039.98 277.47C1040.98 283.27 1042.73 299.02 1039.98 305.2C1040 295.933 1040 286.69 1039.98 277.47Z" fill="#B6BBBE"></path> <path fill-rule="evenodd" clip-rule="evenodd" d="M1136.01 305.15C1135.01 298.83 1133.27 283.68 1136.01 277.24C1135.98 286.54 1135.98 295.844 1136.01 305.15Z" fill="#B6BBBE"></path> <path fill-rule="evenodd" clip-rule="evenodd" d="M1136.02 277.24C1141.02 277.24 1145.93 277.24 1150.95 277.24C1153.23 284.24 1145.6 282.07 1140.95 282.33C1136.12 293.67 1157.41 283.04 1149.95 293.19C1146.73 294.45 1137.33 290.07 1140.95 298.19C1140.28 302.92 1148.05 299.19 1150.95 300.19C1153.29 308.95 1141.51 304.41 1135.95 305.07C1135.96 295.817 1135.99 286.54 1136.02 277.24Z" fill="#B6BBBE"></path> <path fill-rule="evenodd" clip-rule="evenodd" d="M1215.94 277.469C1218.8 276.689 1215.83 284.369 1217.75 286.519C1214.11 292.619 1216.86 278.919 1215.94 277.469Z" fill="#B6BBBE"></path> <path fill-rule="evenodd" clip-rule="evenodd" d="M1294.01 294.55C1284.37 293.72 1285.48 277.03 1295.01 277.21C1298.69 277.21 1302.26 277.21 1306.01 277.21C1306.01 286.52 1306.17 295.84 1306.01 305.16C1304.38 305.281 1302.75 305.281 1301.12 305.16C1301.25 304.22 1301.87 291.22 1299.12 296.84C1296.55 301.04 1294.41 307.67 1287.97 305.21C1288.48 300.97 1293.11 298.6 1294.06 294.53L1294.01 294.55ZM1295.37 282.55C1288.48 284.24 1295.98 293.27 1300.95 290.23C1300.95 286.03 1302.97 278.77 1295.37 282.57V282.55Z" fill="#B6BBBE"></path> <path fill-rule="evenodd" clip-rule="evenodd" d="M1425.01 305.19C1424.01 298.73 1422.29 283.79 1425.01 277.19C1424.98 286.53 1424.98 295.864 1425.01 305.19Z" fill="#B6BBBE"></path> <path fill-rule="evenodd" clip-rule="evenodd" d="M1473.06 277.36C1479.69 276.89 1486.31 277.36 1492.98 277.26C1492.98 286.57 1492.98 295.88 1492.98 305.2C1491.34 305.315 1489.69 305.315 1488.05 305.2C1487.77 297.55 1488.26 289.9 1487.92 282.27H1478.05C1477.76 289.91 1478.24 297.56 1477.94 305.21C1476.3 305.325 1474.65 305.325 1473.01 305.21C1473 295.91 1472.86 286.64 1473.06 277.36Z" fill="#B6BBBE"></path> <path fill-rule="evenodd" clip-rule="evenodd" d="M1595.99 277.24C1598.91 280.54 1595.29 288.84 1597.9 293.63C1597.96 294.94 1597.36 295.48 1596.07 295.23C1595.77 289.23 1595.99 283.23 1595.99 277.24Z" fill="#B6BBBE"></path> <path fill-rule="evenodd" clip-rule="evenodd" d="M1637.98 294.51C1627.68 293.62 1629.16 275.39 1639.98 277.18C1643.05 277.18 1645.7 277.18 1648.92 277.34C1649.13 286.67 1649.5 296.09 1648.2 305.34C1641.37 307.22 1644.74 298.78 1643.81 294.93C1640.16 299.18 1638.65 307.98 1630.93 305.19C1632.04 301 1636.07 298.33 1637.99 294.48L1637.98 294.51ZM1639.33 282.51C1632.25 283.84 1638.33 293.34 1643.94 290.24C1643.63 286.68 1646.74 278.58 1639.33 282.52V282.51Z" fill="#B6BBBE"></path> <path fill-rule="evenodd" clip-rule="evenodd" d="M516.27 285.86C516.797 286.918 517.267 288.003 517.68 289.11C515.62 293.44 519.17 302.73 515.99 305.19C515.97 298.75 515.94 292.3 516.27 285.86Z" fill="#B6BBBE"></path> <path fill-rule="evenodd" clip-rule="evenodd" d="M1073.86 288.7C1074.51 287.91 1074.56 286.03 1075.95 286.28C1076.27 292.57 1075.95 298.87 1076.02 305.17C1072.76 302.12 1077.17 293.2 1073.86 288.7Z" fill="#B6BBBE"></path> <path fill-rule="evenodd" clip-rule="evenodd" d="M1607.24 287.95C1612.24 286.43 1607.24 301.63 1609.01 305.19C1606.01 301.68 1609.72 293.14 1607.24 287.95Z" fill="#B6BBBE"></path> <path fill-rule="evenodd" clip-rule="evenodd" d="M902 290.3H913V295.25H902V290.3Z" fill="#B6BBBE"></path> <path fill-rule="evenodd" clip-rule="evenodd" d="M833.01 293.24C836.33 294.46 832.58 302.24 834.01 305.19C831.29 303.75 833.6 296.71 833.01 293.24Z" fill="#B6BBBE"></path> <path fill-rule="evenodd" clip-rule="evenodd" d="M1140.96 298.24C1137.39 290.08 1146.79 294.46 1149.96 293.24C1149.85 297.68 1136.88 289.62 1141.96 299.24C1143.19 301.13 1150.61 297.42 1150.96 300.35C1148.06 299.24 1140.29 302.97 1140.96 298.24Z" fill="#B6BBBE"></path> <path fill-rule="evenodd" clip-rule="evenodd" d="M1215.95 305.19C1216.76 302.81 1214.01 289.12 1217.81 295C1217.98 298.495 1217.34 301.982 1215.95 305.19V305.19Z" fill="#B6BBBE"></path> <path fill-rule="evenodd" clip-rule="evenodd" d="M1567.01 293.24C1570.32 294.46 1566.57 302.24 1568.01 305.19C1565.26 303.75 1567.59 296.7 1567.01 293.24Z" fill="#B6BBBE"></path> <path fill-rule="evenodd" clip-rule="evenodd" d="M675.93 305.19C677.8 302.75 672.87 293.87 677.83 294.19C676.45 297.2 678.64 304.05 675.93 305.19Z" fill="#B6BBBE"></path> <path fill-rule="evenodd" clip-rule="evenodd" d="M1350.95 305.191C1352.23 303.901 1348.57 291.02 1352.78 295.03C1352.86 299.3 1352.22 302.661 1350.95 305.191Z" fill="#B6BBBE"></path> <path fill-rule="evenodd" clip-rule="evenodd" d="M1299.07 296.86C1301.8 291.24 1301.18 304.24 1301.07 305.18C1297.63 305.59 1301.38 298.85 1299.07 296.86Z" fill="#B6BBBE"></path> <path fill-rule="evenodd" clip-rule="evenodd" d="M203.3 113.54C207.91 110.87 209.44 103.54 215.97 105.14C216.06 113.81 215.97 122.49 215.97 131.14C190.44 131.14 167.59 153.53 167.97 179.2C159.25 179.2 150.54 179.29 141.83 179.2C142.47 176.2 143.03 172.87 145.74 170.94C165.67 152.28 183.19 131.63 203.32 113.54H203.3ZM141.37 317.65C150.07 311.41 156.37 302.65 165.18 297.01C169.87 302.69 174.4 308.49 179.18 314.01C166.08 315.08 162.27 330.48 151.34 335.71C151.01 338.88 154.83 341.54 153.86 345.3C150.47 341.68 147.86 337.39 144.23 334.01C142.12 331.36 139.95 328.77 137.76 326.19C138.1 323.12 139.02 319.86 141.37 317.65Z" fill="#B6BBBE"></path> <path fill-rule="evenodd" clip-rule="evenodd" d="M20.8604 179.18C28.8604 178.99 36.7804 179.33 44.7404 179.4C52.1004 178.58 57.6204 182.93 63.8204 185.69C63.1904 189.05 57.9904 188.69 56.0704 191.32C52.5272 196.331 48.483 200.968 44.0004 205.16C42.1904 202.92 39.8504 201.07 36.7904 201.27C31.4504 195 25.8704 188.93 20.7404 182.5C19.6004 181.56 20.5504 180.3 20.8604 179.18Z" fill="#B6BBBE"></path> <path fill-rule="evenodd" clip-rule="evenodd" d="M87.1304 202.02C91.9904 207.43 96.7004 213.02 101.13 218.81C101.13 229.03 90.1304 233.52 84.1304 240.29C79.4904 241.21 82.1304 249.05 77.3004 248.21C76.5104 245.42 74.5704 242.79 71.5904 245.21C68.9404 242.41 66.5904 239.32 64.1804 236.36C63.0656 234.116 61.7039 232.002 60.1204 230.06C65.5904 232.69 74.0504 235.96 75.3004 227.48C80.4604 224.25 82.6704 217.32 89.0804 216.11C88.5904 211.37 87.4604 206.74 87.1304 202.02Z" fill="#B6BBBE"></path> <path fill-rule="evenodd" clip-rule="evenodd" d="M84.0704 240.3C90.1204 233.53 101.12 229.04 101.07 218.82C104.61 222.82 107.76 227.08 111.07 231.2C110.73 233.79 112.16 237.39 109.58 238.94C102.09 243.89 95.1604 250.31 91.0804 258.43C88.3104 258.92 85.4804 259.02 85.5904 262.3C81.0004 256.5 76.3204 250.76 71.4704 245.19C74.4704 242.8 76.3904 245.43 77.1804 248.19C82.0604 249.05 79.4304 241.21 84.0704 240.3Z" fill="#B6BBBE"></path> <path fill-rule="evenodd" clip-rule="evenodd" d="M111.13 231.19C115.25 235.93 119.13 240.83 122.93 245.84C121.958 247.093 121.201 248.499 120.69 250C112.35 254.8 107.96 265.3 98.8304 269.72C96.6604 270.05 93.1004 268.05 92.8304 271.11C90.4004 268.19 88.0704 265.21 85.6604 262.29C85.5504 259.01 88.3804 258.91 91.1504 258.42C95.2304 250.3 102.15 243.88 109.65 238.93C112.22 237.38 110.79 233.78 111.13 231.19Z" fill="#B6BBBE"></path> <path fill-rule="evenodd" clip-rule="evenodd" d="M120.69 250C121.201 248.499 121.958 247.093 122.93 245.84C125.74 249.08 128.33 252.5 131.06 255.84C130.59 258.48 130.34 261.21 129.67 263.84C120.59 266.02 114.19 274.91 110.67 283.13C107.4 283.8 104.83 279.48 101.62 281.43C98.4504 278.21 95.7004 274.6 92.8104 271.14C93.0904 268.08 96.6504 270.08 98.8104 269.75C107.96 265.3 112.35 254.8 120.69 250Z" fill="#B6BBBE"></path> <path fill-rule="evenodd" clip-rule="evenodd" d="M129.67 263.81C130.34 261.18 130.59 258.45 131.06 255.81C135.87 261.14 140.57 266.57 144.98 272.24C137.72 268.66 135.09 279.8 129.52 282.74C124.71 287.83 119.79 292.8 113.79 296.46C109.48 291.653 105.421 286.627 101.63 281.4C104.84 279.4 107.41 283.77 110.68 283.1C114.19 274.88 120.59 265.99 129.67 263.81Z" fill="#B6BBBE"></path> <path fill-rule="evenodd" clip-rule="evenodd" d="M129.52 282.74C135.09 279.8 137.72 268.66 144.98 272.24C147.28 275.15 149.64 277.99 151.92 280.92C151.329 282.98 150.566 284.987 149.64 286.92C141.03 294.37 132.21 301.99 125.74 311.43C121.56 306.61 117.95 301.33 113.79 296.49C119.79 292.8 124.71 287.83 129.52 282.74Z" fill="#B6BBBE"></path> <path fill-rule="evenodd" clip-rule="evenodd" d="M149.64 286.89C150.566 284.957 151.329 282.95 151.92 280.89C156.25 286.32 160.71 291.65 165.18 296.98C156.36 302.67 150.07 311.38 141.37 317.62C139.02 319.83 138.1 323.09 137.8 326.21C133.9 321.16 129.93 316.21 125.74 311.37C132.21 301.96 141.03 294.3 149.64 286.89Z" fill="#B6BBBE"></path> <path fill-rule="evenodd" clip-rule="evenodd" d="M151.38 335.76C162.31 330.53 166.12 315.13 179.22 314.06C183.59 319.28 187.6 324.79 192.09 329.9C184.82 330.61 182.69 338.9 178.03 343.28C173.37 347.66 169.9 354.17 163.91 357.28C160.07 356.79 158.06 352.28 155.98 349.49C155.414 348.059 154.718 346.684 153.9 345.38C154.86 341.59 151.05 338.93 151.38 335.76Z" fill="#B6BBBE"></path> <path fill-rule="evenodd" clip-rule="evenodd" d="M144.27 334.06C147.93 337.44 150.51 341.73 153.9 345.35C154.718 346.653 155.414 348.029 155.98 349.46C151.09 345.34 147.18 340.22 143.15 335.3L144.27 334.06Z" fill="#8E9DA6"></path> </g> <defs> <clipPath id="clip0_260_251"> <rect width="1650.07" height="359.49" fill="white"></rect> </clipPath> </defs> </svg> 