<?xml version="1.0" encoding="UTF-8"?> <svg xmlns="http://www.w3.org/2000/svg" width="1474" height="354" viewBox="0 0 1474 354" fill="none"> <path fill-rule="evenodd" clip-rule="evenodd" d="M102.856 66.288L0 133.955L13.6545 171.311C21.1623 191.859 39.1163 240.854 53.5555 280.188L79.806 351.705L208.77 352.784L337.738 353.863L343.856 336.437C347.224 326.854 364.875 277.695 383.083 227.2C409.423 154.135 415.141 134.38 411.078 130.436C404.944 124.474 216.118 2.00064 210.004 0.0145172C207.646 -0.753776 159.432 29.0707 102.856 66.288ZM195.5 75.8549C195.5 78.1025 192.998 79.9415 189.941 79.9415C186.88 79.9415 177.419 84.6657 168.91 90.4402C154.957 99.9049 152.819 100.318 147.126 94.6208C138.891 86.3862 141.834 83.971 167.79 77.6898C195.365 71.0122 195.5 71.004 195.5 75.8549ZM205.39 95.2665C196.881 115.115 196.828 154.785 205.28 177.637C208.937 187.539 211.455 195.876 210.871 196.162C210.282 196.448 190.751 214.021 167.467 235.21C126.945 272.08 124.869 273.392 119.11 265.725C109.976 253.559 113.903 186.93 125.519 156.987C136.545 128.557 163.139 97.6041 185.123 87.6163C210.209 76.2227 213.086 77.3097 205.39 95.2665ZM242.5 84.0282C243.889 86.2759 243.141 88.1149 240.84 88.1149C238.535 88.1149 230.153 93.8239 222.208 100.8C206.816 114.31 203.306 110.534 212.505 90.3503C215.93 82.8308 220.397 79.9415 228.608 79.9415C234.861 79.9415 241.11 81.7805 242.5 84.0282ZM309.452 153.285C314.234 164.405 320.242 186.947 322.796 203.375C328.873 242.472 321.374 270.891 298.855 294.111C276.532 317.128 252.668 326.731 217.978 326.654C185.262 326.584 159.436 316.482 139.937 296.13L128.118 283.793L156.547 258.492C172.183 244.577 209.804 210.666 240.141 183.13C270.479 155.594 296.529 133.068 298.029 133.068C299.529 133.068 304.666 142.165 309.452 153.285Z" fill="#8E9DA6"></path> <path d="M463.568 226.918C463.568 215.351 465.298 205.642 468.758 197.793C471.34 192.009 474.851 186.819 479.292 182.223C483.785 177.627 488.691 174.219 494.01 171.998C501.085 169.003 509.244 167.506 518.488 167.506C535.219 167.506 548.594 172.696 558.612 183.075C568.682 193.455 573.717 207.889 573.717 226.376C573.717 244.708 568.734 259.065 558.767 269.444C548.801 279.772 535.477 284.937 518.798 284.937C501.911 284.937 488.484 279.798 478.518 269.522C468.551 259.194 463.568 244.992 463.568 226.918ZM487.193 226.144C487.193 239.002 490.163 248.762 496.101 255.424C502.04 262.034 509.58 265.339 518.72 265.339C527.86 265.339 535.348 262.06 541.184 255.501C547.071 248.891 550.014 239.002 550.014 225.834C550.014 212.82 547.148 203.112 541.416 196.708C535.736 190.305 528.17 187.103 518.72 187.103C509.27 187.103 501.653 190.357 495.869 196.863C490.085 203.318 487.193 213.079 487.193 226.144ZM664.347 241.249L686.578 248.297C683.17 260.691 677.489 269.909 669.537 275.951C661.636 281.941 651.591 284.937 639.404 284.937C624.325 284.937 611.931 279.798 602.223 269.522C592.515 259.194 587.66 245.096 587.66 227.228C587.66 208.328 592.54 193.662 602.3 183.23C612.061 172.747 624.893 167.506 640.799 167.506C654.69 167.506 665.973 171.611 674.649 179.822C679.813 184.676 683.686 191.648 686.268 200.736L663.572 206.159C662.229 200.272 659.415 195.624 655.129 192.216C650.894 188.807 645.73 187.103 639.637 187.103C631.219 187.103 624.377 190.124 619.109 196.166C613.894 202.208 611.286 211.994 611.286 225.524C611.286 239.88 613.868 250.105 619.032 256.199C624.196 262.292 630.909 265.339 639.172 265.339C645.265 265.339 650.507 263.402 654.896 259.529C659.286 255.656 662.436 249.563 664.347 241.249ZM727.865 283V188.653H694.169V169.442H784.411V188.653H750.793V283H727.865ZM799.284 283V169.442H836.078C850.021 169.442 859.109 170.01 863.344 171.146C869.851 172.85 875.299 176.569 879.688 182.301C884.078 187.981 886.272 195.34 886.272 204.377C886.272 211.349 885.007 217.21 882.477 221.961C879.946 226.712 876.719 230.456 872.794 233.193C868.921 235.878 864.971 237.66 860.943 238.537C855.469 239.622 847.542 240.164 837.162 240.164H822.212V283H799.284ZM822.212 188.653V220.876H834.761C843.798 220.876 849.84 220.282 852.887 219.095C855.934 217.907 858.309 216.048 860.013 213.518C861.769 210.987 862.647 208.044 862.647 204.687C862.647 200.556 861.433 197.147 859.006 194.462C856.579 191.777 853.506 190.098 849.788 189.427C847.051 188.911 841.552 188.653 833.289 188.653H822.212ZM898.279 226.918C898.279 215.351 900.009 205.642 903.469 197.793C906.051 192.009 909.562 186.819 914.003 182.223C918.496 177.627 923.402 174.219 928.721 171.998C935.796 169.003 943.955 167.506 953.199 167.506C969.93 167.506 983.305 172.696 993.323 183.075C1003.39 193.455 1008.43 207.889 1008.43 226.376C1008.43 244.708 1003.45 259.065 993.478 269.444C983.512 279.772 970.188 284.937 953.509 284.937C936.622 284.937 923.195 279.798 913.229 269.522C903.262 259.194 898.279 244.992 898.279 226.918ZM921.904 226.144C921.904 239.002 924.874 248.762 930.812 255.424C936.751 262.034 944.291 265.339 953.431 265.339C962.571 265.339 970.059 262.06 975.895 255.501C981.782 248.891 984.725 239.002 984.725 225.834C984.725 212.82 981.859 203.112 976.127 196.708C970.447 190.305 962.881 187.103 953.431 187.103C943.981 187.103 936.364 190.357 930.58 196.863C924.796 203.318 921.904 213.079 921.904 226.144ZM1026.48 169.442H1071.87C1080.85 169.442 1087.54 169.83 1091.93 170.604C1096.37 171.327 1100.32 172.876 1103.78 175.252C1107.29 177.627 1110.21 180.803 1112.54 184.779C1114.86 188.704 1116.02 193.119 1116.02 198.025C1116.02 203.344 1114.58 208.224 1111.68 212.665C1108.84 217.107 1104.97 220.437 1100.06 222.658C1106.98 224.672 1112.3 228.106 1116.02 232.96C1119.74 237.814 1121.6 243.521 1121.6 250.079C1121.6 255.243 1120.39 260.278 1117.96 265.184C1115.58 270.038 1112.3 273.937 1108.12 276.881C1103.99 279.772 1098.88 281.554 1092.78 282.225C1088.96 282.639 1079.74 282.897 1065.13 283H1026.48V169.442ZM1049.41 188.343V214.602H1064.43C1073.37 214.602 1078.92 214.473 1081.09 214.215C1085.01 213.75 1088.08 212.407 1090.3 210.187C1092.58 207.914 1093.71 204.945 1093.71 201.279C1093.71 197.767 1092.73 194.927 1090.77 192.758C1088.86 190.537 1085.99 189.195 1082.17 188.73C1079.9 188.472 1073.37 188.343 1062.57 188.343H1049.41ZM1049.41 233.502V263.867H1070.63C1078.89 263.867 1084.13 263.635 1086.35 263.17C1089.76 262.55 1092.53 261.053 1094.64 258.677C1096.81 256.25 1097.9 253.023 1097.9 248.995C1097.9 245.586 1097.07 242.694 1095.42 240.319C1093.76 237.944 1091.36 236.214 1088.21 235.129C1085.11 234.045 1078.35 233.502 1067.92 233.502H1049.41ZM1141.12 283V169.442H1164.05V214.137H1208.97V169.442H1231.9V283H1208.97V233.348H1164.05V283H1141.12ZM1358.09 283H1333.14L1323.23 257.205H1277.84L1268.46 283H1244.14L1288.37 169.442H1312.62L1358.09 283ZM1315.87 238.073L1300.22 195.934L1284.89 238.073H1315.87ZM1438.26 283V235.594H1433.61C1426.38 235.594 1421.27 236.678 1418.27 238.847C1415.33 241.016 1410.27 247.497 1403.09 258.29L1386.52 283H1359.09L1372.96 260.846C1378.43 252.067 1382.8 245.922 1386.05 242.41C1389.3 238.847 1393.38 235.671 1398.29 232.883C1387.7 231.23 1380.06 227.564 1375.36 221.883C1370.66 216.151 1368.31 209.309 1368.31 201.356C1368.31 194.436 1370.04 188.317 1373.5 182.998C1377.01 177.627 1381.61 174.038 1387.29 172.231C1393.02 170.372 1401.57 169.442 1412.93 169.442H1461.19V283H1438.26ZM1438.26 188.653H1420.37C1411.28 188.653 1405.29 188.859 1402.39 189.272C1399.55 189.685 1397.1 191.08 1395.04 193.455C1392.97 195.831 1391.94 198.929 1391.94 202.75C1391.94 206.727 1392.92 209.903 1394.88 212.278C1396.9 214.602 1399.43 216.048 1402.47 216.616C1405.57 217.184 1411.85 217.468 1421.3 217.468H1438.26V188.653Z" fill="#8E9DA6"></path> <path d="M472.528 125L499.919 53.6757H510.087L539.279 125H528.527L520.207 103.398H490.383L482.55 125H472.528ZM493.108 95.7113H517.288L509.844 75.9584C507.574 69.958 505.887 65.0279 504.784 61.1681C503.876 65.7414 502.595 70.2823 500.941 74.7908L493.108 95.7113ZM541.712 90.2622C541.712 78.4235 544.89 69.1633 551.247 62.4817C557.605 55.7677 565.811 52.4107 575.865 52.4107C582.45 52.4107 588.385 53.9838 593.672 57.13C598.959 60.2762 602.981 64.6711 605.738 70.3148C608.527 75.926 609.922 82.2995 609.922 89.4351C609.922 96.6681 608.463 103.139 605.543 108.847C602.624 114.556 598.489 118.886 593.137 121.838C587.785 124.757 582.012 126.216 575.817 126.216C569.103 126.216 563.102 124.595 557.815 121.351C552.529 118.108 548.523 113.68 545.798 108.069C543.074 102.458 541.712 96.5222 541.712 90.2622ZM551.442 90.4082C551.442 99.0034 553.745 105.782 558.351 110.745C562.989 115.675 568.795 118.14 575.768 118.14C582.871 118.14 588.71 115.643 593.283 110.648C597.889 105.653 600.192 98.5656 600.192 89.3865C600.192 83.5806 599.202 78.5208 597.224 74.207C595.278 69.8607 592.407 66.5037 588.612 64.1359C584.85 61.7357 580.617 60.5356 575.914 60.5356C569.233 60.5356 563.475 62.8385 558.643 67.4443C553.842 72.0176 551.442 79.6722 551.442 90.4082ZM649.963 53.6757H706.059V125H696.572V62.0925H659.402V125H649.963V53.6757ZM739.629 125V62.0925H716.13V53.6757H772.664V62.0925H749.068V125H739.629ZM782.541 53.6757H791.103V110.161L829.052 53.6757H838.539V125H829.977V68.6606L791.979 125H782.541V53.6757ZM854.06 53.6757H863.498V116.583H900.668V53.6757H910.156V116.583H916.675V144.802H908.307V125H854.06V53.6757ZM927.962 125V53.6757H979.534V62.0925H937.401V83.9374H976.858V92.3056H937.401V116.583H981.188V125H927.962ZM1020.01 62.2385V53.0918H1028.87V62.2385C1037.95 62.725 1045.12 65.4657 1050.37 70.4607C1055.63 75.4233 1058.25 81.6021 1058.25 88.9973C1058.25 96.2302 1055.71 102.377 1050.61 107.437C1045.52 112.496 1038.27 115.286 1028.87 115.805V125H1020.01V115.805C1011.58 115.48 1004.56 112.918 998.946 108.118C993.335 103.285 990.529 96.9114 990.529 88.9973C990.529 81.0507 993.319 74.6935 998.898 69.9255C1004.51 65.1576 1011.55 62.5953 1020.01 62.2385ZM1028.87 70.3148V107.68C1034.97 107.388 1039.77 105.62 1043.27 102.377C1046.77 99.1332 1048.52 94.6734 1048.52 88.9973C1048.52 83.4185 1046.8 79.0073 1043.37 75.7638C1039.93 72.4879 1035.09 70.6715 1028.87 70.3148ZM1020.01 70.3634C1014.14 70.6229 1009.39 72.3582 1005.76 75.5692C1002.12 78.7803 1000.31 83.2563 1000.31 88.9973C1000.31 94.6734 1002.09 99.1332 1005.66 102.377C1009.26 105.62 1014.04 107.372 1020.01 107.631V70.3634ZM1059.96 125L1087.35 53.6757H1097.52L1126.71 125H1115.96L1107.64 103.398H1077.81L1069.98 125H1059.96ZM1080.54 95.7113H1104.72L1097.27 75.9584C1095 69.958 1093.32 65.0279 1092.21 61.1681C1091.3 65.7414 1090.02 70.2823 1088.37 74.7908L1080.54 95.7113ZM1134.69 53.6757H1180.95V62.0925H1144.12V84.0834H1161.15C1167.45 84.0834 1172.44 84.6834 1176.14 85.8835C1179.87 87.0836 1182.85 89.354 1185.09 92.6948C1187.33 96.0032 1188.45 99.863 1188.45 104.274C1188.45 107.874 1187.64 111.248 1186.01 114.394C1184.43 117.508 1182.04 120.054 1178.86 122.032C1175.68 124.011 1170.27 125 1162.61 125H1134.69V53.6757ZM1144.12 116.972H1163C1168.09 116.972 1171.91 115.934 1174.44 113.859C1177 111.783 1178.28 108.669 1178.28 104.517C1178.28 101.566 1177.55 99.1007 1176.09 97.1222C1174.63 95.1437 1172.6 93.8301 1170.01 93.1814C1167.41 92.5327 1162.99 92.2083 1156.73 92.2083H1144.12V116.972ZM1199.64 125V53.6757H1226.54C1231.28 53.6757 1234.89 53.9027 1237.39 54.3568C1240.89 54.9406 1243.83 56.0596 1246.2 57.7138C1248.57 59.3356 1250.46 61.6222 1251.89 64.5738C1253.35 67.5254 1254.08 70.7689 1254.08 74.3043C1254.08 80.3696 1252.15 85.5105 1248.29 89.7271C1244.43 93.9112 1237.46 96.0032 1227.37 96.0032H1209.08V125H1199.64ZM1209.08 87.5863H1227.51C1233.61 87.5863 1237.94 86.4511 1240.51 84.1807C1243.07 81.9102 1244.35 78.7154 1244.35 74.5962C1244.35 71.6122 1243.59 69.066 1242.06 66.9578C1240.57 64.8171 1238.59 63.4061 1236.13 62.725C1234.54 62.3033 1231.6 62.0925 1227.32 62.0925H1209.08V87.5863ZM1266.24 53.6757H1274.81V110.161L1312.75 53.6757H1322.24V125H1313.68V68.6606L1275.68 125H1266.24V53.6757ZM1337.86 53.6757H1347.3V84.9105C1351.61 84.9105 1354.64 84.0834 1356.39 82.4292C1358.15 80.7426 1360.38 76.7207 1363.11 70.3634C1365.09 65.6928 1366.71 62.4007 1367.97 60.487C1369.27 58.5409 1371.1 56.9192 1373.47 55.6218C1375.84 54.2919 1378.45 53.627 1381.3 53.627C1384.94 53.627 1386.85 53.6594 1387.05 53.7243V61.8979C1386.72 61.8979 1386.09 61.8817 1385.15 61.8493C1384.11 61.8168 1383.48 61.8006 1383.25 61.8006C1380.23 61.8006 1378 62.5304 1376.54 63.99C1375.05 65.4495 1373.34 68.5633 1371.43 73.3312C1369.03 79.3641 1367 83.1752 1365.35 84.7645C1363.69 86.3214 1361.71 87.5701 1359.41 88.5107C1364.02 89.7757 1368.56 94.0247 1373.03 101.258L1387.73 125H1376L1364.08 105.636C1360.81 100.285 1358.07 96.6195 1355.86 94.6409C1353.65 92.63 1350.8 91.6245 1347.3 91.6245V125H1337.86V53.6757ZM1387.97 125L1415.36 53.6757H1425.53L1454.72 125H1443.97L1435.65 103.398H1405.83L1397.99 125H1387.97ZM1408.55 95.7113H1432.73L1425.29 75.9584C1423.02 69.958 1421.33 65.0279 1420.23 61.1681C1419.32 65.7414 1418.04 70.2823 1416.38 74.7908L1408.55 95.7113Z" fill="#8E9DA6"></path> </svg> 