<?xml version="1.0" encoding="UTF-8"?> <svg xmlns="http://www.w3.org/2000/svg" width="419" height="90" viewBox="0 0 419 90" fill="none"> <path d="M283.916 44.6259V29.4861H274.81V59.3533H283.257L293.119 44.3432V59.3533H302.227V29.4861H293.779L283.916 44.6259ZM231.418 41.5596C231.418 42.6485 230.867 44.7456 228.086 44.7456H224.858V36.8419H228.479C229.45 36.8419 231.418 37.6341 231.418 39.9631V41.5596ZM229.461 29.4876L215.251 29.4861V59.3533H224.858V52.024H229.461C235.678 52.024 240.764 48.5987 240.764 42.4994V39.0117C240.764 32.915 235.678 29.4876 229.461 29.4876V29.4876ZM365.56 45.2915C365.56 49.8377 364.361 50.5003 362.649 51.2901C361.895 51.6341 359.871 51.5588 359.871 51.5588V59.3533H363.636C371.723 59.3533 374.71 54.6541 374.833 44.1104C374.86 41.7241 374.808 39.3737 374.833 37.2791H380.222V59.3533H389.831V29.4861H365.56V45.2915ZM202.34 49.3092C202.34 51.2866 200.72 52.905 198.742 52.905H197.924C195.945 52.905 194.327 51.2866 194.327 49.3092V39.6235C194.327 37.6456 195.945 36.0262 197.924 36.0262H198.741C200.72 36.0262 202.34 37.6456 202.34 39.6235V49.3092ZM200.687 29H195.979C189.762 29 184.676 33.4275 184.676 40.3006V48.6406C184.676 55.5461 189.762 59.9427 195.979 59.9427H200.687C206.903 59.9427 211.99 55.5017 211.99 48.6406V40.3006C211.99 33.067 206.903 29 200.687 29V29ZM333.871 29.4861H323.477L318.406 40.7788H316.033V29.4861H306.425V59.3533H316.033V48.7398H318.392L323.575 59.3533H334.604L326.459 44.2859L333.871 29.4861ZM345.781 48.0198H356.612V40.9169H345.781V37.2791H357.591V29.4861H336.173V59.3533H358.472V51.5588H345.781V48.0198ZM406.713 51.9976H403.092V45.481H406.321C409.033 45.481 409.653 47.4754 409.653 48.7682C409.653 51.4427 407.447 51.9981 406.713 51.9981V51.9976ZM407.695 38.202H403.092V29.4866H393.485V59.3538H407.695C413.912 59.3538 419 55.9275 419 49.8297V47.7256C419 41.6293 413.912 38.202 407.695 38.202ZM261.002 40.5399H252.804V29.4861H243.197V59.3533H252.805V48.7398H261.002V59.3533H270.61V29.4861H261.002V40.5399ZM171.807 40.5399H163.607V29.4861H154V59.3533H163.607V48.7398H171.807V59.3533H181.415V29.4861H171.807V40.5399Z" fill="#B6BBBE"></path> <path d="M44.8008 59.3784L89.5988 89.5961V30.2177L44.8008 0V59.3784Z" fill="#8E9DA6"></path> <path d="M44.8858 0.00249302C20.0943 0.00249302 0 20.0594 0 44.801C0 69.5427 20.0943 89.5996 44.8858 89.5996V0.00249302ZM89.5976 89.5981C114.339 89.5981 134.396 69.5412 134.396 44.7995C134.396 20.0579 114.339 0 89.5976 0V89.5981Z" fill="#B6BBBE"></path> </svg> 