<?xml version="1.0" encoding="UTF-8"?> <svg xmlns="http://www.w3.org/2000/svg" width="482" height="214" viewBox="0 0 482 214" fill="none"> <g clip-path="url(#clip0_248_134)"> <path d="M261.079 53.4951H328.031L247.696 160.495H180.753L261.079 53.4951Z" fill="#B6BBBE"></path> <path d="M465.311 16.7163C448.524 5.06627e-06 423.424 0 406.682 0H358.484C354.469 0 349.444 7.59941e-06 345.429 4.0197C341.414 8.0394 341.414 13.0419 341.414 17.0527V26.7478H408.357C412.788 26.7478 419.515 26.7478 423.982 31.1748C428.449 35.6017 428.414 42.3219 428.414 46.7754V113.685C428.414 118.112 428.414 124.832 423.982 129.285C419.551 133.739 412.824 133.712 408.357 133.712H376.007C370.423 133.712 363.173 133.712 360.381 127.585C357.589 121.458 361.498 115.881 364.812 111.418L408.321 53.4602H341.379L314.639 89.1682C310.154 95.1357 306.272 100.306 306.272 107C306.272 113.694 309.888 118.51 314.639 124.832L321.33 133.748C328.031 142.664 334.722 151.58 343.647 156.042C352.573 160.504 363.146 160.469 377.682 160.469H406.682C423.424 160.469 448.524 160.469 465.266 143.753C482.009 127.036 482 102.511 482 93.5951V66.8739C482 57.958 482 33.4325 465.266 16.7163H465.311Z" fill="#B6BBBE"></path> <path d="M194.101 89.1684L187.41 80.2436C180.718 71.3366 174.017 62.4118 165.092 57.9582C156.167 53.5047 145.594 53.5313 131.067 53.5313H17.0703C13.0553 53.5313 8.02996 53.5313 4.01499 57.551C2.57801e-05 61.5706 0 66.5377 0 70.5485V80.2436H26.7753V214H80.3348V80.2436H132.769C138.352 80.2436 145.602 80.2436 148.394 86.3794C151.186 92.5152 147.278 98.0843 143.963 102.538L100.419 160.496H167.361L194.101 124.841C198.586 118.865 202.468 113.694 202.468 107.009C202.468 100.324 198.852 95.499 194.101 89.1772V89.1684Z" fill="#B6BBBE"></path> </g> <defs> <clipPath id="clip0_248_134"> <rect width="482" height="214" fill="white"></rect> </clipPath> </defs> </svg> 