<?xml version="1.0" encoding="UTF-8"?> <svg xmlns="http://www.w3.org/2000/svg" width="250" height="78" viewBox="0 0 250 78" fill="none"> <path fill-rule="evenodd" clip-rule="evenodd" d="M90.6695 71.5199C90.6695 68.8399 92.1495 68.5199 92.7895 68.5199C94.1695 68.5199 94.9495 69.6599 94.9495 71.5199C94.9495 73.7799 93.8495 74.5199 92.8595 74.5199C91.8695 74.5199 90.6695 73.7799 90.6695 71.5899V71.5199ZM89.5195 67.9099V77.5799H90.7495V73.9799C90.9882 74.3833 91.3296 74.7161 91.739 74.9445C92.1483 75.1729 92.6109 75.2886 93.0795 75.2799C94.6995 75.2799 96.2495 74.2099 96.2495 71.4499C96.2495 68.6899 94.7995 67.6299 93.0595 67.6299C92.5932 67.6175 92.1316 67.7261 91.7198 67.9452C91.3079 68.1642 90.9599 68.4863 90.7095 68.8799V68.8799V67.8799L89.5195 67.9099Z" fill="#B6BBBE"></path> <path fill-rule="evenodd" clip-rule="evenodd" d="M102.3 76.6902C102.501 76.7316 102.705 76.7583 102.91 76.7701C103.63 76.7701 103.81 76.2101 104.02 75.5701L104.19 75.0402L101.12 67.9102H102.59L104.86 73.6401L106.74 67.9102H108L105.15 75.9102C104.92 76.6002 104.65 77.7101 103.3 77.7101C102.965 77.7169 102.631 77.6935 102.3 77.6401V76.7302V76.6902Z" fill="#B6BBBE"></path> <path fill-rule="evenodd" clip-rule="evenodd" d="M114.38 75.0402H113.15V67.9502H119.2V75.0402H117.97V68.8102H114.38V75.0402Z" fill="#B6BBBE"></path> <path fill-rule="evenodd" clip-rule="evenodd" d="M126.6 75.0402H125.38V67.9502H131.42V75.0402H130.2V68.8102H126.6V75.0402Z" fill="#B6BBBE"></path> <path fill-rule="evenodd" clip-rule="evenodd" d="M80.2298 75.0402H79.0098V67.9502H83.8198V68.8102H80.2298V75.0402Z" fill="#B6BBBE"></path> <path fill-rule="evenodd" clip-rule="evenodd" d="M142 72.0096C141.9 74.0096 140.77 74.4496 139.8 74.4496C139.622 74.464 139.443 74.4403 139.275 74.3802C139.107 74.3202 138.953 74.2251 138.825 74.1012C138.696 73.9773 138.595 73.8276 138.529 73.6618C138.463 73.496 138.432 73.318 138.44 73.1396C138.44 72.0096 139.37 71.9196 140.44 71.7596C141.23 71.6396 141.63 71.6997 142 71.4097V72.0096V72.0096ZM138.59 70.0096C138.59 68.5296 139.99 68.4997 140.43 68.4997C142 68.4997 142.02 69.5997 142.02 69.9197C142.02 70.8497 141.67 70.8197 140.64 70.9197C137.79 71.1697 137.17 71.9197 137.17 73.1697C137.17 74.6597 138.17 75.3097 139.66 75.3097C140.141 75.3407 140.622 75.2397 141.05 75.0177C141.478 74.7957 141.838 74.461 142.09 74.0497C142.23 74.9697 142.68 75.0497 143.36 75.0497C143.546 75.0742 143.734 75.0742 143.92 75.0497V74.1797C143.18 74.1797 143.17 73.8997 143.18 73.3397L143.25 70.0597C143.25 67.9797 141.58 67.6797 140.43 67.6797C137.93 67.6797 137.43 69.1097 137.43 70.0497L138.59 70.0096Z" fill="#B6BBBE"></path> <path fill-rule="evenodd" clip-rule="evenodd" d="M161.18 67.9502H162.62L159.29 71.2402L162.8 75.0402H161.33L158.15 71.4902V75.0402H156.92V67.9502H158.15V71.0402L161.18 67.9502Z" fill="#B6BBBE"></path> <path fill-rule="evenodd" clip-rule="evenodd" d="M168.82 71.4802C168.82 68.6502 170.46 68.4802 171.01 68.4802C171.56 68.4802 173.2 68.6302 173.2 71.4802C173.2 74.3302 171.55 74.4802 171.01 74.4802C170.47 74.4802 168.82 74.3402 168.82 71.4802ZM167.52 71.4802C167.52 73.3702 168.42 75.3102 171.01 75.3102C173.6 75.3102 174.5 73.3702 174.5 71.4802C174.5 69.5902 173.59 67.6602 171.01 67.6602C168.43 67.6602 167.52 69.5902 167.52 71.4802Z" fill="#B6BBBE"></path> <path fill-rule="evenodd" clip-rule="evenodd" d="M181.5 69.3402H181.47L181.5 69.7202V75.0402H180.27V67.9502H181.96L184.38 73.7102L186.79 67.9502H188.48V75.0402H187.25V69.7202L187.29 69.3402H187.25L184.85 75.0402H183.9L181.5 69.3402Z" fill="#B6BBBE"></path> <path fill-rule="evenodd" clip-rule="evenodd" d="M195.89 75.0402H194.66V67.9502H200.71V75.0402H199.48V68.8102H195.89V75.0402Z" fill="#B6BBBE"></path> <path fill-rule="evenodd" clip-rule="evenodd" d="M211.23 72.0096C211.13 74.0096 210 74.4496 209.04 74.4496C208.862 74.4655 208.681 74.443 208.512 74.3836C208.343 74.3242 208.188 74.2293 208.058 74.1053C207.929 73.9813 207.827 73.8309 207.76 73.6644C207.693 73.4978 207.663 73.3189 207.67 73.1396C207.67 72.0096 208.61 71.9196 209.67 71.7596C210.45 71.6396 210.85 71.6997 211.23 71.4097V72.0096V72.0096ZM207.82 70.0096C207.82 68.5296 209.22 68.4997 209.67 68.4997C211.23 68.4997 211.26 69.5997 211.26 69.9197C211.26 70.8497 210.91 70.8197 209.88 70.9197C207.03 71.1697 206.4 71.9197 206.4 73.1697C206.4 74.6597 207.4 75.3097 208.9 75.3097C209.381 75.3385 209.861 75.2366 210.289 75.0148C210.717 74.7929 211.077 74.4595 211.33 74.0497C211.47 74.9697 211.92 75.0497 212.6 75.0497C212.786 75.0738 212.974 75.0738 213.16 75.0497V74.1797C212.42 74.1797 212.41 73.8997 212.42 73.3397L212.49 70.0597C212.49 67.9797 210.81 67.6797 209.67 67.6797C207.17 67.6797 206.67 69.1097 206.67 70.0497L207.82 70.0096Z" fill="#B6BBBE"></path> <path fill-rule="evenodd" clip-rule="evenodd" d="M220.01 75.0402H218.78V67.9502H220.01V70.8602H223.51V67.9502H224.74V75.0402H223.51V71.7302H220.01V75.0402Z" fill="#B6BBBE"></path> <path fill-rule="evenodd" clip-rule="evenodd" d="M235.85 67.9502H237.22V75.0402H236V69.3702L232.31 75.0402H230.92V67.9502H232.15V73.6002L235.85 67.9502Z" fill="#B6BBBE"></path> <path fill-rule="evenodd" clip-rule="evenodd" d="M247.87 65.2705C247.87 65.9605 247.25 66.3705 246.52 66.3705C246.31 66.3758 246.1 66.3454 245.9 66.2805C245.712 66.2123 245.544 66.099 245.41 65.9505C245.323 65.861 245.256 65.7542 245.213 65.6371C245.17 65.5199 245.152 65.395 245.16 65.2705H244.16C244.18 65.3972 244.213 65.5213 244.26 65.6405C244.416 66.1128 244.73 66.517 245.149 66.7849C245.568 67.0527 246.066 67.1677 246.56 67.1105C246.745 67.1088 246.929 67.0921 247.11 67.0605C247.575 67.0131 248.01 66.8108 248.346 66.4861C248.681 66.1614 248.898 65.7332 248.96 65.2705H247.87ZM244.63 73.6005V67.9105H243.4V75.0005H244.79L248.47 69.3305V75.0005H249.7V67.9105H248.33L244.63 73.5605V73.6005Z" fill="#B6BBBE"></path> <path fill-rule="evenodd" clip-rule="evenodd" d="M87.4 7.84033C90.72 7.60033 92.54 8.00034 92.54 13.2203V26.6003C92.31 29.2103 89.85 29.1303 87.4 29.1303V7.84033ZM87.4 57.4703V35.9103C96.34 36.3903 101.01 33.5303 100.93 24.3503V12.1104C101.17 4.59035 97.06 1.11035 87.79 1.11035H79V57.4703H87.4Z" fill="#B6BBBE"></path> <path fill-rule="evenodd" clip-rule="evenodd" d="M109.76 1.11035C109.76 1.11035 113.65 19.1104 114.35 25.1104H114.51C114.75 20.6704 118.94 1.11035 118.94 1.11035H126.78L113.17 57.4703H105.17L110.17 36.4103L101.17 1.11035H109.76Z" fill="#B6BBBE"></path> <path fill-rule="evenodd" clip-rule="evenodd" d="M141.05 21.9102V10.4502C141.05 7.6002 140.18 6.97021 138.52 6.97021C136.86 6.97021 135.91 7.6002 135.91 10.4502V48.6002C135.91 51.4602 136.77 52.0902 138.52 52.0902C140.27 52.0902 141.05 51.4602 141.05 48.6002V36.4102H149.44V49.3202C149.44 56.6802 143.66 58.8202 138.44 58.8202C133.22 58.8202 127.51 56.6802 127.51 49.3202V9.74023C127.51 2.37023 133.29 0.240234 138.44 0.240234C143.59 0.240234 149.44 2.37023 149.44 9.74023V21.9102H141.05Z" fill="#B6BBBE"></path> <path fill-rule="evenodd" clip-rule="evenodd" d="M162.11 34.8303L164.17 11.4003H164.72L166.46 34.8303H162.11ZM151.89 57.4703H159.49L161.32 42.1904H167.26L168.84 57.4703H177.31L170.9 1.11035H158.31L151.89 57.4703V57.4703Z" fill="#B6BBBE"></path> <path fill-rule="evenodd" clip-rule="evenodd" d="M180.94 57.4704V1.11035H199.63V8.47035H189.33V57.4704H180.94Z" fill="#B6BBBE"></path> <path fill-rule="evenodd" clip-rule="evenodd" d="M211.18 7.84033C214.51 7.60033 216.33 8.00034 216.33 13.2203V26.6003C216.09 29.2103 213.63 29.1303 211.18 29.1303V7.84033ZM211.18 57.4703V35.9103C220.12 36.3903 224.8 33.5303 224.72 24.3503V12.1104C224.95 4.59035 220.84 1.11035 211.58 1.11035H202.79V57.4703H211.18Z" fill="#B6BBBE"></path> <path fill-rule="evenodd" clip-rule="evenodd" d="M236.21 10.21C236.21 7.35996 237.08 6.72998 238.82 6.72998C240.56 6.72998 241.36 7.35996 241.36 10.21V48.37C241.36 51.22 240.49 51.85 238.82 51.85C237.15 51.85 236.21 51.22 236.21 48.37V10.21ZM227.82 49.08C227.82 56.44 233.6 58.58 238.74 58.58C243.88 58.58 249.74 56.44 249.74 49.08V9.5C249.74 2.13 243.96 0 238.74 0C233.52 0 227.82 2.13 227.82 9.5V49.08V49.08Z" fill="#B6BBBE"></path> <path fill-rule="evenodd" clip-rule="evenodd" d="M23.7197 75.0098H27.8497L27.9297 67.2598C26.3769 69.759 24.9712 72.3468 23.7197 75.0098Z" fill="#B6BBBE"></path> <path fill-rule="evenodd" clip-rule="evenodd" d="M27.9296 26.0098C23.1426 31.5999 19.006 37.7158 15.5996 44.2398H20.0096C22.3134 40.308 24.964 36.5898 27.9296 33.1298V26.0098V26.0098Z" fill="#B6BBBE"></path> <path fill-rule="evenodd" clip-rule="evenodd" d="M27.9296 38.2598C27.1096 39.3498 24.3896 43.2098 23.8496 44.2598H27.8496C27.9196 44.1698 27.9296 38.2598 27.9296 38.2598Z" fill="#B6BBBE"></path> <path fill-rule="evenodd" clip-rule="evenodd" d="M27.93 15.8193H0V44.2493H12.43C16.6693 36.5583 21.8785 29.4435 27.93 23.0793V15.8193Z" fill="#B6BBBE"></path> <path fill-rule="evenodd" clip-rule="evenodd" d="M4.40033 75.0098H6.88037C9.45761 65.2225 13.2929 55.8108 18.2903 47.0098H14.1204C9.12036 56.0098 6.36035 65.5698 4.36035 75.0098H4.40033Z" fill="#B6BBBE"></path> <path fill-rule="evenodd" clip-rule="evenodd" d="M10.29 75.0098H13.17C16.17 65.9098 20.0501 55.8898 26.3801 47.0098H22.1301C16.4501 56.0098 13.01 66.0098 10.29 75.0098Z" fill="#B6BBBE"></path> <path fill-rule="evenodd" clip-rule="evenodd" d="M0 75.0098H0.389954C1.38995 68.6298 5.73995 56.0098 10.89 47.0098H0V75.0098Z" fill="#B6BBBE"></path> <path fill-rule="evenodd" clip-rule="evenodd" d="M16.2197 75.0097H20.4197C22.6712 69.9623 25.1778 65.0326 27.9297 60.2397V50.9297C22.5397 58.6797 19.1097 67.7997 16.2197 75.0097Z" fill="#B6BBBE"></path> <path fill-rule="evenodd" clip-rule="evenodd" d="M48.9897 12.87L47.9297 12.47C46.0297 13.93 43.7697 15.75 43.7697 15.75H40.3397C43.9497 11.49 52.0797 5.44001 56.4397 2.39001L55.5096 2C47.2996 7.45 38.5097 13.51 30.6797 22.89V29.78C35.8497 23.53 42.3297 18.09 48.9897 12.87V12.87Z" fill="#B6BBBE"></path> <path fill-rule="evenodd" clip-rule="evenodd" d="M60.6097 13.0795L59.3896 12.7695C57.8228 13.6243 56.3426 14.629 54.9697 15.7695H51.8097C52.9797 14.3095 58.6097 10.7695 58.6097 10.7695L57.3697 10.2295C47.1681 16.7889 38.145 25.0209 30.6797 34.5795V40.8195C38.8367 29.7851 48.9884 20.3762 60.6097 13.0795V13.0795Z" fill="#B6BBBE"></path> <path fill-rule="evenodd" clip-rule="evenodd" d="M39.1697 12.8096L37.9897 12.3096C37.9897 12.3096 35.2097 14.4896 33.7497 15.8196H30.6797V20.2796C33.2636 17.5231 36.1067 15.0216 39.1697 12.8096V12.8096Z" fill="#B6BBBE"></path> <path fill-rule="evenodd" clip-rule="evenodd" d="M62.0505 25.1895L61.2205 24.1295L58.5505 26.1295V21.2595C59.6705 20.3495 62.2004 18.4495 64.2004 17.1395L62.8904 16.5195C51.4604 23.8695 39.6905 34.1895 32.7305 44.2595H39.8904C46.8904 35.9795 54.3405 30.3795 62.0505 25.1995V25.1895Z" fill="#B6BBBE"></path> <path fill-rule="evenodd" clip-rule="evenodd" d="M63.5904 33.0102C62.1104 33.8902 60.0204 35.6302 58.6804 36.6202L58.6104 34.4602C58.6104 34.4602 62.8304 31.2902 65.4104 29.7002L64.8204 28.7002C57.8835 33.2801 51.3827 38.4887 45.4004 44.2602H52.1704C56.3204 40.4502 59.6104 37.0302 63.8804 34.0602L63.5904 33.0102Z" fill="#B6BBBE"></path> <path fill-rule="evenodd" clip-rule="evenodd" d="M62.72 40.18L61.79 39.25C60.12 40.85 58.13 42.74 56.5 44.25H58.8C59.9534 42.7536 61.268 41.3888 62.72 40.18V40.18Z" fill="#B6BBBE"></path> <path fill-rule="evenodd" clip-rule="evenodd" d="M30.6602 47.0102V55.9502C32.7632 52.7779 35.1032 49.7693 37.6602 46.9502L30.6602 47.0102Z" fill="#B6BBBE"></path> <path fill-rule="evenodd" clip-rule="evenodd" d="M30.6802 62.64V74.84C35.0102 65.69 41.9602 54.67 49.6802 47H42.9402C38.4323 51.8741 34.3256 57.1044 30.6602 62.64H30.6802Z" fill="#B6BBBE"></path> <path fill-rule="evenodd" clip-rule="evenodd" d="M54.0396 47.0102C46.0396 56.0102 39.2396 65.0902 35.0996 75.0102H58.6096V47.0102C58.6096 46.9302 54.0396 47.0102 54.0396 47.0102V47.0102Z" fill="#B6BBBE"></path> </svg> 