<?xml version="1.0" encoding="UTF-8"?> <svg xmlns="http://www.w3.org/2000/svg" width="441" height="75" viewBox="0 0 441 75" fill="none"> <g clip-path="url(#clip0_249_155)"> <path fill-rule="evenodd" clip-rule="evenodd" d="M59.53 74.41L74.41 59.53V4.48L59.53 19.36V52.08H54.08L40.38 33.25V52.08H34.03V28.25H25.52V53.37L4.48 74.41H59.53ZM0 69.93V14.88L14.88 0H69.93L53.19 16.73V41.16L39.48 22.32H10.58V28.25H19.1V50.82L0 69.93Z" fill="#B6BBBE"></path> <path fill-rule="evenodd" clip-rule="evenodd" d="M98.22 29.5503H89.29V22.3203H115.39V29.5503H106.47V52.0803H98.22V29.5503Z" fill="#B6BBBE"></path> <path fill-rule="evenodd" clip-rule="evenodd" d="M119.73 22.3203H143.67V29.3403H127.89V33.8503H142.18V40.3503H127.89V45.0703H143.88V52.0903H119.73V22.3203Z" fill="#B6BBBE"></path> <path fill-rule="evenodd" clip-rule="evenodd" d="M157.46 36.9503L147.68 22.3203H157.16L162.43 30.7003L167.75 22.3203H177.02L167.24 36.8603L177.44 52.0803H167.97L162.26 43.1103L156.53 52.0803H147.26L157.46 36.9503Z" fill="#B6BBBE"></path> <path fill-rule="evenodd" clip-rule="evenodd" d="M181.35 22.3203H189.59V33.4703H200.18V22.3203H208.43V52.0803H200.18V40.7703H189.59V52.0803H181.35V22.3203Z" fill="#B6BBBE"></path> <path fill-rule="evenodd" clip-rule="evenodd" d="M213.38 37.2104C213.38 28.6604 220.27 21.7305 229.45 21.7305C238.63 21.7305 245.45 28.5804 245.45 37.2104C245.45 45.8404 238.56 52.6805 229.38 52.6805C220.2 52.6805 213.38 45.8404 213.38 37.2104ZM237.02 37.2104C237.056 36.1795 236.885 35.1518 236.518 34.1879C236.151 33.224 235.594 32.3433 234.881 31.5977C234.168 30.8522 233.314 30.2569 232.367 29.8469C231.42 29.4369 230.401 29.2205 229.37 29.2104C224.86 29.2104 221.84 32.8704 221.84 37.2104C221.804 38.238 221.973 39.2625 222.338 40.2238C222.703 41.1851 223.256 42.064 223.964 42.809C224.673 43.554 225.523 44.1502 226.465 44.5625C227.407 44.9748 228.422 45.1951 229.45 45.2104C234 45.2404 237.02 41.5604 237.02 37.2104V37.2104Z" fill="#B6BBBE"></path> <path fill-rule="evenodd" clip-rule="evenodd" d="M250.43 22.3203H258.69V33.4703H269.27V22.3203H277.52V52.0803H269.27V40.7703H258.69V52.0803H250.43V22.3203Z" fill="#B6BBBE"></path> <path fill-rule="evenodd" clip-rule="evenodd" d="M283.94 22.3203H292.1V39.0703L303.63 22.3203H311.32V52.0803H303.16V35.3403L291.63 52.0803H283.94V22.3203Z" fill="#B6BBBE"></path> <path fill-rule="evenodd" clip-rule="evenodd" d="M317.74 22.3203H325.99V34.4003L336.23 22.3203H346.02L334.75 35.1203L346.39 52.0903H336.49L329.01 41.0303L325.99 44.3903V52.0903H317.74V22.3203Z" fill="#B6BBBE"></path> <path fill-rule="evenodd" clip-rule="evenodd" d="M346.46 37.2104C346.46 28.6604 353.34 21.7305 362.52 21.7305C371.7 21.7305 378.52 28.5804 378.52 37.2104C378.52 45.8404 371.63 52.6805 362.44 52.6805C353.25 52.6805 346.44 45.8404 346.44 37.2104H346.46ZM370.09 37.2104C370.127 36.1795 369.956 35.1518 369.589 34.1879C369.221 33.224 368.665 32.3433 367.952 31.5977C367.239 30.8522 366.384 30.2569 365.438 29.8469C364.491 29.4369 363.472 29.2205 362.44 29.2104C357.94 29.2104 354.92 32.8704 354.92 37.2104C354.92 41.5504 358.02 45.2104 362.52 45.2104C367.02 45.2104 370.09 41.5604 370.09 37.2104Z" fill="#B6BBBE"></path> <path fill-rule="evenodd" clip-rule="evenodd" d="M415.37 22.3301H423.61V31.6801H428.12C435.27 31.6801 440.5 35.0801 440.5 41.8001C440.5 48.2201 435.82 52.0901 428.55 52.0901H415.37V22.3301ZM427.91 45.1601C430.63 45.1601 432.25 43.9301 432.25 41.5901C432.25 39.5001 430.63 38.1501 427.95 38.1501H423.61V45.1501L427.91 45.1601Z" fill="#B6BBBE"></path> <path fill-rule="evenodd" clip-rule="evenodd" d="M385.86 22.3301V35.3801C385.86 38.4701 385.55 42.9301 383.51 44.5101C382.481 45.2703 381.257 45.7244 379.98 45.8201V52.8201H380.76C383.302 52.7667 385.794 52.1085 388.03 50.9001C393.03 47.7401 393.62 41.7301 393.62 34.9001V29.5601H400.74V52.0901H408.99V22.3301H385.86Z" fill="#B6BBBE"></path> </g> <defs> <clipPath id="clip0_249_155"> <rect width="440.5" height="74.41" fill="white"></rect> </clipPath> </defs> </svg> 