<?xml version="1.0" encoding="UTF-8"?> <svg xmlns="http://www.w3.org/2000/svg" width="275" height="204" viewBox="0 0 275 204" fill="none"> <path fill-rule="evenodd" clip-rule="evenodd" d="M137.366 2.638C135.67 4.446 134.227 5.109 132.777 4.745C130.322 4.129 128.521 5.397 125.426 9.921C122.895 13.621 123.058 13.733 127.977 11.678C129.943 10.856 132.002 10.462 132.552 10.803C133.102 11.143 135.229 10.867 137.279 10.191C140.583 9.1 141.488 9.206 145.247 11.124C147.58 12.314 149.977 13.125 150.574 12.926C151.17 12.727 148.999 9.737 145.749 6.282L139.839 0L137.366 2.638ZM70.346 3.921C70.35 4.333 71.812 5.665 73.596 6.88C75.38 8.096 79.089 11.382 81.839 14.184L86.839 19.279L82.339 17.247C72.29 12.709 57.625 16.163 53.397 24.063C52.575 25.598 53.227 25.671 61.169 24.932C71.272 23.993 80.438 24.759 83.021 26.759C84.751 28.099 84.714 28.278 82.25 30.482C80.826 31.756 73.176 35.201 65.25 38.137C50.142 43.735 39.838 48.522 29.898 54.561C23.901 58.205 19.761 59.003 16.343 57.173C14.965 56.436 14.068 56.584 12.91 57.743C10.277 60.376 9.974 64.034 11.324 76.901C13.665 99.226 11.159 112.164 3.756 115.961L0 117.888L4.901 120.76C8.612 122.935 11.382 123.719 16.32 123.991C25.915 124.52 32.623 121.725 39.356 114.394C51.319 101.368 52.68 100.187 58.021 98.189C60.987 97.079 63.96 96.168 64.627 96.165C67.148 96.154 73.339 94.04 73.339 93.191C73.339 92.704 72.552 92.056 71.589 91.75C68.629 90.809 61.134 82.892 59.208 78.671C56.997 73.825 56.829 67.328 58.792 62.628C60.86 57.68 69.214 49.189 81.015 40.042C86.612 35.704 94.712 28.393 99.015 23.796C103.318 19.199 108.131 14.615 109.71 13.61C112.305 11.958 112.402 11.712 110.71 11.047C105.414 8.966 97.463 11.408 95.499 15.719C94.079 18.835 92.725 18.846 91.948 15.748C91.014 12.029 86.364 7.087 81.88 5.051C77.862 3.226 70.333 2.488 70.346 3.921ZM192.798 5.051C188.314 7.087 183.664 12.029 182.73 15.748C181.953 18.846 180.599 18.835 179.179 15.719C177.215 11.408 169.264 8.966 163.968 11.047C162.276 11.712 162.373 11.958 164.968 13.61C166.547 14.615 171.36 19.199 175.663 23.796C179.966 28.393 188.066 35.704 193.663 40.042C205.464 49.189 213.818 57.68 215.886 62.628C217.849 67.328 217.681 73.825 215.47 78.671C213.544 82.892 206.049 90.809 203.089 91.75C202.126 92.056 201.339 92.704 201.339 93.191C201.339 94.04 207.53 96.154 210.051 96.165C210.718 96.168 213.691 97.079 216.657 98.189C221.998 100.187 223.359 101.368 235.322 114.394C242.055 121.725 248.763 124.52 258.358 123.991C263.296 123.719 266.066 122.935 269.777 120.76L274.678 117.888L271.112 116.059C263.574 112.191 261.01 99.251 263.354 76.901C264.704 64.034 264.401 60.376 261.768 57.743C260.61 56.584 259.713 56.436 258.335 57.173C254.917 59.003 250.777 58.205 244.78 54.561C234.84 48.522 224.536 43.735 209.428 38.137C201.502 35.201 193.852 31.756 192.428 30.482C189.964 28.278 189.927 28.099 191.657 26.759C194.24 24.759 203.406 23.993 213.509 24.932C221.451 25.671 222.103 25.598 221.281 24.063C217.053 16.163 202.388 12.709 192.339 17.247L187.839 19.279L192.839 14.184C195.589 11.382 199.298 8.096 201.082 6.88C202.866 5.665 204.328 4.333 204.332 3.921C204.345 2.488 196.816 3.226 192.798 5.051ZM125.224 15.144C116.548 16.24 114.27 17.562 105.339 26.687C101.214 30.902 94.014 37.31 89.339 40.929C67.996 57.448 63.881 64.935 69.42 77.171C72.09 83.07 75.707 86.78 81.839 89.91C91.617 94.901 107.756 92.324 115.83 84.483C120.651 79.8 122.339 75.64 122.339 68.435C122.339 57.657 115.641 51.792 103.339 51.799C92.201 51.806 83.355 57.625 83.343 64.953C83.327 74.373 93.854 80.203 101.957 75.262C107.636 71.799 107.226 64.171 101.361 64.171C99.494 64.171 97.898 64.962 96.905 66.38C95.03 69.058 92.991 67.658 93.504 64.046C94.211 59.071 102.99 58.265 107.811 62.733C109.722 64.504 110.339 66.075 110.339 69.173C110.339 74.965 108.095 78.626 103.051 81.069C92.394 86.227 80.575 81.004 77.807 69.914C76.523 64.769 78.193 60.222 83.211 55.204C87.089 51.326 89.484 49.959 96.394 47.678C110.828 42.914 120.101 37.456 130.089 27.844L134.339 23.755L134.333 26.713C134.317 35.561 129.16 43.033 120.396 46.909L114.951 49.318L118.895 51.101C126.792 54.672 131.253 61.129 132.073 70.176C132.569 75.644 132.471 75.941 129.462 78.084C123.318 82.458 122.606 87.946 126.832 98.346C128.211 101.739 129.338 104.551 129.337 104.593C129.336 104.636 122.848 104.786 114.92 104.926L100.506 105.182L95.849 101.627L91.191 98.072L87.264 101.62L83.336 105.169L71.087 105.01C57.493 104.834 54.66 105.552 49.504 110.482C46.068 113.767 42.819 118.985 43.676 119.842C43.943 120.108 46.564 118.668 49.5 116.64C57.214 111.313 58.576 110.975 71.86 111.088C82.042 111.174 84.481 110.883 87.808 109.187L91.735 107.184L96.112 109.303C99.99 111.18 101.757 111.369 111.616 110.963C124.59 110.429 130.184 111.257 134.339 114.329L137.339 116.547L140.339 114.329C144.494 111.257 150.088 110.429 163.062 110.963C172.921 111.369 174.688 111.18 178.566 109.303L182.943 107.184L186.87 109.187C190.197 110.883 192.636 111.174 202.818 111.088C216.102 110.975 217.464 111.313 225.178 116.64C228.114 118.668 230.735 120.108 231.002 119.842C231.859 118.985 228.61 113.767 225.174 110.482C220.018 105.552 217.185 104.834 203.591 105.01L191.342 105.169L187.414 101.62L183.487 98.072L178.829 101.627L174.172 105.182L159.758 104.926C151.83 104.786 145.342 104.636 145.341 104.593C145.34 104.551 146.467 101.739 147.846 98.346C152.072 87.945 151.36 82.458 145.215 78.083C142.166 75.912 142.103 75.707 142.7 69.988C143.663 60.775 147.893 54.669 155.783 51.101L159.727 49.318L154.282 46.909C145.518 43.033 140.361 35.561 140.345 26.713L140.339 23.755L144.589 27.844C154.577 37.456 163.85 42.914 178.284 47.678C191.724 52.114 199.109 60.949 196.871 69.914C194.103 81.004 182.284 86.227 171.627 81.069C166.583 78.626 164.339 74.965 164.339 69.173C164.339 66.075 164.956 64.504 166.867 62.733C171.688 58.265 180.467 59.071 181.174 64.046C181.687 67.658 179.648 69.058 177.773 66.38C176.78 64.962 175.184 64.171 173.317 64.171C167.452 64.171 167.042 71.799 172.721 75.262C180.824 80.203 191.351 74.373 191.335 64.953C191.323 57.625 182.477 51.806 171.339 51.799C159.037 51.792 152.339 57.657 152.339 68.435C152.339 75.64 154.027 79.8 158.848 84.483C166.922 92.324 183.061 94.901 192.839 89.91C198.971 86.78 202.588 83.07 205.258 77.171C210.633 65.297 206.164 56.681 187.339 42.626C183.764 39.956 176.095 33.18 170.296 27.566C162.408 19.93 158.757 17.096 155.796 16.312C150.15 14.817 133.001 14.162 125.224 15.144ZM140.57 46.248L143.647 49.325L140.493 52.479L137.339 55.633L134.193 52.486L131.047 49.34L133.943 46.304C135.536 44.634 136.986 43.246 137.166 43.219C137.346 43.193 138.877 44.556 140.57 46.248ZM51.339 53.517C51.339 53.708 50.573 55.395 49.638 57.267C48.702 59.139 47.749 63.237 47.521 66.373C47.168 71.215 47.571 73.025 50.189 78.373C51.885 81.837 53.994 85.648 54.876 86.843C56.429 88.947 56.344 89.078 52.159 91.002C46.734 93.498 44.066 95.851 36.401 104.902C33.033 108.879 29.35 112.63 28.217 113.236C26.315 114.254 26.356 113.999 28.748 109.917C31.299 105.563 32.241 98.847 30.455 97.743C29.969 97.442 29.057 98.439 28.428 99.957C27.799 101.475 25.526 104.732 23.376 107.194L19.468 111.671L20.906 107.401C21.696 105.052 23.027 98.527 23.862 92.901C26.403 75.797 30.112 67.691 38.455 61.018C44.644 56.067 51.339 52.169 51.339 53.517ZM228.032 55.345C238.193 61.147 244.684 68.614 247.785 78.066C248.616 80.599 249.98 87.274 250.816 92.901C251.651 98.527 252.982 105.052 253.772 107.401L255.21 111.671L251.302 107.194C249.152 104.732 246.879 101.475 246.25 99.957C245.621 98.439 244.709 97.442 244.223 97.743C242.437 98.847 243.379 105.563 245.93 109.917C248.322 113.999 248.363 114.254 246.461 113.236C245.328 112.63 241.645 108.879 238.277 104.902C230.612 95.851 227.944 93.498 222.519 91.002C218.334 89.078 218.249 88.947 219.802 86.843C220.684 85.648 222.793 81.837 224.489 78.373C227.107 73.025 227.51 71.215 227.157 66.373C226.929 63.237 225.976 59.139 225.04 57.267C222.538 52.262 222.582 52.233 228.032 55.345ZM142.139 86.371C142.799 87.031 143.339 88.961 143.339 90.659C143.339 94.521 139.323 102.671 137.42 102.671C135.467 102.671 131.339 94.554 131.339 90.714C131.339 88.985 131.879 87.031 132.539 86.371C134.091 84.819 140.587 84.819 142.139 86.371ZM43.339 129.171C43.339 131.921 43.789 134.171 44.339 134.171C44.889 134.171 45.339 132.371 45.339 130.171C45.339 126.838 45.672 126.171 47.339 126.171C48.439 126.171 49.339 125.721 49.339 125.171C49.339 124.621 47.989 124.171 46.339 124.171C43.406 124.171 43.339 124.282 43.339 129.171ZM147.916 125.296C148.214 125.777 149.079 126.171 149.839 126.171C150.599 126.171 151.464 125.777 151.762 125.296C152.059 124.815 151.194 124.421 149.839 124.421C148.484 124.421 147.619 124.815 147.916 125.296ZM226.339 125.385C226.339 126.407 229.075 126.407 229.707 125.385C229.974 124.953 229.325 124.6 228.266 124.6C227.206 124.6 226.339 124.953 226.339 125.385ZM48.723 128.613C47.785 131.056 48.767 133.63 50.784 134.018C53.427 134.527 55.566 131.464 54.265 129.033C53.085 126.829 49.512 126.558 48.723 128.613ZM56.723 128.613C55.682 131.325 56.824 133.666 59.349 134C61.72 134.313 61.747 134.26 59.927 132.894C57.823 131.317 58.329 128.171 60.686 128.171C62.894 128.171 64.887 133.806 63.338 135.672C62.325 136.893 62.378 137.171 63.623 137.171C64.549 137.171 65.779 135.328 66.745 132.493C68.629 126.965 68.606 127.171 67.339 127.171C66.789 127.171 66.339 127.846 66.339 128.671C66.339 129.496 65.889 130.171 65.339 130.171C64.789 130.171 64.339 129.496 64.339 128.671C64.339 126.645 57.498 126.592 56.723 128.613ZM70.339 129.112C70.339 130.18 69.889 131.331 69.339 131.671C68.789 132.011 68.339 133.166 68.339 134.238C68.339 135.938 68.596 136.028 70.339 134.939C71.951 133.932 72.754 133.949 74.481 135.028C76.477 136.274 76.58 136.205 75.995 134.018C75.649 132.727 75.36 130.659 75.353 129.421C75.342 127.691 74.761 127.171 72.839 127.171C71.031 127.171 70.339 127.708 70.339 129.112ZM79.089 127.832C81.877 128.424 82.004 129.764 79.339 130.461C76.043 131.323 76.859 134.171 80.402 134.171C83.256 134.171 83.444 133.949 83.152 130.921C82.879 128.089 82.453 127.651 79.839 127.512C77.824 127.406 77.578 127.511 79.089 127.832ZM85.455 132.355C85.519 135.279 85.771 136.911 86.016 135.982C86.261 135.054 87.447 134.154 88.65 133.982C90.346 133.741 90.839 132.996 90.839 130.671C90.839 128.142 90.408 127.621 88.089 127.355C85.382 127.043 85.341 127.121 85.455 132.355ZM92.884 129.03C91.996 131.827 93.288 134.175 95.696 134.141C97.632 134.113 97.67 134.012 96.089 133.091C95.126 132.53 94.339 131.441 94.339 130.671C94.339 129.901 95.126 128.812 96.089 128.251C97.663 127.334 97.62 127.229 95.656 127.201C94.389 127.184 93.226 127.951 92.884 129.03ZM99.089 127.833C99.777 128.111 100.339 129.65 100.339 131.254C100.339 132.859 100.789 134.171 101.339 134.171C101.889 134.171 102.339 132.859 102.339 131.254C102.339 129.65 102.902 128.111 103.589 127.833C104.277 127.556 103.264 127.329 101.339 127.329C99.414 127.329 98.402 127.556 99.089 127.833ZM105.339 130.671C105.339 134.044 105.536 134.281 108.089 133.987C110.419 133.719 110.832 133.213 110.796 130.671C110.76 128.168 110.305 127.619 108.046 127.355C105.542 127.062 105.339 127.311 105.339 130.671ZM112.884 129.03C111.924 132.054 113.309 134.177 116.196 134.108L118.839 134.044L116.339 132.972L113.839 131.9L116.148 131.286C117.418 130.948 118.43 130.333 118.398 129.921C118.366 129.509 118.339 128.721 118.339 128.171C118.339 126.324 113.501 127.086 112.884 129.03ZM120.339 130.671C120.339 132.596 120.789 134.171 121.339 134.171C121.889 134.171 122.339 133.496 122.339 132.671C122.339 131.846 122.789 131.171 123.339 131.171C123.889 131.171 124.339 131.846 124.339 132.671C124.339 133.496 124.789 134.171 125.339 134.171C125.889 134.171 126.339 132.596 126.339 130.671C126.339 128.746 125.889 127.171 125.339 127.171C124.789 127.171 124.339 127.846 124.339 128.671C124.339 129.496 123.889 130.171 123.339 130.171C122.789 130.171 122.339 129.496 122.339 128.671C122.339 127.846 121.889 127.171 121.339 127.171C120.789 127.171 120.339 128.746 120.339 130.671ZM128.339 130.671C128.339 132.596 128.789 134.171 129.339 134.171C129.889 134.171 130.339 133.496 130.339 132.671C130.339 131.846 130.789 131.171 131.339 131.171C131.889 131.171 132.339 131.846 132.339 132.671C132.339 133.496 132.789 134.171 133.339 134.171C133.889 134.171 134.339 132.596 134.339 130.671C134.339 128.746 133.889 127.171 133.339 127.171C132.789 127.171 132.339 127.846 132.339 128.671C132.339 129.496 131.889 130.171 131.339 130.171C130.789 130.171 130.339 129.496 130.339 128.671C130.339 127.846 129.889 127.171 129.339 127.171C128.789 127.171 128.339 128.746 128.339 130.671ZM136.339 130.671C136.339 133.715 136.657 134.171 138.78 134.171C142.411 134.171 142.919 132.264 140.008 129.564C136.631 126.434 136.339 126.522 136.339 130.671ZM143.591 130.671C143.602 132.871 143.807 133.653 144.046 132.409C144.285 131.165 144.276 129.365 144.026 128.409C143.776 127.453 143.58 128.471 143.591 130.671ZM146.339 130.754C146.339 133.177 146.744 134.203 147.589 133.921C148.277 133.692 148.794 132.979 148.739 132.338C148.684 131.696 148.572 130.271 148.489 129.171C148.225 125.647 146.339 127.036 146.339 130.754ZM150.211 128.834C149.141 130.13 149.114 130.589 150.089 130.917C150.777 131.148 151.339 131.975 151.339 132.754C151.339 133.534 151.789 134.171 152.339 134.171C152.889 134.171 153.339 132.596 153.339 130.671C153.339 126.847 152.337 126.258 150.211 128.834ZM158.339 130.671C158.339 132.596 158.789 134.171 159.339 134.171C159.889 134.171 160.339 132.821 160.339 131.171C160.339 129.521 160.789 128.171 161.339 128.171C161.889 128.171 162.339 129.521 162.339 131.171C162.339 132.821 162.789 134.171 163.339 134.171C163.889 134.171 164.339 132.596 164.339 130.671C164.339 127.449 164.101 127.171 161.339 127.171C158.577 127.171 158.339 127.449 158.339 130.671ZM166.339 132.171C166.339 134.921 166.789 137.171 167.339 137.171C167.889 137.171 168.339 136.548 168.339 135.788C168.339 135.027 169.239 134.169 170.339 133.881C171.795 133.5 172.339 132.517 172.339 130.265C172.339 127.494 172.026 127.171 169.339 127.171C166.406 127.171 166.339 127.282 166.339 132.171ZM174.339 130.671C174.339 134.576 174.983 135.008 176.947 132.421C178.212 130.754 178.277 130.754 178.307 132.421C178.371 135.916 180.339 134.07 180.339 130.516C180.339 126.924 180.304 126.892 178.339 128.671C176.54 130.299 176.339 130.314 176.339 128.826C176.339 127.916 175.889 127.171 175.339 127.171C174.789 127.171 174.339 128.746 174.339 130.671ZM182.339 132.171C182.339 134.921 182.789 137.171 183.339 137.171C183.889 137.171 184.339 136.548 184.339 135.788C184.339 135.027 185.239 134.169 186.339 133.881C187.795 133.5 188.339 132.517 188.339 130.265C188.339 127.494 188.026 127.171 185.339 127.171C182.406 127.171 182.339 127.282 182.339 132.171ZM190.75 128.542C189.638 131.439 190.771 133.671 193.353 133.671C195.449 133.671 195.839 133.2 195.839 130.671C195.839 128.319 195.352 127.602 193.585 127.351C192.262 127.163 191.09 127.656 190.75 128.542ZM199.036 129.421C198.742 130.659 198.178 132.796 197.784 134.171C197.193 136.23 197.303 136.45 198.403 135.421C200.089 133.844 204.339 133.784 204.339 135.338C204.339 135.979 204.579 136.264 204.872 135.971C205.165 135.678 205.108 133.578 204.744 131.305C204.196 127.877 203.698 127.171 201.828 127.171C200.314 127.171 199.396 127.911 199.036 129.421ZM206.339 130.671C206.339 132.596 206.789 134.171 207.339 134.171C207.889 134.171 208.339 133.496 208.339 132.671C208.339 130.634 210.01 130.777 211.259 132.921C212.073 134.319 212.278 133.866 212.278 130.671C212.278 127.476 212.073 127.023 211.259 128.421C210.01 130.565 208.339 130.708 208.339 128.671C208.339 127.846 207.889 127.171 207.339 127.171C206.789 127.171 206.339 128.746 206.339 130.671ZM214.339 130.671C214.339 133.749 214.644 134.171 216.87 134.171C219.514 134.171 221.647 131.107 219.501 130.392C218.842 130.172 217.668 129.358 216.893 128.582C214.778 126.468 214.339 126.827 214.339 130.671ZM221.339 130.671C221.339 132.596 221.789 134.171 222.339 134.171C222.889 134.171 223.339 132.596 223.339 130.671C223.339 128.746 222.889 127.171 222.339 127.171C221.789 127.171 221.339 128.746 221.339 130.671ZM225.455 130.576C225.341 134.42 225.37 134.453 227.339 132.671C229.138 131.043 229.339 131.028 229.339 132.516C229.339 133.426 229.789 134.171 230.339 134.171C230.889 134.171 231.339 132.596 231.339 130.671C231.339 127.124 229.755 125.924 228.701 128.671C227.925 130.692 226.589 130.567 226.028 128.421C225.777 127.458 225.519 128.428 225.455 130.576ZM53.003 131.604C52.672 132.466 51.938 133.171 51.37 133.171C50.22 133.171 49.957 129.886 51.022 128.821C52.12 127.723 53.661 129.888 53.003 131.604ZM73.339 130.671C73.339 132.046 72.889 133.171 72.339 133.171C71.222 133.171 70.968 129.875 72.006 128.838C73.108 127.735 73.339 128.053 73.339 130.671ZM88.939 131.771C88.455 133.032 87.973 133.205 87.173 132.405C86.568 131.8 86.373 130.525 86.739 129.571C87.223 128.31 87.705 128.137 88.505 128.937C89.11 129.542 89.305 130.817 88.939 131.771ZM109.339 129.171C109.339 129.721 108.889 130.171 108.339 130.171C107.789 130.171 107.339 129.721 107.339 129.171C107.339 128.621 107.789 128.171 108.339 128.171C108.889 128.171 109.339 128.621 109.339 129.171ZM116.839 129.171C117.179 129.721 116.729 130.171 115.839 130.171C114.949 130.171 114.499 129.721 114.839 129.171C115.179 128.621 115.629 128.171 115.839 128.171C116.049 128.171 116.499 128.621 116.839 129.171ZM170.585 129.421C171.181 131.043 170.427 133.171 169.256 133.171C168.751 133.171 168.339 132.046 168.339 130.671C168.339 128.063 169.789 127.256 170.585 129.421ZM186.585 129.421C187.181 131.043 186.427 133.171 185.256 133.171C184.751 133.171 184.339 132.046 184.339 130.671C184.339 128.063 185.789 127.256 186.585 129.421ZM194.339 130.671C194.339 132.046 193.927 133.171 193.422 133.171C192.251 133.171 191.497 131.043 192.093 129.421C192.889 127.256 194.339 128.063 194.339 130.671ZM202.339 130.671C202.339 132.046 201.889 133.171 201.339 133.171C200.222 133.171 199.968 129.875 201.006 128.838C202.108 127.735 202.339 128.053 202.339 130.671ZM81.339 131.612C81.339 131.855 80.889 132.331 80.339 132.671C79.789 133.011 79.339 132.812 79.339 132.23C79.339 131.648 79.789 131.171 80.339 131.171C80.889 131.171 81.339 131.369 81.339 131.612ZM109.339 132.171C109.339 132.721 108.889 133.171 108.339 133.171C107.789 133.171 107.339 132.721 107.339 132.171C107.339 131.621 107.789 131.171 108.339 131.171C108.889 131.171 109.339 131.621 109.339 132.171ZM140.339 131.612C140.339 131.855 139.889 132.331 139.339 132.671C138.789 133.011 138.339 132.812 138.339 132.23C138.339 131.648 138.789 131.171 139.339 131.171C139.889 131.171 140.339 131.369 140.339 131.612ZM218.339 132.171C218.339 132.721 217.889 133.171 217.339 133.171C216.789 133.171 216.339 132.721 216.339 132.171C216.339 131.621 216.789 131.171 217.339 131.171C217.889 131.171 218.339 131.621 218.339 132.171ZM45.851 145.129C44.099 145.456 42.725 146.407 42.528 147.429C42.252 148.859 42.936 149.171 46.349 149.171C50.771 149.171 51.68 151.377 47.511 151.991C44.326 152.459 44.565 156.171 47.78 156.171C49.123 156.171 50.53 156.671 50.908 157.283C51.982 159.02 49.168 160.271 45.589 159.647C42.847 159.169 42.339 159.383 42.339 161.014C42.339 165.058 52.991 164.605 55.16 160.469C56.263 158.365 54.968 154.171 53.216 154.171C52.47 154.171 52.644 153.491 53.684 152.342C57.796 147.798 53.374 143.726 45.851 145.129ZM63.339 145.147C58.324 145.898 58.57 148.671 63.651 148.671C66.124 148.671 67.785 149.241 68.379 150.294C69.133 151.628 68.655 152.02 65.693 152.501C63.712 152.822 61.247 153.849 60.215 154.783C55.328 159.206 60.722 165.76 66.698 162.66C68.222 161.869 69.544 161.694 69.881 162.239C70.198 162.752 71.218 163.172 72.148 163.173C73.62 163.175 73.795 162.17 73.502 155.423C73.317 151.16 72.741 147.158 72.222 146.532C70.972 145.023 67.64 144.504 63.339 145.147ZM101.739 145.623C98.118 147.171 97.339 148.768 97.339 154.642C97.339 160.701 99.907 163.626 105.227 163.626C111.129 163.626 113.839 160.65 113.839 154.171C113.839 150.529 113.312 148.725 111.839 147.32C109.064 144.675 105.397 144.059 101.739 145.623ZM141.564 144.862C138.318 145.511 136.006 149.618 136.006 154.737C136.006 161.912 140.978 165.435 147.885 163.156C152.519 161.626 151.531 159.103 146.611 159.902C143.846 160.35 142.734 160.064 141.689 158.635C139.501 155.642 140.05 155.171 145.732 155.171C149.263 155.171 151.299 154.717 151.629 153.858C152.34 152.005 151.336 147.413 149.973 146.282C148.424 144.997 144.34 144.307 141.564 144.862ZM78.339 154.171C78.339 162.504 78.487 163.171 80.339 163.171C82.149 163.171 82.339 162.504 82.339 156.171V149.171H85.339H88.339V156.171C88.339 162.971 88.41 163.171 90.839 163.171C93.32 163.171 93.339 163.104 93.339 154.171V145.171H85.839H78.339V154.171ZM117.339 154.063C117.339 162.696 117.411 162.972 119.821 163.577C127.126 165.411 134.863 160.887 132.375 156.238C131.766 155.101 130.765 154.171 130.149 154.171C129.518 154.171 129.751 153.373 130.684 152.342C134.667 147.941 131.945 145.171 123.639 145.171H117.339V154.063ZM157.893 146.421C157.682 147.109 157.243 149.921 156.918 152.671C156.592 155.421 155.654 158.171 154.833 158.781C152.822 160.276 152.769 168.171 154.769 168.171C155.556 168.171 156.344 167.159 156.519 165.921C156.806 163.906 157.479 163.64 162.969 163.376C168.809 163.096 169.13 163.203 169.738 165.626C170.861 170.1 173.339 168.754 173.339 163.671C173.339 160.338 172.95 159.171 171.839 159.171C170.649 159.171 170.339 157.727 170.339 152.171V145.171H164.308C160.354 145.171 158.144 145.602 157.893 146.421ZM176.339 154.171C176.339 163.104 176.358 163.171 178.839 163.171C181.029 163.171 181.339 162.738 181.339 159.671C181.339 156.449 181.577 156.171 184.339 156.171C187.101 156.171 187.339 156.449 187.339 159.671C187.339 162.738 187.649 163.171 189.839 163.171C192.32 163.171 192.339 163.104 192.339 154.171C192.339 145.238 192.32 145.171 189.839 145.171C187.649 145.171 187.339 145.604 187.339 148.671C187.339 151.893 187.101 152.171 184.339 152.171C181.577 152.171 181.339 151.893 181.339 148.671C181.339 145.604 181.029 145.171 178.839 145.171C176.358 145.171 176.339 145.238 176.339 154.171ZM196.339 154.171C196.339 162.087 196.55 163.167 198.089 163.142C199.052 163.125 201.527 160.784 203.589 157.939L207.339 152.766V157.969C207.339 162.851 207.493 163.171 209.839 163.171C212.32 163.171 212.339 163.104 212.339 154.171C212.339 146.26 212.127 145.173 210.589 145.186C209.626 145.195 207.152 147.501 205.089 150.313L201.339 155.424V150.298C201.339 145.496 201.181 145.171 198.839 145.171C196.358 145.171 196.339 145.238 196.339 154.171ZM216.339 154.171C216.339 163.104 216.358 163.171 218.839 163.171C221.029 163.171 221.339 162.738 221.339 159.671C221.339 157.746 221.718 156.171 222.182 156.171C222.645 156.171 223.872 157.746 224.909 159.671C226.375 162.392 227.418 163.171 229.602 163.171C232.195 163.171 232.32 163 231.232 160.921C230.585 159.683 229.192 157.439 228.137 155.933C226.221 153.196 226.221 153.192 228.779 149.838C231.926 145.713 231.954 145.171 229.023 145.171C227.347 145.171 226.035 146.345 224.273 149.421L221.839 153.671L221.532 149.421C221.26 145.665 220.94 145.171 218.782 145.171C216.372 145.171 216.339 145.294 216.339 154.171ZM107.768 149.742C110.549 152.524 109.126 160.171 105.827 160.171C103.562 160.171 101.066 155.618 101.878 152.97C103.347 148.184 105.196 147.171 107.768 149.742ZM125.757 148.778C128.286 149.748 127.631 152.171 124.839 152.171C123.006 152.171 122.339 151.638 122.339 150.171C122.339 148.08 123.114 147.764 125.757 148.778ZM147.152 150.421C147.42 151.826 146.774 152.171 143.877 152.171C140.543 152.171 140.353 152.014 141.371 150.11C142.702 147.625 146.66 147.837 147.152 150.421ZM166.339 154.171C166.339 159.089 166.288 159.171 163.26 159.171C160.318 159.171 160.209 159.026 160.834 155.921C162.029 149.983 162.459 149.171 164.406 149.171C166.059 149.171 166.339 149.896 166.339 154.171ZM69.339 156.636C69.339 158.361 65.732 160.532 64.318 159.658C62.934 158.803 63.102 156.433 64.589 155.833C67.089 154.825 69.339 155.205 69.339 156.636ZM127.402 156.747C128.486 158.054 128.465 158.479 127.275 159.232C124.497 160.989 122.339 160.307 122.339 157.671C122.339 154.75 125.297 154.21 127.402 156.747ZM236.648 170.807C234.603 176.137 246.596 179.297 249.348 174.153C250.209 172.546 249.915 172.418 246.427 172.886C243.112 173.331 242.451 173.098 241.876 171.289C241.078 168.773 237.554 168.448 236.648 170.807ZM22.247 172.358C22.196 172.53 22.07 178.169 21.965 184.89C21.762 198.013 21.873 198.282 27.089 197.343C28.982 197.002 29.348 196.282 29.398 192.804C29.45 189.165 29.599 188.905 30.648 190.632C32.396 193.51 37.035 198.171 38.151 198.171C38.683 198.171 40.18 197.298 41.478 196.232L43.839 194.292L40.089 190.618C38.027 188.597 36.339 186.287 36.339 185.485C36.339 184.683 37.51 182.029 38.941 179.587C42.118 174.167 41.577 171.921 37.2 172.357C34.464 172.629 33.887 173.215 32.841 176.777C30.768 183.836 29.886 184.187 29.339 178.171C28.852 172.817 28.753 172.663 25.589 172.358C23.801 172.185 22.298 172.185 22.247 172.358ZM42.929 179.026C42.2 180.205 45.576 188.29 48.528 192.437L50.69 195.472L47.819 197.942C45.064 200.312 45.024 200.467 46.834 201.791C50.457 204.44 52.929 203.485 56.385 198.1C59.313 193.537 64.339 181.547 64.339 179.126C64.339 177.695 57.338 177.973 56.886 179.421C56.671 180.109 56.214 182.359 55.872 184.421C55.029 189.489 53.68 189.138 52.02 183.421C50.739 179.008 50.389 178.649 47.083 178.366C45.126 178.199 43.257 178.495 42.929 179.026ZM68.656 178.954C67.892 179.44 67.36 183.708 67.156 190.985C66.847 201.969 66.898 202.277 69.089 202.825C72.979 203.798 76.34 202.416 76.074 199.953C75.872 198.073 76.403 197.719 79.839 197.436C84.969 197.015 88.34 193.784 88.512 189.126C88.701 183.974 87.524 181.318 84.318 179.66C81.326 178.113 70.73 177.635 68.656 178.954ZM91.703 187.552C91.703 195.876 91.925 197.091 93.521 197.508C96.645 198.325 99.129 197.091 100.365 194.109C101.019 192.53 102.181 190.717 102.947 190.082C104.097 189.127 104.339 189.622 104.339 192.932C104.339 196.097 104.759 197.048 106.339 197.461C111.264 198.749 111.839 197.72 111.839 187.62V178.171H108.288C105.058 178.171 104.52 178.599 102.323 182.921L99.909 187.671L99.374 183.171C98.86 178.851 98.696 178.659 95.271 178.371L91.703 178.072V187.552ZM119.589 178.833C118.793 179.154 118.339 181.418 118.339 185.063C118.339 188.549 117.765 191.548 116.871 192.73C116.063 193.797 115.388 195.185 115.371 195.813C115.332 197.212 119.603 198.391 121.74 197.571C123.51 196.891 125.325 191.261 125.333 186.421C125.337 184.201 125.815 183.171 126.839 183.171C128.027 183.171 128.339 184.602 128.339 190.054C128.339 196.097 128.583 197.002 130.339 197.461C135.168 198.723 135.833 197.643 135.934 188.368C135.992 183.077 135.6 179.383 134.934 178.936C133.719 178.121 121.557 178.039 119.589 178.833ZM139.985 178.935C139.725 179.356 139.528 183.393 139.548 187.907C139.587 196.856 139.288 196.436 146.524 197.717C150.987 198.507 156.985 196.701 158.347 194.157C161.152 188.915 158.199 184.364 151.402 183.453C148.162 183.018 147.186 182.411 146.716 180.537C146.266 178.746 145.434 178.171 143.29 178.171C141.732 178.171 140.244 178.515 139.985 178.935ZM165.568 178.84C164.869 179.122 163.631 180.639 162.818 182.212C157.403 192.684 168.345 201.352 179.622 195.524C183.27 193.638 182.284 192.283 177.313 192.352C171.847 192.427 170.17 190.795 170.539 185.757C170.893 180.937 172.705 180.29 173.145 184.827C173.38 187.244 174.043 188.131 175.98 188.617C182.063 190.144 184.343 185.988 180.266 180.806C178.445 178.49 177.507 178.181 172.516 178.25C169.394 178.293 166.267 178.559 165.568 178.84ZM185.158 187.673L184.839 197.175L188.464 197.173C191.701 197.171 192.154 196.846 192.696 194.135L193.303 191.099L196.071 194.057C199.775 198.015 202.494 198.676 205.399 196.323L207.739 194.429L204.568 192.79C199.622 190.232 198.865 187.888 201.843 184.349C205.566 179.924 205.178 177.98 200.647 178.361C197.433 178.631 196.848 179.085 196.131 181.872C194.905 186.638 193.461 186.785 192.731 182.218C192.126 178.436 191.867 178.171 188.78 178.171H185.476L185.158 187.673ZM209.31 178.421C209.294 178.558 209.181 182.813 209.06 187.876C208.851 196.578 208.958 197.111 211.01 197.625C214.382 198.47 216.246 197.274 218.53 192.798C220.391 189.151 220.727 188.903 221.417 190.671C221.847 191.771 222.23 193.651 222.269 194.848C222.341 197.091 224.48 198.099 227.589 197.356C229.102 196.994 229.339 195.665 229.339 187.554V178.171H225.859C222.806 178.171 222.129 178.662 220.339 182.171C219.217 184.371 217.857 186.171 217.319 186.171C216.78 186.171 216.339 184.371 216.339 182.171C216.339 178.266 216.256 178.171 212.839 178.171C210.914 178.171 209.326 178.284 209.31 178.421ZM232.794 187.567C232.794 195.81 233.026 197.117 234.566 197.52C237.646 198.326 240.135 197.077 241.365 194.109C242.019 192.53 243.181 190.717 243.947 190.082C245.097 189.127 245.339 189.622 245.339 192.932C245.339 196.097 245.759 197.048 247.339 197.461C252.261 198.748 252.837 197.72 252.873 187.572L252.907 178.076L249.396 178.374C247.106 178.568 245.521 179.366 244.839 180.671C244.263 181.771 243.131 183.796 242.322 185.171C240.857 187.663 240.851 187.657 240.346 183.171C239.86 178.857 239.693 178.659 236.316 178.374L232.794 178.077V187.567ZM80.137 187.259C80.342 190.414 79.966 192.236 78.931 193.095C76.47 195.137 75.339 193.389 75.339 187.542C75.339 182.4 75.489 182.053 77.589 182.351C79.496 182.622 79.885 183.371 80.137 187.259ZM151.674 189.337C152.434 190.545 152.361 191.439 151.409 192.587C149.113 195.353 147.339 194.486 147.339 190.598C147.339 187.819 147.704 187.096 148.982 187.348C149.885 187.526 151.097 188.421 151.674 189.337Z" fill="#B6BBBE"></path> </svg> 