<?xml version="1.0" encoding="UTF-8"?> <svg xmlns="http://www.w3.org/2000/svg" width="861" height="210" viewBox="0 0 861 210" fill="none"> <path fill-rule="evenodd" clip-rule="evenodd" d="M245 41.3808C255.118 39.4402 265.427 38.6818 275.72 39.1208C287.57 39.8208 300 44.1208 307.53 53.7308C317.96 67.4608 316.24 89.5508 302.61 100.611C292.19 109.211 277.89 111.381 264.79 109.901C264.79 121.301 264.79 132.698 264.79 144.091C258.22 144.091 251.65 144.091 245.08 144.091C245.02 109.841 245.08 75.5908 245.01 41.3408L245 41.3808ZM264.78 56.5408C264.78 68.6708 264.78 80.8008 264.78 92.9408C272.28 93.5508 280.44 93.4008 286.98 89.2308C296.9 82.8508 296.32 66.0508 286.45 59.8908C280.05 55.8208 272.07 55.7208 264.76 56.5408H264.78ZM474.12 144.061C474.12 109.551 474.06 75.0608 474.12 40.5108C495.74 40.6108 517.36 40.5108 538.99 40.5108C538.99 46.3408 538.99 52.1708 538.99 58.0108C523.99 58.0108 508.91 58.0108 493.88 58.0108C493.88 86.6775 493.88 115.344 493.88 144.011C487.28 144.011 480.68 143.951 474.08 144.011L474.12 144.061ZM411.69 81.8208C419.74 74.6308 431.06 72.1908 441.59 73.4008C446.773 73.7838 451.794 75.3764 456.25 78.0508C456.2 83.9208 456.36 89.7908 456.35 95.6808C453.534 93.2042 450.229 91.346 446.65 90.2264C443.07 89.1068 439.296 88.7505 435.57 89.1808C432.268 89.5595 429.128 90.8169 426.478 92.822C423.827 94.8271 421.763 97.5065 420.5 100.581C419.307 103.662 418.789 106.963 418.98 110.261C419.172 113.56 420.068 116.779 421.61 119.701C423.255 122.527 425.581 124.897 428.375 126.597C431.169 128.296 434.344 129.27 437.61 129.431C444.651 129.607 451.518 127.227 456.94 122.731C456.94 128.551 456.86 134.381 456.94 140.191C449.74 144.681 440.94 145.631 432.61 145.191C422.84 144.611 413.12 140.191 407.17 132.191C396.01 117.461 397.55 94.1908 411.61 81.8108L411.69 81.8208ZM709.24 78.0508C716.163 75.6312 723.363 74.0892 730.67 73.4608C740.48 72.4608 750.82 73.0808 759.67 77.7508C764.245 80.0875 768.201 83.4755 771.214 87.637C774.226 91.7984 776.209 96.6147 777 101.691C778.17 110.541 777.35 119.951 773.13 127.951C769.13 135.951 761.21 141.421 752.65 143.581C744.59 145.581 735.93 146.101 727.93 143.581C727.99 152.981 727.93 162.381 727.93 171.791H709.22C709.22 140.551 709.22 109.318 709.22 78.0908L709.24 78.0508ZM728 90.9908C727.82 103.311 728 115.651 727.92 127.991C735.76 130.311 745.17 130.181 751.92 125.081C758.42 119.801 759.35 110.291 757.69 102.601C755.76 94.1208 747.06 88.6008 738.6 88.9808C735.09 89.2008 730.99 89.0308 728 90.9808V90.9908ZM813.2 74.5008C822.147 72.0877 831.642 72.7067 840.2 76.2608C852.6 81.6508 861.04 95.1808 859.93 108.751C860.309 113.391 859.719 118.06 858.197 122.46C856.675 126.86 854.255 130.896 851.09 134.311C839.09 147.231 817.57 148.651 803.09 139.311C788.09 129.431 783.8 107.771 791.8 92.0808C793.894 87.7913 796.887 84.0033 800.577 80.9748C804.266 77.9462 808.565 75.7484 813.18 74.5308L813.2 74.5008ZM820.07 89.4008C813.77 90.8808 809.25 96.5508 807.78 102.651C805.78 110.361 807.23 119.501 813.14 125.181C819.52 131.301 831 130.711 836.58 123.781C842.97 115.881 843.05 103.631 837.2 95.4008C833.43 90.0508 826.32 87.8308 820.07 89.4008V89.4008ZM320.07 74.4008C326.577 74.4008 333.09 74.4008 339.61 74.4008C343.496 91.6746 349.544 108.39 357.61 124.151C364.73 108.151 369.35 91.1508 374.13 74.3708C380.85 74.3708 387.56 74.3708 394.27 74.3708C390.59 89.1808 385.43 103.601 379.88 117.811C372.61 136.041 364.88 154.111 356.06 171.671H336C340.992 162.688 345.391 153.388 349.17 143.831C336.11 122.311 325.71 98.9508 320.17 74.3508L320.07 74.4008ZM530.31 74.4008C530.31 97.6008 530.31 120.794 530.31 143.981C536.51 143.981 542.71 143.931 548.91 143.981C559.47 129.661 569.983 115.327 580.45 100.981C580.51 115.321 580.45 129.651 580.45 143.981C586.67 144.041 592.9 143.911 599.13 144.071C599.177 120.857 599.177 97.6342 599.13 74.4008C592.92 74.4608 586.7 74.4008 580.49 74.4008C569.92 88.6108 559.76 103.161 548.97 117.191C548.9 102.931 548.97 88.6708 548.97 74.4008C542.74 74.4008 536.52 74.4008 530.3 74.4008H530.31ZM631.43 74.4008C648.63 74.4008 665.837 74.3708 683.05 74.3108C683.05 92.3108 683.05 110.311 683.05 128.311C686.76 128.261 690.47 128.311 694.18 128.241C694.18 138.141 694.28 148.031 694.13 157.911C688.42 157.821 682.72 157.911 677.01 157.911C677.01 153.251 677.01 148.601 677.01 143.911C661.15 143.911 645.297 143.911 629.45 143.911C629.31 148.561 629.61 153.191 629.31 157.821C623.68 157.971 618.05 157.821 612.43 157.891C612.19 148.031 612.43 138.141 612.32 128.261C615.48 128.261 618.64 128.311 621.81 128.191C629.81 111.501 630.96 92.5608 631.42 74.3608L631.43 74.4008ZM647.05 89.9408C646.45 103.131 645 116.381 640.83 128.941C648.66 128.751 656.5 128.941 664.33 128.851C664.33 115.851 664.33 102.921 664.33 89.9508C658.62 90.0308 652.86 90.0608 647.1 89.9908L647.05 89.9408Z" fill="#B6BBBE"></path> <path fill-rule="evenodd" clip-rule="evenodd" d="M86.5896 0.759965C93.4687 -0.427833 100.46 0.197028 107.418 0C107.418 0.394056 107.463 1.19343 107.475 1.58748C107.278 1.90273 107.075 2.20109 106.867 2.49944C104.412 5.25221 101.288 7.28441 98.1298 9.13085C82.2437 18.1378 65.4794 25.5123 49.3344 33.9902C45.5627 36.0561 41.6841 37.9307 37.9912 40.1093C28.3368 45.7387 18.6993 51.6777 10.6887 59.5363C8.0767 62.351 5.62229 65.3008 3.84341 68.7178C9.85648 52.0278 20.038 37.1528 33.4201 25.5067C48.2479 12.334 67.0388 3.78857 86.6121 0.737447L86.5896 0.759965ZM19.448 101.12C17.7592 102.28 16.0704 103.457 14.4154 104.622C9.29264 108.472 4.1868 112.813 1.36086 118.695C-0.429286 121.78 -0.0577489 125.451 0.285643 128.828C2.85101 139.893 7.1891 150.47 13.1319 160.15C19.8871 171.409 29.108 180.945 39.3704 188.995C42.9625 191.69 46.7231 194.154 50.6291 196.369C47.4992 194.264 44.4368 191.601 43.1702 187.925C42.4384 185.82 42.9282 183.568 43.6262 181.519C46.2776 176.639 50.7136 173.075 55.2396 170.024C56.2923 169.315 57.3506 168.622 58.4089 167.919C72.7976 159.052 88.5655 152.787 104.007 146.06C106.394 145.165 108.702 144.073 111.066 143.127C127.633 136.163 144.279 129.374 160.52 121.64C169.05 117.638 177.323 113.109 185.289 108.078C191.898 103.513 198.946 98.7392 202.847 91.4999C203.871 89.8602 204.548 88.0288 204.839 86.118C205.129 84.2071 205.026 82.2571 204.536 80.3875C200.416 62.8351 192.152 46.0483 179.683 32.9093C172.364 25.1577 164.044 18.2392 154.66 13.1502C157.582 15.2218 160.239 17.8226 161.697 21.1608C162.032 22.4445 162.095 23.784 161.883 25.0935C161.67 26.4031 161.187 27.6539 160.464 28.7661C157.154 34.2266 151.62 37.7393 146.424 41.1845C143.199 43.3068 139.787 45.1251 136.381 46.9208C134.13 47.9566 131.878 49.0262 129.727 50.2422C117.951 55.9672 105.82 60.938 93.7389 66.0044C90.3613 67.3048 87.0399 68.6727 83.7636 70.1758C72.6513 74.8707 61.5164 79.498 50.5503 84.5363C39.8102 89.3275 29.4142 94.8555 19.4368 101.081L19.448 101.12ZM111.049 197.591C121.981 191.798 133.116 186.405 144.263 181.013C148.136 178.975 152.087 177.072 155.949 175.012C163.695 170.902 171.481 166.81 178.709 161.822C185.295 157.459 191.752 152.725 196.903 146.679C198.347 144.788 199.689 142.82 200.922 140.785C200.742 142.367 199.937 143.763 199.38 145.232C192.479 162.174 181.278 177.022 166.881 188.308C147.342 202.539 123.045 209.739 98.9517 209.632C98.7074 209.672 98.4568 209.649 98.2244 209.563C97.9919 209.478 97.7855 209.334 97.6252 209.145C97.4648 208.957 97.356 208.73 97.3093 208.487C97.2626 208.243 97.2796 207.992 97.3586 207.758C97.5781 207.392 97.8089 207.032 98.0566 206.688C100.455 203.873 103.624 201.926 106.748 200.045C108.173 199.201 109.602 198.357 111.06 197.591H111.049ZM200.95 140.622C201.085 140.363 201.35 139.845 201.485 139.575L201.733 140.048L201.457 140.611L200.95 140.622Z" fill="#B6BBBE"></path> <path fill-rule="evenodd" clip-rule="evenodd" d="M55.2622 170.058C56.3148 169.348 57.3732 168.656 58.4315 167.952C70.4952 173.795 82.7842 179.374 93.8966 186.963C98.8842 190.52 103.945 194.444 106.76 200.045C103.635 201.925 100.466 203.896 98.0679 206.688C97.8202 207.031 97.5894 207.392 97.3699 207.757C81.1179 208.821 64.7195 204.464 50.6461 196.392C47.5161 194.286 44.4538 191.624 43.1871 187.948C42.4553 185.842 42.9451 183.591 43.6431 181.541C46.3114 176.672 50.7361 173.12 55.2622 170.058Z" fill="#8E9DA6"></path> <path fill-rule="evenodd" clip-rule="evenodd" d="M160.548 121.673C169.078 117.672 177.351 113.143 185.317 108.112C191.673 112.391 197.904 117.48 201.333 124.494C203.691 129.183 203.545 134.812 201.485 139.575C201.35 139.845 201.085 140.363 200.95 140.622L200.922 140.785C199.689 142.821 198.347 144.788 196.902 146.679C191.751 152.725 185.295 157.459 178.708 161.822C171.48 166.81 163.695 170.902 155.949 175.012C152.143 167.694 145.461 162.396 138.734 157.882C129.952 152.213 120.619 147.49 111.094 143.161C127.661 136.197 144.313 129.408 160.548 121.673Z" fill="#8E9DA6"></path> <path fill-rule="evenodd" clip-rule="evenodd" d="M37.9682 40.1094C41.6611 37.9139 45.5398 36.0562 49.3114 33.9902L48.8836 34.2604C50.5845 37.4957 52.8167 40.4224 55.4869 42.9184C61.6285 49.0544 69.1888 53.4791 76.7096 57.6449C82.2789 60.6472 87.9552 63.4469 93.7385 66.0439C90.3608 67.3443 87.0395 68.7122 83.7632 70.2153C72.6508 74.9102 61.5159 79.5375 50.5499 84.5758C39.8097 89.3669 29.4138 94.895 19.4363 101.121C13.807 97.18 8.30143 92.8341 4.66485 86.9345C2.30614 83.1234 1.0508 78.4398 2.06972 73.9869C2.54505 72.1959 3.12589 70.4346 3.80919 68.7122C5.57118 65.2952 8.04248 62.3285 10.6545 59.5307C18.6764 51.6777 28.297 45.7275 37.9682 40.1094Z" fill="#8E9DA6"></path> <path fill-rule="evenodd" clip-rule="evenodd" d="M106.844 2.49954C107.052 2.20118 107.255 1.90282 107.452 1.58758C118.469 0.675619 129.508 3.01744 139.911 6.50765C145.024 8.27615 149.963 10.511 154.666 13.1841C157.587 15.2557 160.244 17.8565 161.702 21.1947C162.037 22.4784 162.101 23.8178 161.888 25.1274C161.676 26.4369 161.193 27.6878 160.47 28.8C157.16 34.2605 151.626 37.7732 146.43 41.2184C134.693 35.6847 122.871 30.1341 111.978 22.9848C106.664 19.185 101.052 15.16 98.1074 9.13094C101.266 7.28451 104.39 5.2523 106.844 2.49954Z" fill="#8E9DA6"></path> </svg> 