<?xml version="1.0" encoding="UTF-8"?> <svg xmlns="http://www.w3.org/2000/svg" width="717" height="217" viewBox="0 0 717 217" fill="none"> <path fill-rule="evenodd" clip-rule="evenodd" d="M0 108V216H30.75H61.5V134.75V53.5H107H152.5V134.75V216H183.5H214.5V108V0H107.25H0V108ZM243.5 108.005V216.008L270.853 215.88L298.206 215.75L347.728 153.273L397.25 90.796L397.377 153.398L397.504 216H428.252H459V108V0L431.625 0.0335007L404.25 0.0669994L354.75 62.6025L305.25 125.138L305.123 62.569L304.996 0H274.248H243.5V108.005ZM488 108V216H518.997H549.995L550.122 172.533L550.25 129.065L592.693 172.533L635.135 216H675.818C710.625 216 716.5 215.897 716.5 215.29C716.5 214.899 692.072 189.91 662.216 159.757C614.235 111.297 608.009 104.837 608.591 104.104C610.395 101.835 693.815 2.5585 694.912 1.375L696.187 0H660.185H624.184L587.217 44.7375L550.25 89.4755L550.122 44.7375L549.995 0H518.997H488V108Z" fill="#B6BBBE"></path> </svg> 