<?xml version="1.0" encoding="UTF-8"?> <svg xmlns="http://www.w3.org/2000/svg" width="26" height="26" viewBox="0 0 26 26" fill="none"> <circle cx="16" cy="10" r="10" fill="#FF333B"></circle> <path d="M2 12H22" stroke="#19181E" stroke-width="1.5" stroke-miterlimit="10" stroke-linecap="round" stroke-linejoin="round"></path> <path d="M11.5483 22.4998H6.43829C2.88829 22.4998 1.98828 21.6198 1.98828 18.1098V9.88977C1.98828 6.70977 2.72831 5.68977 5.51831 5.52977C5.79831 5.51977 6.10829 5.50977 6.43829 5.50977H17.5483C21.0983 5.50977 21.9983 6.38977 21.9983 9.89977V14.3098" stroke="#19181E" stroke-width="1.5" stroke-linecap="round" stroke-linejoin="round"></path> <path d="M6 18H10" stroke="#19181E" stroke-width="1.5" stroke-miterlimit="10" stroke-linecap="round" stroke-linejoin="round"></path> <path d="M22 20C22 20.75 21.79 21.46 21.42 22.06C20.73 23.22 19.46 24 18 24C16.54 24 15.27 23.22 14.58 22.06C14.21 21.46 14 20.75 14 20C14 17.79 15.79 16 18 16C20.21 16 22 17.79 22 20Z" stroke="#19181E" stroke-width="1.5" stroke-miterlimit="10" stroke-linecap="round" stroke-linejoin="round"></path> <path d="M16.4414 19.9995L17.4314 20.9895L19.5614 19.0195" stroke="#19181E" stroke-width="1.5" stroke-linecap="round" stroke-linejoin="round"></path> </svg> 