<?xml version="1.0" encoding="UTF-8"?> <svg xmlns="http://www.w3.org/2000/svg" width="26" height="26" viewBox="0 0 26 26" fill="none"> <circle cx="16" cy="10" r="10" fill="#FF333B"></circle> <path d="M9 21C9 21.75 8.79 22.46 8.42 23.06C7.73 24.22 6.46 25 5 25C3.54 25 2.27 24.22 1.58 23.06C1.21 22.46 1 21.75 1 21C1 18.79 2.79 17 5 17C7.21 17 9 18.79 9 21Z" stroke="#19181E" stroke-width="1.5" stroke-miterlimit="10" stroke-linecap="round" stroke-linejoin="round"></path> <path d="M3.44141 20.9995L4.43141 21.9895L6.56141 20.0195" stroke="#19181E" stroke-width="1.5" stroke-linecap="round" stroke-linejoin="round"></path> <path d="M17.7514 9.04997C17.5114 9.00997 17.2614 8.99998 17.0014 8.99998H7.00141C6.72141 8.99998 6.45141 9.01998 6.19141 9.05998C6.33141 8.77998 6.53141 8.52001 6.77141 8.28001L10.0214 5.02C11.3914 3.66 13.6114 3.66 14.9814 5.02L16.7314 6.78996C17.3714 7.41996 17.7114 8.21997 17.7514 9.04997Z" stroke="#19181E" stroke-width="1.5" stroke-linecap="round" stroke-linejoin="round"></path> <path d="M22 14V19C22 22 20 24 17 24H7.63C7.94 23.74 8.21 23.42 8.42 23.06C8.79 22.46 9 21.75 9 21C9 18.79 7.21 17 5 17C3.8 17 2.73 17.53 2 18.36V14C2 11.28 3.64 9.38 6.19 9.06C6.45 9.02 6.72 9 7 9H17C17.26 9 17.51 9.00999 17.75 9.04999C20.33 9.34999 22 11.26 22 14Z" stroke="#19181E" stroke-width="1.5" stroke-linecap="round" stroke-linejoin="round"></path> <path d="M22 14.5H19C17.9 14.5 17 15.4 17 16.5C17 17.6 17.9 18.5 19 18.5H22" stroke="#19181E" stroke-width="1.5" stroke-linecap="round" stroke-linejoin="round"></path> </svg> 