<?xml version="1.0" encoding="UTF-8"?> <svg xmlns="http://www.w3.org/2000/svg" width="24" height="24" viewBox="0 0 24 24" fill="none"> <path opacity="0.4" d="M14.4183 5.49C13.9422 5.40206 13.505 5.70586 13.4144 6.17054C13.3238 6.63522 13.6285 7.08891 14.0916 7.17984C15.4859 7.45166 16.5624 8.53092 16.8353 9.92995V9.93095C16.913 10.3337 17.2675 10.6265 17.6759 10.6265C17.7306 10.6265 17.7854 10.6215 17.8412 10.6115C18.3043 10.5186 18.609 10.0659 18.5184 9.60018C18.1111 7.51062 16.5027 5.89672 14.4183 5.49" fill="#E52629"></path> <path opacity="0.4" d="M14.3558 2.00793C14.1328 1.97595 13.9087 2.04191 13.7304 2.18381C13.5472 2.32771 13.4326 2.53557 13.4078 2.76841C13.355 3.23908 13.6946 3.66479 14.1646 3.71776C17.4063 4.07951 19.9259 6.60477 20.2904 9.85654C20.3392 10.2922 20.7047 10.621 21.1409 10.621C21.1738 10.621 21.2057 10.619 21.2385 10.615C21.4666 10.59 21.6698 10.4771 21.8132 10.2972C21.9556 10.1174 22.0203 9.89351 21.9944 9.66467C21.5403 5.60746 18.4002 2.45862 14.3558 2.00793" fill="#E52629"></path> <path d="M17.6047 14.6729C16.9563 14.535 16.4435 14.8348 15.9893 15.0967C15.5242 15.3665 14.6389 16.081 14.133 15.8971C11.5376 14.8338 9.09669 12.5704 8.04004 9.97617C7.8538 9.45953 8.56787 8.57314 8.83576 8.10546C9.09769 7.65177 9.39247 7.13513 9.25803 6.48557C9.13653 5.90097 7.56499 3.90934 7.00928 3.36472C6.64179 3.00496 6.26733 2.8071 5.88192 2.77412C4.43288 2.71316 2.81454 4.63884 2.53071 5.09952C1.81864 6.08185 1.82362 7.38895 2.54266 8.97386C4.27553 13.2309 10.8296 19.6555 15.1199 21.4463C15.9106 21.815 16.6357 21.9999 17.286 21.9999C17.9224 21.9999 18.489 21.823 18.976 21.4723C19.3425 21.2614 21.3562 19.5696 21.3025 18.0876C21.2716 17.7099 21.0734 17.3321 20.7169 16.9664C20.1731 16.4078 18.1873 14.7959 17.6047 14.6729" fill="#E52629"></path> </svg> 