<?xml version="1.0" encoding="UTF-8"?> <svg xmlns="http://www.w3.org/2000/svg" width="150" height="50" viewBox="0 0 150 50" fill="none"> <rect width="150" height="50" rx="5" fill="white"></rect> <g clip-path="url(#clip0_5384_29765)"> <path d="M10.7463 25.2921C10.7455 28.2327 11.5198 31.1041 12.9923 33.6349L10.6055 42.2821L19.5239 39.9618C21.9906 41.2943 24.7544 41.9924 27.563 41.9926H27.5704C36.8419 41.9926 44.3892 34.5066 44.3932 25.3052C44.395 20.8465 42.6466 16.6538 39.4701 13.4995C36.2941 10.3454 32.0702 8.6075 27.5697 8.60547C18.297 8.60547 10.7503 16.0911 10.7464 25.2921" fill="url(#paint0_linear_5384_29765)"></path> <path d="M10.1463 25.2851C10.1453 28.3316 10.9475 31.3057 12.4724 33.9271L10 42.8843L19.2382 40.4808C21.7837 41.8579 24.6496 42.5839 27.5658 42.585H27.5733C37.1775 42.585 44.9959 34.8297 45 25.299C45.0016 20.68 43.1904 16.3366 39.9004 13.0693C36.61 9.80236 32.235 8.0019 27.5733 8C17.9674 8 10.1501 15.7543 10.1463 25.2851ZM15.6479 33.4757L15.3029 32.9323C13.8529 30.6446 13.0875 28.0009 13.0886 25.2862C13.0918 17.3644 19.5892 10.9194 27.5788 10.9194C31.4479 10.921 35.0841 12.4176 37.819 15.1329C40.5538 17.8486 42.0586 21.4585 42.0577 25.2979C42.0541 33.2197 35.5566 39.6655 27.5733 39.6655H27.5675C24.9681 39.6641 22.4187 38.9715 20.1954 37.6625L19.6663 37.3512L14.1841 38.7773L15.6479 33.4755V33.4757Z" fill="url(#paint1_linear_5384_29765)"></path> <path d="M23.2182 18.0574C22.892 17.338 22.5487 17.3234 22.2384 17.3108C21.9844 17.3 21.694 17.3008 21.4039 17.3008C21.1135 17.3008 20.6417 17.4092 20.2429 17.8413C19.8437 18.2737 18.7188 19.3189 18.7188 21.4445C18.7188 23.5703 20.2791 25.6246 20.4966 25.9131C20.7144 26.2011 23.509 30.7028 27.9348 32.4346C31.6131 33.8738 32.3616 33.5876 33.1599 33.5154C33.9584 33.4435 35.7363 32.4706 36.099 31.4617C36.462 30.4529 36.462 29.5882 36.3531 29.4075C36.2443 29.2275 35.9539 29.1194 35.5185 28.9034C35.0829 28.6873 32.9421 27.6421 32.5431 27.4979C32.1438 27.3538 31.8536 27.2819 31.5632 27.7145C31.2728 28.1465 30.439 29.1194 30.1848 29.4075C29.9309 29.6964 29.6768 29.7323 29.2414 29.5162C28.8057 29.2994 27.4034 28.8437 25.7397 27.372C24.4452 26.2267 23.5713 24.8125 23.3173 24.3799C23.0633 23.9479 23.2901 23.7138 23.5084 23.4985C23.7041 23.3049 23.944 22.994 24.1619 22.7418C24.379 22.4895 24.4515 22.3095 24.5967 22.0213C24.742 21.7329 24.6693 21.4806 24.5606 21.2645C24.4515 21.0484 23.6054 18.9116 23.2182 18.0574Z" fill="white"></path> </g> <path d="M59.554 13.2H60.954V23H59.554V13.2ZM53.926 23H52.526V13.2H53.926V23ZM59.68 18.632H53.786V17.414H59.68V18.632ZM68.3364 23V21.432L68.2664 21.138V18.464C68.2664 17.8947 68.0984 17.456 67.7624 17.148C67.4357 16.8307 66.941 16.672 66.2784 16.672C65.8397 16.672 65.4104 16.7467 64.9904 16.896C64.5704 17.036 64.2157 17.2273 63.9264 17.47L63.3664 16.462C63.749 16.154 64.2064 15.9207 64.7384 15.762C65.2797 15.594 65.8444 15.51 66.4324 15.51C67.4497 15.51 68.2337 15.7573 68.7844 16.252C69.335 16.7467 69.6104 17.5027 69.6104 18.52V23H68.3364ZM65.9004 23.084C65.3497 23.084 64.8644 22.9907 64.4444 22.804C64.0337 22.6173 63.7164 22.3607 63.4924 22.034C63.2684 21.698 63.1564 21.32 63.1564 20.9C63.1564 20.4987 63.2497 20.1347 63.4364 19.808C63.6324 19.4813 63.945 19.22 64.3744 19.024C64.813 18.828 65.401 18.73 66.1384 18.73H68.4904V19.696H66.1944C65.5224 19.696 65.0697 19.808 64.8364 20.032C64.603 20.256 64.4864 20.5267 64.4864 20.844C64.4864 21.208 64.631 21.502 64.9204 21.726C65.2097 21.9407 65.611 22.048 66.1244 22.048C66.6284 22.048 67.067 21.936 67.4404 21.712C67.823 21.488 68.0984 21.1613 68.2664 20.732L68.5324 21.656C68.355 22.0947 68.0424 22.4447 67.5944 22.706C67.1464 22.958 66.5817 23.084 65.9004 23.084ZM72.0305 23V15.58H78.9045V23H77.5605V16.42L77.8825 16.756H73.0525L73.3745 16.42V23H72.0305ZM81.5051 23V15.58H82.8491V20.984L87.3991 15.58H88.6171V23H87.2731V17.596L82.7371 23H81.5051ZM94.4598 23.084C93.7038 23.084 93.0272 22.9207 92.4298 22.594C91.8418 22.2673 91.3798 21.8193 91.0438 21.25C90.7078 20.6807 90.5398 20.0273 90.5398 19.29C90.5398 18.5527 90.7078 17.8993 91.0438 17.33C91.3798 16.7607 91.8418 16.3173 92.4298 16C93.0272 15.6733 93.7038 15.51 94.4598 15.51C95.1318 15.51 95.7292 15.6453 96.2518 15.916C96.7838 16.1773 97.1945 16.5693 97.4838 17.092L96.4618 17.75C96.2192 17.386 95.9205 17.12 95.5658 16.952C95.2205 16.7747 94.8472 16.686 94.4458 16.686C93.9605 16.686 93.5265 16.7933 93.1438 17.008C92.7612 17.2227 92.4578 17.526 92.2338 17.918C92.0098 18.3007 91.8978 18.758 91.8978 19.29C91.8978 19.822 92.0098 20.284 92.2338 20.676C92.4578 21.068 92.7612 21.3713 93.1438 21.586C93.5265 21.8007 93.9605 21.908 94.4458 21.908C94.8472 21.908 95.2205 21.824 95.5658 21.656C95.9205 21.4787 96.2192 21.208 96.4618 20.844L97.4838 21.488C97.1945 22.0013 96.7838 22.398 96.2518 22.678C95.7292 22.9487 95.1318 23.084 94.4598 23.084ZM103.774 23V21.432L103.704 21.138V18.464C103.704 17.8947 103.536 17.456 103.2 17.148C102.873 16.8307 102.379 16.672 101.716 16.672C101.277 16.672 100.848 16.7467 100.428 16.896C100.008 17.036 99.6532 17.2273 99.3639 17.47L98.8039 16.462C99.1865 16.154 99.6439 15.9207 100.176 15.762C100.717 15.594 101.282 15.51 101.87 15.51C102.887 15.51 103.671 15.7573 104.222 16.252C104.773 16.7467 105.048 17.5027 105.048 18.52V23H103.774ZM101.338 23.084C100.787 23.084 100.302 22.9907 99.8819 22.804C99.4712 22.6173 99.1539 22.3607 98.9299 22.034C98.7059 21.698 98.5939 21.32 98.5939 20.9C98.5939 20.4987 98.6872 20.1347 98.8739 19.808C99.0699 19.4813 99.3825 19.22 99.8119 19.024C100.251 18.828 100.839 18.73 101.576 18.73H103.928V19.696H101.632C100.96 19.696 100.507 19.808 100.274 20.032C100.041 20.256 99.9239 20.5267 99.9239 20.844C99.9239 21.208 100.069 21.502 100.358 21.726C100.647 21.9407 101.049 22.048 101.562 22.048C102.066 22.048 102.505 21.936 102.878 21.712C103.261 21.488 103.536 21.1613 103.704 20.732L103.97 21.656C103.793 22.0947 103.48 22.4447 103.032 22.706C102.584 22.958 102.019 23.084 101.338 23.084ZM108.938 23V16.406L109.274 16.756H106.222V15.58H112.998V16.756H109.96L110.282 16.406V23H108.938ZM117.802 18.1C118.745 18.1093 119.464 18.324 119.958 18.744C120.453 19.164 120.7 19.7567 120.7 20.522C120.7 21.3247 120.43 21.9453 119.888 22.384C119.347 22.8133 118.582 23.0233 117.592 23.014L114.372 23V15.58H115.716V18.086L117.802 18.1ZM117.48 21.992C118.087 22.0013 118.544 21.88 118.852 21.628C119.17 21.376 119.328 21.0027 119.328 20.508C119.328 20.0227 119.174 19.668 118.866 19.444C118.558 19.22 118.096 19.1033 117.48 19.094L115.716 19.066V21.978L117.48 21.992ZM52.302 38V30.58H55.746C56.614 30.58 57.2953 30.748 57.79 31.084C58.294 31.4107 58.546 31.8773 58.546 32.484C58.546 33.0907 58.308 33.562 57.832 33.898C57.3653 34.2247 56.7447 34.388 55.97 34.388L56.18 34.024C57.0667 34.024 57.7247 34.1873 58.154 34.514C58.5833 34.8407 58.798 35.3213 58.798 35.956C58.798 36.6 58.5553 37.104 58.07 37.468C57.594 37.8227 56.8613 38 55.872 38H52.302ZM53.618 36.964H55.774C56.334 36.964 56.754 36.88 57.034 36.712C57.314 36.5347 57.454 36.2547 57.454 35.872C57.454 35.48 57.3233 35.1953 57.062 35.018C56.81 34.8313 56.4087 34.738 55.858 34.738H53.618V36.964ZM53.618 33.772H55.634C56.1473 33.772 56.5347 33.6787 56.796 33.492C57.0667 33.296 57.202 33.0253 57.202 32.68C57.202 32.3253 57.0667 32.0593 56.796 31.882C56.5347 31.7047 56.1473 31.616 55.634 31.616H53.618V33.772ZM67.0834 38L63.8074 28.2H65.2494L68.2594 37.244H67.5314L70.6534 28.2H71.9414L74.9934 37.244H74.2934L77.3454 28.2H78.6754L75.3994 38H73.9294L71.0734 29.614H71.4514L68.5814 38H67.0834ZM84.359 30.51C84.9657 30.51 85.4977 30.6267 85.955 30.86C86.4217 31.0933 86.7857 31.448 87.047 31.924C87.3084 32.4 87.439 33.002 87.439 33.73V38H86.095V33.884C86.095 33.1653 85.9177 32.624 85.563 32.26C85.2177 31.896 84.7277 31.714 84.093 31.714C83.617 31.714 83.2017 31.8073 82.847 31.994C82.4924 32.1807 82.217 32.456 82.021 32.82C81.8344 33.184 81.741 33.6367 81.741 34.178V38H80.397V27.612H81.741V32.582L81.475 32.05C81.7177 31.5647 82.091 31.1867 82.595 30.916C83.099 30.6453 83.687 30.51 84.359 30.51ZM94.5323 38V36.432L94.4623 36.138V33.464C94.4623 32.8947 94.2943 32.456 93.9583 32.148C93.6317 31.8307 93.137 31.672 92.4743 31.672C92.0357 31.672 91.6063 31.7467 91.1863 31.896C90.7663 32.036 90.4117 32.2273 90.1223 32.47L89.5623 31.462C89.945 31.154 90.4023 30.9207 90.9343 30.762C91.4757 30.594 92.0403 30.51 92.6283 30.51C93.6457 30.51 94.4297 30.7573 94.9803 31.252C95.531 31.7467 95.8063 32.5027 95.8063 33.52V38H94.5323ZM92.0963 38.084C91.5457 38.084 91.0603 37.9907 90.6403 37.804C90.2297 37.6173 89.9123 37.3607 89.6883 37.034C89.4643 36.698 89.3523 36.32 89.3523 35.9C89.3523 35.4987 89.4457 35.1347 89.6323 34.808C89.8283 34.4813 90.141 34.22 90.5703 34.024C91.009 33.828 91.597 33.73 92.3343 33.73H94.6863V34.696H92.3903C91.7183 34.696 91.2657 34.808 91.0323 35.032C90.799 35.256 90.6823 35.5267 90.6823 35.844C90.6823 36.208 90.827 36.502 91.1163 36.726C91.4057 36.9407 91.807 37.048 92.3203 37.048C92.8243 37.048 93.263 36.936 93.6363 36.712C94.019 36.488 94.2943 36.1613 94.4623 35.732L94.7283 36.656C94.551 37.0947 94.2383 37.4447 93.7903 37.706C93.3423 37.958 92.7777 38.084 92.0963 38.084ZM100.842 38.084C100.095 38.084 99.5162 37.8833 99.1055 37.482C98.6949 37.0807 98.4895 36.5067 98.4895 35.76V28.956H99.8335V35.704C99.8335 36.1053 99.9315 36.4133 100.128 36.628C100.333 36.8427 100.622 36.95 100.996 36.95C101.416 36.95 101.766 36.8333 102.046 36.6L102.466 37.566C102.26 37.7433 102.013 37.874 101.724 37.958C101.444 38.042 101.15 38.084 100.842 38.084ZM97.2295 31.686V30.58H101.962V31.686H97.2295ZM106.218 38.084C105.602 38.084 105.014 38 104.454 37.832C103.904 37.664 103.47 37.4587 103.152 37.216L103.712 36.152C104.03 36.3667 104.422 36.5487 104.888 36.698C105.355 36.8473 105.831 36.922 106.316 36.922C106.942 36.922 107.39 36.8333 107.66 36.656C107.94 36.4787 108.08 36.2313 108.08 35.914C108.08 35.6807 107.996 35.4987 107.828 35.368C107.66 35.2373 107.436 35.1393 107.156 35.074C106.886 35.0087 106.582 34.9527 106.246 34.906C105.91 34.85 105.574 34.7847 105.238 34.71C104.902 34.626 104.594 34.514 104.314 34.374C104.034 34.2247 103.81 34.024 103.642 33.772C103.474 33.5107 103.39 33.1653 103.39 32.736C103.39 32.288 103.516 31.896 103.768 31.56C104.02 31.224 104.375 30.9673 104.832 30.79C105.299 30.6033 105.85 30.51 106.484 30.51C106.97 30.51 107.46 30.5707 107.954 30.692C108.458 30.804 108.869 30.9673 109.186 31.182L108.612 32.246C108.276 32.022 107.926 31.868 107.562 31.784C107.198 31.7 106.834 31.658 106.47 31.658C105.882 31.658 105.444 31.756 105.154 31.952C104.865 32.1387 104.72 32.3813 104.72 32.68C104.72 32.932 104.804 33.128 104.972 33.268C105.15 33.3987 105.374 33.5013 105.644 33.576C105.924 33.6507 106.232 33.716 106.568 33.772C106.904 33.8187 107.24 33.884 107.576 33.968C107.912 34.0427 108.216 34.15 108.486 34.29C108.766 34.43 108.99 34.626 109.158 34.878C109.336 35.13 109.424 35.466 109.424 35.886C109.424 36.334 109.294 36.7213 109.032 37.048C108.771 37.3747 108.402 37.6313 107.926 37.818C107.45 37.9953 106.881 38.084 106.218 38.084ZM109.816 38L114.254 28.2H115.64L120.092 38H118.622L114.66 28.984H115.22L111.258 38H109.816ZM111.706 35.55L112.084 34.43H117.6L118.006 35.55H111.706ZM125.292 38.084C124.676 38.084 124.111 37.944 123.598 37.664C123.094 37.3747 122.688 36.95 122.38 36.39C122.081 35.83 121.932 35.13 121.932 34.29C121.932 33.45 122.077 32.75 122.366 32.19C122.665 31.63 123.066 31.21 123.57 30.93C124.083 30.65 124.657 30.51 125.292 30.51C126.02 30.51 126.664 30.6687 127.224 30.986C127.784 31.3033 128.227 31.7467 128.554 32.316C128.881 32.876 129.044 33.534 129.044 34.29C129.044 35.046 128.881 35.7087 128.554 36.278C128.227 36.8473 127.784 37.2907 127.224 37.608C126.664 37.9253 126.02 38.084 125.292 38.084ZM121.358 40.716V30.58H122.646V32.582L122.562 34.304L122.702 36.026V40.716H121.358ZM125.18 36.908C125.656 36.908 126.081 36.8007 126.454 36.586C126.837 36.3713 127.135 36.068 127.35 35.676C127.574 35.2747 127.686 34.8127 127.686 34.29C127.686 33.758 127.574 33.3007 127.35 32.918C127.135 32.526 126.837 32.2227 126.454 32.008C126.081 31.7933 125.656 31.686 125.18 31.686C124.713 31.686 124.289 31.7933 123.906 32.008C123.533 32.2227 123.234 32.526 123.01 32.918C122.795 33.3007 122.688 33.758 122.688 34.29C122.688 34.8127 122.795 35.2747 123.01 35.676C123.234 36.068 123.533 36.3713 123.906 36.586C124.289 36.8007 124.713 36.908 125.18 36.908ZM134.835 38.084C134.219 38.084 133.654 37.944 133.141 37.664C132.637 37.3747 132.231 36.95 131.923 36.39C131.624 35.83 131.475 35.13 131.475 34.29C131.475 33.45 131.62 32.75 131.909 32.19C132.208 31.63 132.609 31.21 133.113 30.93C133.626 30.65 134.2 30.51 134.835 30.51C135.563 30.51 136.207 30.6687 136.767 30.986C137.327 31.3033 137.77 31.7467 138.097 32.316C138.424 32.876 138.587 33.534 138.587 34.29C138.587 35.046 138.424 35.7087 138.097 36.278C137.77 36.8473 137.327 37.2907 136.767 37.608C136.207 37.9253 135.563 38.084 134.835 38.084ZM130.901 40.716V30.58H132.189V32.582L132.105 34.304L132.245 36.026V40.716H130.901ZM134.723 36.908C135.199 36.908 135.624 36.8007 135.997 36.586C136.38 36.3713 136.678 36.068 136.893 35.676C137.117 35.2747 137.229 34.8127 137.229 34.29C137.229 33.758 137.117 33.3007 136.893 32.918C136.678 32.526 136.38 32.2227 135.997 32.008C135.624 31.7933 135.199 31.686 134.723 31.686C134.256 31.686 133.832 31.7933 133.449 32.008C133.076 32.2227 132.777 32.526 132.553 32.918C132.338 33.3007 132.231 33.758 132.231 34.29C132.231 34.8127 132.338 35.2747 132.553 35.676C132.777 36.068 133.076 36.3713 133.449 36.586C133.832 36.8007 134.256 36.908 134.723 36.908Z" fill="black"></path> <defs> <linearGradient id="paint0_linear_5384_29765" x1="1699.99" y1="3376.27" x2="1699.99" y2="8.60547" gradientUnits="userSpaceOnUse"> <stop stop-color="#1FAF38"></stop> <stop offset="1" stop-color="#60D669"></stop> </linearGradient> <linearGradient id="paint1_linear_5384_29765" x1="1760" y1="3496.43" x2="1760" y2="8" gradientUnits="userSpaceOnUse"> <stop stop-color="#F9F9F9"></stop> <stop offset="1" stop-color="white"></stop> </linearGradient> <clipPath id="clip0_5384_29765"> <rect width="35" height="35" fill="white" transform="translate(10 8)"></rect> </clipPath> </defs> </svg> 